<?xml version="1.0" encoding="utf-8"?>
<!-- Generator: Adobe Illustrator 27.9.4, SVG Export Plug-In . SVG Version: 9.03 Build 54784)  -->
<svg version="1.1" id="Layer_1" xmlns="http://www.w3.org/2000/svg" xmlns:xlink="http://www.w3.org/1999/xlink" x="0px" y="0px"
	 viewBox="0 0 111.7 122.05" style="enable-background:new 0 0 111.7 122.05;" xml:space="preserve">
<style type="text/css">
	.st0{fill:#F4EB42;stroke:#231F20;stroke-width:4.6017;stroke-miterlimit:10;}
</style>
<path id="star--big" class="st0" d="M32.44,43.82c2.81-6.44-1.75-9.25-0.73-21.36c0.33-3.92,1.48-17.46,8.21-19.8
	c7.28-2.53,17.83,9.17,20.38,12c8.29,9.2,8.51,16.02,14.24,17c4.48,0.77,5.67-3.18,14.35-5.3c3.46-0.85,13.1-3.21,17.45,1.56
	c4.73,5.18,0.45,15.77,0.09,16.63c-3.49,8.36-9.38,8.94-9.44,14.24c-0.06,5.16,5.51,5.92,9.44,14.35
	c2.22,4.76,4.94,14.15,0.85,18.39c-4.56,4.73-15.69,1.1-19.69-0.2c-8.72-2.84-10.26-6.45-13.99-5.41
	c-5.25,1.46-4.36,9.19-11.35,19.71c-1.18,1.78-10.45,15.72-17.65,13.97c-6.24-1.51-9-14.31-9.64-20.47
	c-0.92-8.76,1.43-13.73-1.58-16.02c-2.79-2.12-6.05,1.19-13.36,1.07c-6.78-0.11-16.05-3.16-17.51-8.56
	C1.04,70.23,7.8,64.07,13.52,58.84C24.08,49.2,29.57,50.38,32.44,43.82z"/>
</svg>