<?xml version="1.0" encoding="utf-8"?>
<!-- Generator: Adobe Illustrator 27.9.4, SVG Export Plug-In . SVG Version: 9.03 Build 54784)  -->
<svg version="1.1" id="Layer_1" xmlns="http://www.w3.org/2000/svg" xmlns:xlink="http://www.w3.org/1999/xlink" x="0px" y="0px"
	 viewBox="0 0 1688.38 897.37" style="enable-background:new 0 0 1688.38 897.37;" xml:space="preserve">
<style type="text/css">
	.st0{fill:#00B1DC;stroke:#231F20;stroke-width:4.602;stroke-miterlimit:10;}
	.st1{fill:#A1CF6D;stroke:#231F20;stroke-width:4.602;stroke-miterlimit:10;}
	.st2{fill:#A1CF6D;stroke:#231F20;stroke-width:4.6006;stroke-miterlimit:10;}
	.st3{fill:#0A0203;stroke:#231F20;stroke-miterlimit:10;}
	.st4{fill:#FFFFFF;stroke:#231F20;stroke-miterlimit:10;}
</style>
<g id="earth">
	<g id="earth_x5F__x5F_bluegreen">
		<text y="950" x="500" fill="black" font-size="30">Hva kan du gjøre?</text>
		<path class="st0" d="M1383.35,820.01c13.22-38.58-0.43-82.09,25.22-117.43c40-34.88,87.12-90.38,66.72-152.07
			c-67.84-107.07,52.71-212.7-45.19-298.28c-60.73-67.52-66.5-90.64-16.23-168c14.62,3.57,28.87,7.96,42.78,13.11
			c-115.03-58.43-248.45-88.9-388.46-94.2c23.95,15.64,14.71,46.46-54.11,99.68c-12.08,17.1-1.8,12.12-7.8,21.65
			c-11.35,6.47,7.58,22.35-9.69,25.81c5.04,51.24,60.67,120.28-14.88,149.72c-33.99,12.83-60.24,31.62-89.51,2.72
			c-30.59-23.34-36.03-89.87-85.01-92.14c-64.55-4.66-142.22-77.8-135.92-147.8c9.45-7.97,29.92-17.08,56.9-26.1
			c-36.92,8.49-73.66,18.5-110.01,30c-34.1,11.3-67.81,23.91-100.98,37.78c29.84-3.03,36.21,14.65-2.08,67.77
			c-24.73,14.48-34.4,56.75-54.14,81.74c-24.99,67.39-1.94,178.01-95.87,191.26c-10.02,7.99-28.22,12.36-37.9,23.7
			c-47.07,25.19-94.76,76.24-76.47,133.38c9.74,19.9-20.42,32.97-28.97,49.23c-33,35.11-76.73,104.14-116.61,38.87
			c-35.8-39.62,38.76-93.5,4.19-137.43c-7.86-19.63-30.97-37.18-25.55-60.5c25.68-46.27,75.74-84.49,83.25-137.51
			c8.57-11.25,5.84-28.57,6.87-43.88C109.56,364.77,51.66,424.33,2.3,488.91v406.17h371.73c-1.38-72.4,8.11-144.63,16.63-215.28
			c2.92-48.3,28.13-94.29,60.26-130.03c48.71-47.47,147.77-38.03,171.26,30.36c28.91,68.62,13.31,220.73-27.5,314.95h436.21
			c-3.99-48.94,5.78-104.38,23.16-145.42c24.82-63.99,34.6-158.99,117.99-168.25c43.92-19.79,95.46,23.51,98.72,67.71
			c0.95,4.13,1.69,9.2,1.73,14.3c0.3,0,0.6,0,0.9,0.01c4.95,64.88-27.28,145.34-21.62,209.93c1.33,7.26,1.87,14.54,1.67,21.72
			h103.15C1350.25,868.82,1369.5,841.6,1383.35,820.01z M966.53,622.87c-1.57,26.14-14.01,73.61-48.74,61.2
			c-15.06-4.75-35.94,3.05-45.12-9.46c-6.24-8.5-18.14,3.01-26.97,1.89c-19.56,3-42.57,14.52-52.07-8.06
			c-2.01-6.58-14.8-0.69-14-11.04c-3.77-36.17,6.59-77.22,11.2-113.1c11.19-1.56-0.58-8.58,3.2-12.8
			c12.51-3.96,9.25-26.31,18.67-26.02c6.79-0.1,9.77-5.47,13.93-9.24c26.81,0.54,60.52,12.99,75.43,25.08
			c0.42,14.72,19.11,18.89,20.04,30.1c-0.17,2.84,0.29,4.89,3.92,5.83c14.31,2.89,4.49,24.32,19.81,25.72
			c4.78,3.07,4.7,11.74,12.02,12.62c3.13,0.97,3.64,2.58,3.63,5.2C958.85,610.06,973.15,614.71,966.53,622.87z"/>
		<path class="st0" d="M1549.3,895.07h136.78v-32.25c-12.81,2.17-25.89,8.04-38.94,19.27
			C1612.75,872.58,1581.68,886.52,1549.3,895.07z"/>
		<path id="grass_x5F__x5F_bottom" class="st1" d="M961.47,600.8c0.02-2.62-0.49-4.24-3.63-5.2c-7.32-0.89-7.24-9.56-12.02-12.62
			c-15.32-1.4-5.5-22.83-19.81-25.72c-3.63-0.94-4.08-2.99-3.92-5.83c-0.92-11.21-19.61-15.39-20.04-30.1
			c-14.91-12.09-48.63-24.54-75.43-25.08c-4.16,3.77-7.13,9.14-13.93,9.24c-9.42-0.29-6.16,22.06-18.67,26.02
			c-3.78,4.22,7.98,11.24-3.2,12.8c-4.61,35.88-14.96,76.93-11.2,113.1c-0.8,10.35,12,4.46,14,11.04
			c9.51,22.58,32.51,11.06,52.07,8.06c8.83,1.11,20.73-10.39,26.97-1.89c9.18,12.5,30.06,4.71,45.12,9.46
			c34.73,12.41,47.17-35.06,48.74-61.2C973.15,614.71,958.85,610.06,961.47,600.8z"/>
		<path id="grass_x5F__x5F_right" class="st2" d="M1681.96,280.38c-25.09-32.08-52.86-61.22-82.94-87.5
			c-43.07-37.62-90.88-69.38-142.37-95.54c-13.9-5.15-28.16-9.55-42.78-13.11c-50.27,77.36-44.5,100.48,16.23,168
			c97.9,85.58-22.65,191.21,45.19,298.28c20.4,61.7-26.73,117.2-66.72,152.07c-25.65,35.34-12,78.85-25.22,117.43
			c-13.85,21.59-33.1,48.81-26.74,75.06h192.69c32.39-8.56,63.46-22.49,97.84-12.97c13.05-11.23,26.13-17.1,38.94-19.27V337.21
			v-50.94C1684.72,284.3,1683.34,282.34,1681.96,280.38z"/>
		<path id="grass_x5F__x5F_top" class="st1" d="M728.17,36.68c-26.98,9.02-47.45,18.13-56.9,26.1c-6.3,70,71.37,143.15,135.92,147.8
			c48.98,2.28,54.42,68.8,85.01,92.14c29.26,28.9,55.52,10.11,89.51-2.72c75.55-29.44,19.92-98.48,14.88-149.72
			c17.27-3.45-1.66-19.34,9.69-25.81c6-9.54-4.28-4.56,7.8-21.65c68.82-53.22,78.06-84.04,54.11-99.68
			C957.03-1.07,841.73,10.58,728.17,36.68z"/>
		<path id="grass_x5F__x5F_eft" class="st1" d="M83.79,492.48c-5.42,23.32,17.68,40.87,25.55,60.5
			c34.58,43.93-39.99,97.81-4.19,137.43c39.89,65.26,83.61-3.76,116.61-38.87c8.55-16.26,38.71-29.33,28.97-49.23
			c-18.28-57.13,29.4-108.19,76.47-133.38c9.68-11.33,27.88-15.71,37.9-23.7c93.93-13.25,70.88-123.87,95.87-191.26
			c19.74-24.98,29.41-67.26,54.14-81.74c38.29-53.12,31.91-70.81,2.08-67.77C392.33,156.65,275.15,226.61,173.9,311.08
			c-1.03,15.31,1.7,32.63-6.87,43.88C159.52,407.99,109.46,446.21,83.79,492.48z"/>
	</g>
	<g id="eye_x5F__x5F_right">
		<path class="st3" d="M1273.41,663.43c-0.31-0.01-0.61-0.01-0.9-0.01c0,0.5,0,1-0.01,1.5c0.01-0.5,0.01-1,0.01-1.5
			c-0.04-5.11-0.78-10.18-1.73-14.3c-3.26-44.2-54.8-87.5-98.72-67.71c-83.39,9.26-93.17,104.26-117.99,168.25
			c-17.38,41.04-27.15,96.48-23.16,145.42h25.53c5.27-19.59,21.68-36.88,44.97-35.67c18.01,2.22,25.01,18.06,24.48,35.67h127.58
			c0.19-7.19-0.34-14.46-1.67-21.72C1246.13,808.77,1278.36,728.31,1273.41,663.43z M1266.07,683.78
			C1266.07,683.78,1266.07,683.78,1266.07,683.78C1266.07,683.78,1266.07,683.78,1266.07,683.78L1266.07,683.78z M1272.44,666.4
			c0.02-0.32,0.03-0.65,0.04-0.98C1272.47,665.75,1272.46,666.07,1272.44,666.4z M1266.72,683.09c0.08-0.09,0.17-0.18,0.26-0.28
			C1266.89,682.91,1266.8,682.99,1266.72,683.09z M1267.52,682.14c0.09-0.12,0.19-0.24,0.28-0.36
			C1267.71,681.9,1267.61,682.02,1267.52,682.14z M1268.28,681.09c0.09-0.14,0.19-0.27,0.28-0.41
			C1268.46,680.82,1268.37,680.95,1268.28,681.09z M1268.97,679.98c0.09-0.15,0.18-0.31,0.26-0.46
			C1269.14,679.67,1269.05,679.82,1268.97,679.98z M1269.59,678.8c0.08-0.17,0.16-0.33,0.24-0.51
			C1269.75,678.47,1269.67,678.63,1269.59,678.8z M1270.15,677.57c0.08-0.18,0.15-0.36,0.22-0.54
			C1270.3,677.21,1270.22,677.39,1270.15,677.57z M1270.64,676.29c0.07-0.19,0.13-0.39,0.2-0.58
			C1270.77,675.91,1270.71,676.1,1270.64,676.29z M1271.07,674.97c0.06-0.2,0.12-0.41,0.17-0.62
			C1271.18,674.56,1271.13,674.77,1271.07,674.97z M1271.43,673.61c0.05-0.22,0.1-0.44,0.15-0.66
			C1271.54,673.17,1271.49,673.39,1271.43,673.61z M1271.74,672.22c0.05-0.23,0.09-0.46,0.13-0.7
			C1271.83,671.75,1271.79,671.99,1271.74,672.22z M1271.99,670.79c0.04-0.24,0.07-0.49,0.1-0.74
			C1272.06,670.3,1272.03,670.55,1271.99,670.79z M1272.19,669.35c0.03-0.26,0.06-0.52,0.08-0.79
			C1272.25,668.82,1272.22,669.08,1272.19,669.35z M1272.34,667.88c0.02-0.28,0.04-0.57,0.06-0.85
			C1272.38,667.31,1272.36,667.6,1272.34,667.88z M1270.88,663.51c-0.13,0.01-0.25,0.03-0.38,0.05
			C1270.62,663.54,1270.75,663.52,1270.88,663.51z M1266.07,664.88C1266.07,664.88,1266.07,664.88,1266.07,664.88L1266.07,664.88
			C1266.07,664.88,1266.07,664.88,1266.07,664.88z M1269.2,663.78c-0.07,0.02-0.15,0.03-0.22,0.05
			C1269.06,663.81,1269.13,663.8,1269.2,663.78z M1256.54,720.47c0.04-0.06,0.08-0.12,0.13-0.19c-0.04,0.11-0.08,0.21-0.13,0.31
			V720.47z"/>
		<path id="white_x5F__x5F_top_00000153694783290153576410000010714866354840343452_" class="st4" d="M1246.06,730.98
			c58.67-47.62-17.27-203.41-78.13-111.75C1124.36,679.09,1176.51,757.03,1246.06,730.98z"/>
		<path id="white_x5F__x5F_bottom_00000155829798187817961220000010831878669039127426_" class="st4" d="M1101.4,859.4
			c-23.29-1.21-39.7,16.07-44.97,35.67h69.45C1126.41,877.46,1119.4,861.63,1101.4,859.4z"/>
	</g>
	<g id="eye_x5F__x5F_left">
		<path id="black" class="st3" d="M622.19,580.12c-23.49-68.39-122.55-77.83-171.26-30.36c-32.13,35.74-57.35,81.73-60.26,130.03
			c-8.52,70.65-18.01,142.88-16.63,215.28h46.76c13.27-8.57,30.77-9.47,42.8,0h131.1C635.49,800.85,651.09,648.74,622.19,580.12z"/>
		<path id="white_x5F__x5F_top" class="st4" d="M481.51,577.78c-22.49,72.14,126.99,159.84,126.93,49.81
			C611.59,553.61,525.01,517.58,481.51,577.78z"/>
		<path id="white_x5F__x5F_bottom" class="st4" d="M420.79,895.07h42.8C451.56,885.6,434.07,886.5,420.79,895.07z"/>
		<ellipse cx="100" cy="1600" rx="30" ry="40" style="fill:white">
        <animate attributeName="cx" values="230; 270; 230;"  dur="2s" repeatCount="indefinite"/>
        </ellipse>
	</g>
</g>
</svg>
