<?xml version="1.0" encoding="utf-8"?>
<!-- Generator: Adobe Illustrator 27.9.4, SVG Export Plug-In . SVG Version: 9.03 Build 54784)  -->
<svg version="1.1" id="Layer_1" xmlns="http://www.w3.org/2000/svg" xmlns:xlink="http://www.w3.org/1999/xlink" x="0px" y="0px"
	 viewBox="0 0 1204.53 559.94" style="enable-background:new 0 0 1204.53 559.94;" xml:space="preserve">
<style type="text/css">
	.st0{fill:#816C5D;stroke:#231F20;stroke-width:4.6017;stroke-miterlimit:10;}
	.st1{fill:#231F20;}
	.st2{fill:#F4EB42;stroke:#231F20;stroke-width:4.6017;stroke-miterlimit:10;}
	.st3{fill:#A1CF6D;stroke:#231F20;stroke-width:4.602;stroke-miterlimit:10;}
	.st4{fill:#231F20;stroke:#231F20;stroke-width:4.6017;stroke-miterlimit:10;}
	.st5{fill:#FFFFFF;}
	.st6{fill:#0A0203;}
	.st7{fill:none;stroke:#FFFFFF;stroke-width:4.6017;stroke-miterlimit:10;}
	.st8{fill:#FDDFCD;stroke:#231F20;stroke-width:4.6017;stroke-miterlimit:10;}
	.st9{fill:#00B1DC;}
	.st10{fill:#C67161;}
	.st11{fill:#AC9181;stroke:#231F20;stroke-width:4.6017;stroke-miterlimit:10;}
	.st12{fill:#B6A69E;stroke:#231F20;stroke-width:4.6017;stroke-miterlimit:10;}
</style>
<g id="kids">
	<g id="kid_x5F__x5F_right">
		<path class="st0" d="M810.45,312.75c-11.74-1.81-10.76-21.49,0.65-23.22c6.45-0.17,12.59,6.58,12.08,12.97
			C822.22,307.95,816.27,313.91,810.45,312.75z"/>
		<g>
			<path class="st1" d="M987.39,555.88c-7.25-10.43-22.37-17.18-35.34-21.22c-8.63-2.69-17.94-3.56-27.02-2.62
				c-6.7,0.69-9.42,8.08-4.54,12.26c7.01,6.01,15.56,10.58,24.83,13.15C958.99,561.24,974.12,560.68,987.39,555.88z"/>
		</g>
		<g>
			<path class="st1" d="M1095.82,532.19c17.92-3.15,35.31-11.09,53.45-9.06c2.77,0.31,5.67,0.93,7.63,2.64
				c3.15,2.75,2.69,7.53-0.01,10.62c-2.69,3.09-7.02,4.79-11.31,5.93C1128.64,546.82,1110.31,540.97,1095.82,532.19z"/>
		</g>
		<path class="st2" d="M967.65,372.33c-0.03,17.14-0.55,43.74-0.58,60.88c0,1.27,0.04,2.66,0.87,3.63c0.84,0.98,2.25,1.22,3.53,1.39
			c22.52,2.98,45.2,4.84,67.91,5.57c0.34-12.55-1.39-25.16-5.12-37.16c8.23,7.58,14.79,16.98,19.05,27.33
			c18.34-3.46,36.67-6.93,55.01-10.39c-3.89-20.87-7.77-41.73-11.66-62.6c-0.49-2.63-1.24-12.85-3.53-14.23
			c-1.97-1.2-4.48-0.82-6.75-0.4C1043.69,354.27,1009.16,359.64,967.65,372.33z"/>
		<g>
			<g>
				<path class="st1" d="M823.87,303.06c20.32-0.29,40.64,1.75,60.47,6.18c5.59,1.25,11.14,2.68,16.64,4.29
					c1.08,0.32,2.25-0.22,2.82-1.15c5.59-9.03,14.01-16.35,23.83-20.46c1.24-0.52,2.14-1.65,1.75-3.08
					c-0.32-1.17-1.82-2.27-3.08-1.75c-11.08,4.64-20.48,12.53-26.82,22.76c0.94-0.38,1.88-0.77,2.82-1.15
					c-19.85-5.8-40.37-9.27-61.02-10.33c-5.8-0.3-11.61-0.4-17.42-0.31C820.66,298.11,820.65,303.11,823.87,303.06L823.87,303.06z"
					/>
			</g>
		</g>
		<path class="st3" d="M917,277.03c1.37,12.47,6.16,24.56,13.69,34.59c9.03-8.62,18.05-17.23,27.08-25.85
			c1.46,31.13,2.92,62.25,4.37,93.38c44.92-15.21,91.81-24.6,139.12-27.86c-7.86-29.07-15.73-58.14-23.59-87.21
			c-0.77-2.86-1.55-5.84-1.03-8.76c0.49-2.72,2.07-5.1,3.63-7.39c11.69-17.08,24.36-33.49,37.94-49.12
			c-7.51-9.86-15.48-19.36-23.87-28.48c-18.79,15.96-37.58,31.91-56.38,47.87c-2.63,2.23-5.33,4.51-8.57,5.69
			c-3.48,1.27-7.29,1.17-10.99,1.05c-15.22-0.48-30.44-0.95-45.66-1.43c-2.38-0.07-4.85-0.14-7.07,0.73
			c-2.47,0.96-4.36,2.96-6.16,4.9C945.7,244.03,930.82,262.17,917,277.03z"/>
		<g>
			<g>
				<path class="st1" d="M1106.45,184.38c2.44-1.73,4.88-3.45,7.32-5.18c2.11-1.49,4.58-2.88,6.19-4.94
					c1.74-2.22,1.77-4.86,1.65-7.56c-0.12-2.76-0.18-5.53-0.18-8.3c0.02-11.08,1.07-22.16,3.17-33.04c1.2-6.21,2.73-12.35,4.57-18.4
					c0.94-3.09-3.89-4.4-4.82-1.33c-3.15,10.36-5.35,20.97-6.64,31.72c-0.64,5.34-1.04,10.7-1.2,16.08c-0.08,2.77-0.1,5.53-0.06,8.3
					c0.04,2.55,0.47,5.27,0.19,7.81c-0.27,2.4-3.04,3.67-4.8,4.92c-2.64,1.87-5.28,3.74-7.92,5.61c-1.1,0.78-1.62,2.18-0.9,3.42
					C1103.67,184.57,1105.34,185.16,1106.45,184.38L1106.45,184.38z"/>
			</g>
		</g>
		<g>
			<g>
				<path class="st1" d="M994.73,443.26c-3.11,28.97-5.79,57.99-8.04,87.04c-0.63,8.19-1.23,16.39-1.8,24.59
					c-0.09,1.35,1.22,2.5,2.5,2.5c1.43,0,2.41-1.15,2.5-2.5c2.01-29.07,4.44-58.11,7.31-87.11c0.81-8.18,1.65-16.35,2.53-24.53
					c0.14-1.34-1.25-2.5-2.5-2.5C995.76,440.76,994.88,441.91,994.73,443.26L994.73,443.26z"/>
			</g>
		</g>
		<g>
			<g>
				<g>
					<g>
						<path class="st0" d="M1042.07,88.37c58.87,30.64,18.37,133.07-45.13,121.74c-34.43-10.65-54.84-57.44-40.63-90.32
							C971.16,92.65,1013.32,71.79,1042.07,88.37z"/>
						<path class="st4" d="M987.03,123.52c-20.62,0.93-21.62,38.74-4.33,44.31C1010.98,174.67,1011.24,124.79,987.03,123.52z"/>
						<path class="st5" d="M996.9,140.72"/>
					</g>
					<path class="st1" d="M1039.46,121.71c-26.89-1.02-29.51,51.18,1.06,46.54c0.87-0.13,1.75-0.23,2.62-0.35
						c20.08-2.62,15.17-34.17,1.48-44.4C1043.13,122.39,1041.32,121.78,1039.46,121.71z"/>
					<path class="st5" d="M1036.07,165.3c-8.09,0.49-11.33-8.74-9.22-10.77c6.11-6.14,13.96-10.71,22.63-7.56
						c0,0,1.93,0.53,2.06,2.74C1052.06,158.25,1050.51,164.42,1036.07,165.3z"/>
					<path class="st5" d="M1040.79,125.78c10.07,4.38,3.52,9.24-2.73,9.61c-2.67,0.16-4.54-1.01-6.41-2.49
						c-2.08-1.65-1.73-5.22,0.63-6.19C1035.1,125.55,1038.82,125.12,1040.79,125.78z"/>
				</g>
				<path class="st5" d="M984.02,163.86c3.09,0.57,6.25,0.19,9.12-1.07c2.62-1.15,5.06-2.81,5.68-5.59
					C1010.43,130.84,959.87,159.42,984.02,163.86z"/>
				<path class="st5" d="M988.35,140.03c17.24-1.26,1.52-17.23-6.09-10.69c-1.28,1.1-1.74,2.9-1.14,4.48
					C982.34,137.03,984.71,140.09,988.35,140.03z"/>
			</g>
			<g>
				<g>
					<path class="st1" d="M1002.64,183.41c8.12-0.5,16.24-0.99,24.36-1.49c3.2-0.19,3.22-5.2,0-5c-8.12,0.5-16.24,0.99-24.36,1.49
						C999.44,178.6,999.42,183.6,1002.64,183.41L1002.64,183.41z"/>
				</g>
			</g>
		</g>
		<g>
			<g>
				<path class="st6" d="M1110.52,62.94c-5.75,7.92-12.56,15.82-13.81,25.53c-0.28,2.19-0.21,4.57,1.06,6.37
					c0.95,1.34,2.44,2.17,3.87,2.95c11.69,6.41,23.38,12.81,35.07,19.22c1.58,0.87,3.26,1.76,5.06,1.74
					c2.52-0.02,4.66-1.77,6.48-3.51c18.78-17.8,29.27-42.53,45.5-62.68c5.24-6.5,11.36-15.35,6.7-22.28
					c-1.48-2.2-3.81-3.64-6.09-4.99c-13.99-8.28-24.47-15.5-39.56-21.56c-1.96-0.79-4.07-1.57-6.14-1.18
					c-2.3,0.43-4.09,2.21-5.66,3.95C1138.46,11.59,1119.85,50.08,1110.52,62.94z"/>
				<g>
					<path class="st1" d="M1108.36,61.68c-3.54,4.87-7.38,9.58-10.22,14.91c-1.42,2.66-2.62,5.49-3.33,8.43
						c-0.7,2.91-1.19,6.23-0.16,9.13c1.18,3.34,4.12,4.92,7.05,6.53c3.21,1.76,6.43,3.52,9.65,5.28
						c6.43,3.52,12.86,7.05,19.29,10.57c2.89,1.59,5.98,3.82,9.25,4.52c3.42,0.72,6.39-0.79,8.95-2.95
						c4.58-3.87,8.56-8.64,12.25-13.34c7.58-9.66,13.93-20.17,20.53-30.5c3.29-5.14,6.64-10.25,10.26-15.16
						c3.54-4.8,7.71-9.25,10.38-14.63c2.67-5.39,3.56-11.6-0.48-16.58c-1.94-2.39-4.73-3.91-7.33-5.46
						c-2.81-1.67-5.6-3.38-8.39-5.07c-5.26-3.2-10.54-6.38-15.99-9.26c-2.8-1.48-5.64-2.88-8.52-4.18
						c-3.03-1.37-6.25-3.06-9.53-3.71c-8.35-1.64-12.81,7.06-16.23,13.11c-8.35,14.78-15.67,30.21-24.83,44.54
						C1110.12,59.15,1109.27,60.43,1108.36,61.68c-0.79,1.1-0.19,2.79,0.9,3.42c1.26,0.74,2.63,0.2,3.42-0.9
						c4.27-5.91,7.78-12.4,11.31-18.77c4.14-7.49,8.15-15.05,12.23-22.57c1.66-3.06,3.33-6.12,5.08-9.13
						c0.63-1.09,1.28-2.18,1.95-3.25c0.26-0.41,0.52-0.82,0.8-1.22c0.12-0.17,0.24-0.34,0.36-0.51c0.24-0.34,0.43-0.49,0.03-0.06
						c1.27-1.37,2.58-3.2,4.52-3.63c1.33-0.3,2.67,0.15,3.91,0.6c1.52,0.55,3.02,1.19,4.5,1.84c5.49,2.4,10.81,5.16,16.01,8.14
						c5.06,2.9,10.02,5.98,15.01,9c2.57,1.56,5.34,2.95,7.74,4.77c1.83,1.38,3.23,3.26,3.45,5.6c0.49,5.1-3.26,10.15-6.16,13.98
						c-3.44,4.55-6.98,8.99-10.2,13.71c-6.53,9.58-12.38,19.6-18.91,29.18c-3.18,4.66-6.51,9.22-10.17,13.51
						c-1.87,2.2-3.83,4.33-5.88,6.37c-1.61,1.6-3.69,4.19-6.1,4.49c-1.23,0.16-2.41-0.44-3.46-0.99c-1.57-0.83-3.12-1.71-4.68-2.56
						c-3-1.64-5.99-3.28-8.99-4.92c-6.06-3.32-12.13-6.65-18.19-9.97c-1.44-0.79-2.88-1.56-4.31-2.36
						c-1.12-0.63-2.44-1.29-3.02-2.52c-1.03-2.19-0.3-5.13,0.31-7.35c1.47-5.37,4.6-10.1,7.83-14.57c1.65-2.28,3.36-4.52,5.02-6.8
						c0.79-1.09,0.19-2.79-0.9-3.42C1110.52,60.04,1109.16,60.58,1108.36,61.68z"/>
				</g>
			</g>
			<path class="st7" d="M1177.28,61.37c-9.44-2.98-10.12-16.29-7.02-24.34c-29.06,89.73-70.49,14.4-24.23,17"/>
		</g>
		<g>
			<g>
				<path class="st1" d="M1076.96,430.18c5.57,12.66,16.12,22.01,25.04,32.25c2.19,2.51,4.29,5.09,6.19,7.82
					c0.9,1.3,2.13,2.59,1.69,4.25c-0.52,1.95-1.44,3.84-2.15,5.73c-2.91,7.72-5.52,15.56-7.83,23.48
					c-2.61,8.99-4.82,18.1-6.63,27.29c-0.26,1.32,0.38,2.7,1.75,3.08c1.23,0.34,2.81-0.42,3.08-1.75
					c3.27-16.59,7.85-32.91,13.71-48.76c0.74-2.01,1.51-4.01,2.29-6.01c0.76-1.95,1.3-4.04,0.57-6.1c-0.63-1.78-1.85-3.34-2.95-4.86
					c-1.05-1.45-2.14-2.86-3.26-4.25c-4.43-5.48-9.4-10.49-14.1-15.73c-5.16-5.75-9.94-11.86-13.07-18.97
					c-0.54-1.24-2.35-1.52-3.42-0.9C1076.58,427.51,1076.41,428.94,1076.96,430.18L1076.96,430.18z"/>
			</g>
		</g>
	</g>
	<g id="kid_x5F__x5F_center">
		<g>
			<g>
				<g>
					<path class="st1" d="M637.52,367.18c0.07,12.83,0.51,25.67,0.87,38.5c0.41,14.54,0.84,29.09,0.96,43.64
						c0.05,6.7,0.06,13.41-0.18,20.11c-0.12,3.22,4.88,3.21,5,0c0.46-12.82,0.17-25.67-0.11-38.48c-0.32-14.55-0.8-29.09-1.17-43.64
						c-0.17-6.7-0.33-13.41-0.36-20.12C642.51,363.97,637.51,363.96,637.52,367.18L637.52,367.18z"/>
				</g>
			</g>
			<g>
				<path class="st1" d="M640.61,470.56c12.12-2.48,23.89-8.74,36.16-7.14c1.87,0.24,3.83,0.73,5.16,2.08
					c2.13,2.16,1.82,5.93,0,8.37s-4.75,3.77-7.65,4.67C662.82,482.09,650.42,477.48,640.61,470.56z"/>
			</g>
		</g>
		<g>
			<path class="st8" d="M744.52,174.1c-8.88-7.89,2.62-23.89,13.14-19.16c5.51,3.35,7.01,12.36,3.11,17.45
				C757.01,176.46,748.78,178.24,744.52,174.1z"/>
			<g>
				<path class="st9" d="M541.9,210.05c-1.97,8.8-1.13,17.81-3.11,26.61c6.54,1.52,12.93,3.7,19.04,6.49
					c1.45,0.66,3.01,1.5,3.52,3.01c0.46,1.35-0.09,2.82-0.62,4.14c-8.19,20.53-14.21,41.93-17.93,63.72
					c36.18-2.62,72.46-3.9,108.73-3.86c-7-22.57-11.96-45.78-14.81-69.24c15.78-6.32,31.55-12.64,47.33-18.96
					c-4.72-8.32-9.45-16.65-14.17-24.98c-6.93,3.7-13.86,7.4-20.8,11.1c-8.28,4.42-16.67,8.88-25.79,11.08
					c-9.91,2.39-20.27,1.99-30.42,1C575.61,218.48,558.51,215.08,541.9,210.05z"/>
				<g>
					<path class="st1" d="M539.49,209.38c-1.91,8.77-1.2,17.85-3.11,26.61c-0.28,1.28,0.37,2.75,1.75,3.08
						c5.87,1.38,11.64,3.24,17.16,5.67c1.04,0.46,2.25,0.88,3.15,1.59c0.89,0.69,0.54,1.54,0.2,2.51c-1.02,2.87-2.22,5.69-3.28,8.55
						c-4.29,11.63-7.88,23.51-10.77,35.57c-1.62,6.76-3.01,13.57-4.19,20.41c-0.25,1.47,0.65,3.29,2.41,3.16
						c28.25-2.04,56.56-3.28,84.88-3.69c7.95-0.12,15.9-0.17,23.85-0.16c1.58,0,2.89-1.6,2.41-3.16
						c-5.39-17.44-9.59-35.23-12.53-53.25c-0.83-5.1-1.56-10.21-2.18-15.33c-0.61,0.8-1.22,1.61-1.84,2.41
						c15.78-6.32,31.55-12.64,47.33-18.96c1.49-0.6,2.36-2.14,1.49-3.67c-4.72-8.32-9.45-16.65-14.17-24.98
						c-0.68-1.21-2.24-1.53-3.42-0.9c-7.75,4.14-15.48,8.29-23.24,12.41c-7.34,3.9-14.84,7.66-22.98,9.58
						c-8.33,1.97-16.99,1.88-25.47,1.22c-8.66-0.67-17.28-1.86-25.82-3.44c-9.64-1.79-19.18-4.11-28.56-6.95
						c-3.09-0.93-4.41,3.89-1.33,4.82c17.14,5.18,34.78,8.63,52.61,10.3c8.79,0.82,17.66,1.09,26.4-0.41
						c8.55-1.47,16.53-5.02,24.19-8.97c8.97-4.62,17.83-9.48,26.73-14.23c-1.14-0.3-2.28-0.6-3.42-0.9
						c4.72,8.32,9.45,16.65,14.17,24.98c0.5-1.22,1-2.45,1.49-3.67c-15.78,6.32-31.55,12.64-47.33,18.96
						c-0.93,0.37-1.98,1.26-1.84,2.41c2.25,18.42,5.72,36.68,10.49,54.61c1.37,5.13,2.84,10.23,4.41,15.29
						c0.8-1.05,1.61-2.11,2.41-3.16c-28.32-0.03-56.65,0.74-84.93,2.33c-7.94,0.45-15.87,0.96-23.8,1.53
						c0.8,1.05,1.61,2.11,2.41,3.16c2.22-12.92,5.22-25.69,9.02-38.24c1.92-6.35,4.04-12.63,6.36-18.85
						c0.55-1.48,1.11-2.95,1.69-4.43c0.54-1.39,1.23-2.8,1.55-4.26c0.7-3.29-0.93-5.93-3.8-7.46c-3.09-1.65-6.49-2.88-9.78-4.04
						c-3.54-1.25-7.14-2.3-10.79-3.16c0.58,1.03,1.16,2.05,1.75,3.08c1.91-8.77,1.2-17.85,3.11-26.61
						C544.99,207.58,540.17,206.24,539.49,209.38z"/>
				</g>
			</g>
			<g>
				<g>
					<g>
						<path class="st1" d="M564.27,366.6c0.12,14.32-0.29,28.65-0.76,42.96c-0.52,15.92-1.19,31.83-1.93,47.74
							c-0.35,7.53-0.71,15.07-1.08,22.6c-0.16,3.22,4.84,3.21,5,0c0.7-14.31,1.38-28.62,1.97-42.93
							c0.66-15.91,1.25-31.83,1.59-47.75c0.16-7.54,0.26-15.08,0.2-22.62C569.25,363.38,564.25,363.37,564.27,366.6L564.27,366.6z"
							/>
					</g>
				</g>
				<g>
					<path class="st1" d="M563.69,481.25c-10.81-7.14-25-8.94-37.96-8.81c-4.38,0.04-9.25,0.77-12.01,4.18
						c-1.09,1.34-1.76,3.1-1.47,4.81c0.48,2.79,3.26,4.56,5.94,5.48c4.6,1.58,9.59,1.69,14.44,1.32
						C543.24,487.41,553.53,484.38,563.69,481.25z"/>
				</g>
			</g>
			<g>
				<path class="st10" d="M529.44,380.85c26.71-3.13,53.57-4.88,80.46-5.71c20.85-0.65,42.43-0.62,61.59,7.62
					c-6.34-19.87-12.31-50.93-18.65-70.8c-0.55-1.72-1.23-3.61-2.84-4.43c-1.03-0.53-2.24-0.51-3.39-0.48
					c-32.99,0.88-65.99,1.77-98.98,2.65c-0.98,0.03-2.03,0.07-2.83,0.64c-1.12,0.8-1.38,2.32-1.56,3.68
					C542.7,318.27,529.98,376.59,529.44,380.85z"/>
				<g>
					<path class="st1" d="M529.44,383.35c19.17-2.24,38.43-3.78,57.7-4.78c9.46-0.49,18.92-0.88,28.39-1.09
						c8.82-0.2,17.67-0.16,26.46,0.69c9.63,0.93,19.3,2.93,28.23,6.74c0.95,0.4,1.91,0.49,2.78-0.2c0.76-0.6,1.2-1.66,0.9-2.63
						c-6.18-19.44-9.99-39.56-15.29-59.25c-1.19-4.41-2.24-9.04-3.98-13.28c-1.23-3.01-3.38-4.83-6.71-5.02
						c-3.06-0.17-6.21,0.13-9.27,0.21c-13.1,0.35-26.2,0.7-39.29,1.05c-12.93,0.35-25.86,0.69-38.8,1.04
						c-3.23,0.09-6.47,0.17-9.7,0.26c-2.77,0.07-6.26-0.34-8.33,1.92c-0.87,0.95-1.35,2.21-1.58,3.47
						c-0.07,0.39-0.12,0.79-0.17,1.19c-0.12,0.91-0.01-0.16,0.03-0.25c-0.04,0.06-0.03,0.21-0.04,0.29
						c-0.09,0.49-0.17,0.98-0.26,1.47c-2.08,10.96-4.52,21.85-6.83,32.76c-2.2,10.38-4.6,20.75-6.48,31.2
						c-0.1,0.57-0.19,1.13-0.26,1.7C526.77,382.19,528.21,383.35,529.44,383.35c1.5,0,2.32-1.15,2.5-2.5
						c-0.17,1.31,0.05-0.18,0.11-0.53c0.12-0.66,0.25-1.31,0.38-1.97c0.4-2.02,0.81-4.04,1.23-6.06c1.21-5.86,2.45-11.71,3.69-17.56
						c2.47-11.65,4.99-23.3,7.35-34.97c0.29-1.42,0.58-2.84,0.83-4.26c0.13-0.73,0.19-1.47,0.36-2.19c0.18-0.76,0.24-0.99,1-1.08
						c1.55-0.17,3.16-0.1,4.72-0.14c12.68-0.34,25.37-0.68,38.05-1.02c12.68-0.34,25.37-0.68,38.05-1.02
						c6.3-0.17,12.6-0.38,18.9-0.51c0.96-0.02,2.03-0.18,2.73,0.61c0.65,0.74,0.9,1.87,1.19,2.78c0.66,2.08,1.28,4.17,1.88,6.27
						c5.48,19.18,9.29,38.8,14.79,57.97c0.6,2.09,1.22,4.17,1.88,6.24c1.22-0.94,2.45-1.88,3.67-2.82
						c-16.64-7.1-34.8-8.39-52.69-8.19c-19.22,0.21-38.46,1.27-57.62,2.75c-11.02,0.85-22.03,1.91-33.01,3.19
						c-1.34,0.16-2.5,1.04-2.5,2.5C526.94,382.08,528.09,383.5,529.44,383.35z"/>
				</g>
			</g>
			<g>
				<g>
					<path class="st1" d="M677.85,209.28c16.49-9.32,33.22-18.21,50.19-26.63c4.84-2.4,9.69-4.76,14.56-7.09
						c1.22-0.58,1.54-2.32,0.9-3.42c-0.73-1.25-2.2-1.48-3.42-0.9c-17.09,8.17-33.96,16.78-50.59,25.85
						c-4.74,2.59-9.46,5.21-14.16,7.87C672.53,206.54,675.05,210.86,677.85,209.28L677.85,209.28z"/>
				</g>
			</g>
			<g>
				<g>
					<path class="st1" d="M541.67,221.88c-17.59-7.33-34.88-15.37-51.84-24.06c0.3,1.14,0.6,2.28,0.9,3.42
						c6.1-8.4,10.72-17.81,13.73-27.75c0.93-3.09-3.89-4.41-4.82-1.33c-2.89,9.54-7.37,18.49-13.22,26.55
						c-0.76,1.05-0.22,2.85,0.9,3.42c17.35,8.89,35.04,17.07,53.04,24.56c1.25,0.52,2.75-0.56,3.08-1.75
						C543.82,223.51,542.93,222.4,541.67,221.88L541.67,221.88z"/>
				</g>
			</g>
			<g>
				<g>
					<g>
						<g>
							<path class="st8" d="M645.39,89.14c56.89,34.17,10.24,133.94-52.46,118.77c-33.72-12.73-51.24-60.67-35.06-92.63
								C574.35,89.09,617.7,70.83,645.39,89.14z"/>
							<path class="st4" d="M588.32,120.86c-20.64-0.32-23.94,37.36-7.02,43.96C609.11,173.37,612.4,123.61,588.32,120.86z"/>
							<path class="st5" d="M597.12,138.64"/>
						</g>
						<path class="st1" d="M640.76,122.25c-26.78-2.65-32.57,49.29-1.78,46.52c0.88-0.08,1.76-0.13,2.64-0.19
							c20.2-1.39,17.22-33.19,4.18-44.23C644.38,123.15,642.61,122.43,640.76,122.25z"/>
						<path class="st5" d="M634.72,165.55c-8.1,0-10.77-9.41-8.55-11.31c6.48-5.76,14.59-9.84,23.05-6.17c0,0,1.89,0.65,1.89,2.86
							C651.11,159.49,649.19,165.55,634.72,165.55z"/>
						<path class="st5" d="M641.84,126.4c9.78,4.99,2.95,9.44-3.31,9.43c-2.67,0-4.47-1.28-6.25-2.88
							c-1.97-1.77-1.41-5.32,1.01-6.14C636.17,125.82,639.91,125.61,641.84,126.4z"/>
					</g>
					<path class="st5" d="M582.85,160.95c3.05,0.75,6.23,0.57,9.17-0.51c2.69-0.98,5.22-2.5,6.01-5.23
						C611.22,129.59,559.02,155.04,582.85,160.95z"/>
					<path class="st5" d="M588.62,137.42c17.29-0.2,2.57-17.1-5.43-11.04c-1.35,1.02-1.92,2.79-1.41,4.41
						C582.81,134.06,584.99,137.27,588.62,137.42z"/>
				</g>
				<g>
					<g>
						<path class="st1" d="M600.4,181.6c8.14,0,16.27,0,24.41,0c3.22,0,3.22-5,0-5c-8.14,0-16.27,0-24.41,0
							C597.19,176.6,597.18,181.6,600.4,181.6L600.4,181.6z"/>
					</g>
				</g>
			</g>
			<g>
				<g>
					<path class="st1" d="M476.05,135.86c-2.5,9.46-6.01,19.28-3.67,28.79c0.53,2.14,1.45,4.34,3.29,5.56
						c1.37,0.9,3.05,1.14,4.68,1.36c13.21,1.76,26.43,3.51,39.64,5.27c1.79,0.24,3.67,0.47,5.35-0.2c2.34-0.93,3.7-3.33,4.78-5.61
						c11.09-23.37,11.96-50.23,19.83-74.87c2.54-7.95,5.06-18.41-1.78-23.2c-2.17-1.52-4.87-2.02-7.48-2.46
						c-16.04-2.68-28.42-5.63-44.67-5.83c-2.12-0.03-4.36,0-6.16,1.11c-1.99,1.23-3.02,3.53-3.85,5.72
						C483.58,77.89,480.11,120.49,476.05,135.86z"/>
					<g>
						<path class="st1" d="M473.64,135.19c-1.78,6.7-3.95,13.37-4.44,20.33c-0.39,5.55,0.06,13.93,5.56,17.06
							c2.93,1.67,6.79,1.65,10.05,2.08c3.63,0.48,7.27,0.97,10.9,1.45c7.1,0.94,14.21,1.89,21.31,2.83c3.4,0.45,7.05,1.3,10.23-0.45
							c2.54-1.4,4.04-4.07,5.23-6.6c2.72-5.79,4.88-11.83,6.64-17.97c3.56-12.39,5.59-25.15,8.27-37.74
							c1.34-6.3,2.84-12.57,4.77-18.72c1.54-4.91,3.09-10.05,2.91-15.25c-0.18-5.38-2.62-10.32-7.75-12.53
							c-2.94-1.27-6.16-1.6-9.29-2.15c-3.3-0.57-6.6-1.17-9.9-1.76c-6.23-1.11-12.48-2.14-18.78-2.8c-3.32-0.35-6.65-0.59-9.99-0.72
							c-3.11-0.11-6.54-0.44-9.49,0.75c-6.66,2.7-7.34,11.75-8.22,17.89c-2.41,16.73-3.66,33.49-7.04,50.02
							C474.33,132.35,474.01,133.78,473.64,135.19c-0.82,3.11,4,4.44,4.82,1.33c1.81-6.9,2.74-14.06,3.71-21.12
							c1.18-8.57,2.21-17.16,3.31-25.75c0.12-0.92,0.24-1.85,0.36-2.77c0.14-1.04,0.17-1.26,0.3-2.22c0.22-1.64,0.46-3.28,0.71-4.91
							c0.34-2.23,0.67-4.5,1.27-6.68c0.39-1.41,0.98-2.91,1.87-4.08c1.55-2.04,4.19-1.86,6.5-1.83c6.11,0.1,12.22,0.6,18.27,1.45
							c6.04,0.85,12.03,1.96,18.03,3.03c3.09,0.55,6.22,0.99,9.29,1.63c2.32,0.48,4.69,1.25,6.19,3.14
							c2.52,3.19,1.99,8.09,1.19,11.97c-1.09,5.29-3.02,10.39-4.37,15.62c-3.05,11.78-4.97,23.81-7.58,35.69
							c-1.3,5.9-2.77,11.77-4.63,17.52c-0.95,2.93-2,5.84-3.19,8.69c-0.97,2.33-1.93,5.03-3.53,7.02c-1.83,2.28-4.59,1.61-7.16,1.27
							c-3.3-0.44-6.61-0.88-9.91-1.32c-6.86-0.91-13.71-1.82-20.57-2.73c-3.16-0.42-6.43-0.65-9.55-1.33
							c-2.6-0.57-3.58-2.39-4.19-4.84c-1.51-6.07-0.31-12.42,1.2-18.36c0.78-3.05,1.66-6.06,2.47-9.1
							C479.29,133.41,474.47,132.08,473.64,135.19z"/>
					</g>
				</g>
				<path class="st7" d="M536.97,110.52c-9.86,0.93-15.66-11.08-15.93-19.7c8.09,93.97-59.35,40.66-15.72,25.08"/>
			</g>
		</g>
	</g>
	<g id="kid_x5F__x5F_left">
		<path class="st11" d="M5.47,259.33c-8.88-7.89,2.62-23.89,13.14-19.16c5.51,3.35,7.01,12.36,3.11,17.45
			C17.96,261.68,9.74,263.46,5.47,259.33z"/>
		<g>
			<g>
				<g>
					<g>
						<path class="st1" d="M250.79,440.6c7.03,7.35,13.73,15.18,19.81,23.33c7.76,10.41,13.1,22.64,17.81,34.66
							c3.07,7.84,5.84,15.8,8.6,23.76c0.44,1.28,1.71,2.12,3.08,1.75c1.24-0.34,2.19-1.79,1.75-3.08
							c-4.98-14.36-10-28.77-16.74-42.42c-2.73-5.53-5.66-11.02-9.3-16.01c-3.26-4.49-6.78-8.79-10.36-13.03
							c-3.59-4.26-7.25-8.47-11.11-12.5C252.1,434.73,248.57,438.27,250.79,440.6L250.79,440.6z"/>
					</g>
				</g>
				<g>
					<g>
						<path class="st1" d="M182.1,451.6c2.34,10.6,3.7,21.5,4.75,32.29c0.53,5.44,0.6,10.89,1.09,16.33
							c0.66,7.41,2.12,14.71,4.12,21.86c2.26,8.08,5.14,15.97,7.95,23.88c0.45,1.27,1.71,2.12,3.08,1.75
							c1.23-0.34,2.2-1.8,1.75-3.08c-4.94-13.87-10.14-27.87-11.72-42.61c-0.6-5.59-0.62-11.22-1.14-16.82
							c-0.56-5.97-1.3-11.93-2.14-17.87c-0.81-5.71-1.68-11.43-2.92-17.07C186.23,447.13,181.4,448.46,182.1,451.6L182.1,451.6z"/>
					</g>
				</g>
				<path class="st3" d="M158.14,400.04c0.03,15.27-0.57,49.37-0.54,64.64c13.56-8.81,31.45-10.55,46.45-4.52
					c0.16-13.53,2.3-27.03,6.34-39.94c5.35,13.56,10.07,27.38,14.12,41.38c15.22-10.95,33.38-17.77,52.04-19.56
					c-5.51-12.27-11.03-24.54-16.54-36.81c-0.68-1.51-8.99-15.17-10.42-16c-2.3-1.34-20.84-23.33-50.64-17.77
					C186.31,373.82,176.88,393.04,158.14,400.04z"/>
				<path class="st2" d="M90.38,286.84c13.75,15.27,43.53,24.91,51.76,43.74c2.05,4.7,2.94,9.81,3.67,14.88
					c2.77,19.28,3.46,38.85,2.07,58.28c34.78-12.77,73.3-25.59,107.95-12.46c3.67-4.59,1.62-11.31-0.67-16.72
					c-6.96-16.39-14.86-32.39-23.64-47.88c9.52,2.9,19.03,5.8,28.55,8.7c0.75-8.93,6.92-29.49,7.67-38.42
					c-17.02-10.59-39.44-9.53-56.46-20.12c-8.8,10.44-24.58,11.16-38.09,9.14c-19.49-2.91-38.38-9.81-55.16-20.14
					c-2.19-1.35-4.62-2.81-7.15-2.35c-1.79,0.33-3.25,1.58-4.58,2.82C99.96,272.27,94.56,279.22,90.38,286.84z"/>
				<g>
					<path class="st1" d="M202.43,545.3c-10.81-9.46-28.26-12.4-42.61-12.97c-9.56-0.37-19.18,1.49-27.94,5.31
						c-6.47,2.82-6.67,11.92-0.37,15.1c9.06,4.58,19.18,7.09,29.34,7.14C175.83,559.97,190.78,554.72,202.43,545.3z"/>
				</g>
				<g>
					<path class="st1" d="M300.14,522.55c0.05-2.98,2.12-5.5,4.09-7.73c13.67-15.55,29-31.52,49.17-36.23
						c0.86-0.2,1.77-0.38,2.6-0.1c1.88,0.62,2.34,3.08,2.18,5.06c-0.74,8.75-7.18,15.9-13.88,21.58
						c-12.49,10.59-28.25,18.92-44.55,17.32"/>
				</g>
			</g>
			<g>
				<g>
					<g>
						<g>
							<path class="st12" d="M227.21,181.74c14.83,32.61-4.7,79.78-38.93,91.07C125,285.33,82.59,183.68,140.87,151.94
								C169.31,134.82,211.85,154.88,227.21,181.74z"/>
							<path class="st4" d="M201.72,230.26c17.18-5.89,15.47-43.67-5.17-44.22C172.38,187.77,173.57,237.63,201.72,230.26z"/>
							<path class="st5" d="M187.01,203.43"/>
						</g>
						<path class="st1" d="M138.48,185.7c-14.38,11.17-18.98,44.89,2.47,47.28c0.93,0.1,1.87,0.19,2.8,0.32
							c32.66,4.33,28.82-51.24,0.19-49.62C141.97,183.79,140.05,184.48,138.48,185.7z"/>
						<path class="st5" d="M148.31,228.74c8.1,0.34,11.16-8.95,9.02-10.94c-6.23-6.03-14.16-10.44-22.77-7.14
							c0,0-1.92,0.57-2.01,2.77C132.19,221.99,133.86,228.13,148.31,228.74z"/>
						<path class="st5" d="M142.85,189.32c-9.99,4.57-3.35,9.3,2.91,9.56c2.67,0.11,4.52-1.09,6.36-2.61
							c2.05-1.69,1.63-5.25-0.75-6.18C148.54,188.98,144.81,188.61,142.85,189.32z"/>
					</g>
					<path class="st5" d="M185.41,219.94c0.67,2.76,3.14,4.38,5.78,5.48c2.9,1.2,6.07,1.52,9.14,0.9
						C224.39,221.43,173.3,193.8,185.41,219.94z"/>
					<path class="st5" d="M202.67,196.23c0.57-1.59,0.08-3.38-1.23-4.46c-7.74-6.39-23.15,9.87-5.89,10.8
						C199.19,202.57,201.5,199.46,202.67,196.23z"/>
				</g>
			</g>
			<g>
				<g>
					<path class="st1" d="M265.01,319.41c12.61,0.19,25.13,1.86,37.35,4.98c1.21,0.31,2.84-0.39,3.08-1.75
						c3.15-18.08,6.29-36.16,9.44-54.24c0.23-1.33-0.36-2.69-1.75-3.08c-1.2-0.33-2.84,0.41-3.08,1.75
						c-3.15,18.08-6.29,36.16-9.44,54.24c1.03-0.58,2.05-1.16,3.08-1.75c-12.63-3.22-25.64-4.96-38.68-5.16
						C261.79,314.36,261.79,319.36,265.01,319.41L265.01,319.41z"/>
				</g>
			</g>
			<g>
				<g>
					<path class="st1" d="M94.24,271.78c-17.52-5.79-35.31-10.79-53.29-14.93c-5.1-1.18-10.22-2.29-15.36-3.33
						c-1.32-0.27-2.7,0.38-3.08,1.75c-0.34,1.23,0.42,2.8,1.75,3.08c18.09,3.68,36,8.19,53.67,13.52c5.01,1.51,10.01,3.1,14.98,4.74
						C95.97,277.61,97.28,272.79,94.24,271.78L94.24,271.78z"/>
				</g>
			</g>
			<g>
				<g>
					<path class="st1" d="M287.26,241.63c-2.5,9.46-6.01,19.28-3.67,28.79c0.53,2.14,1.45,4.34,3.29,5.56
						c1.37,0.9,3.05,1.14,4.68,1.36c13.21,1.76,26.43,3.51,39.64,5.27c1.79,0.24,3.67,0.47,5.35-0.2c2.34-0.93,3.7-3.33,4.78-5.61
						c11.09-23.37,11.96-50.23,19.83-74.87c2.54-7.95,5.06-18.41-1.78-23.2c-2.17-1.52-4.87-2.02-7.48-2.46
						c-16.04-2.68-28.42-5.63-44.67-5.83c-2.12-0.03-4.36,0-6.16,1.11c-1.99,1.23-3.02,3.53-3.85,5.72
						C294.79,183.66,291.32,226.26,287.26,241.63z"/>
					<g>
						<path class="st1" d="M284.85,240.96c-1.78,6.7-3.95,13.37-4.44,20.33c-0.39,5.55,0.06,13.93,5.56,17.06
							c2.93,1.67,6.79,1.65,10.05,2.08c3.63,0.48,7.27,0.97,10.9,1.45c7.1,0.94,14.21,1.89,21.31,2.83c3.4,0.45,7.05,1.3,10.23-0.45
							c2.54-1.4,4.04-4.07,5.23-6.6c2.72-5.79,4.88-11.83,6.64-17.97c3.56-12.39,5.59-25.15,8.27-37.74
							c1.34-6.3,2.84-12.57,4.77-18.72c1.54-4.91,3.09-10.05,2.91-15.25c-0.18-5.38-2.62-10.32-7.75-12.53
							c-2.94-1.27-6.16-1.6-9.29-2.15c-3.3-0.57-6.6-1.17-9.9-1.76c-6.23-1.11-12.48-2.14-18.78-2.8c-3.32-0.35-6.65-0.59-9.99-0.72
							c-3.11-0.11-6.54-0.44-9.49,0.75c-6.66,2.7-7.34,11.75-8.22,17.89c-2.41,16.73-3.66,33.49-7.04,50.02
							C285.54,238.12,285.22,239.55,284.85,240.96c-0.82,3.11,4,4.44,4.82,1.33c1.81-6.9,2.74-14.06,3.71-21.12
							c1.18-8.57,2.21-17.16,3.31-25.75c0.12-0.92,0.24-1.85,0.36-2.77c0.14-1.04,0.17-1.26,0.3-2.22c0.22-1.64,0.46-3.28,0.71-4.91
							c0.34-2.23,0.67-4.5,1.27-6.68c0.39-1.41,0.98-2.91,1.87-4.08c1.55-2.04,4.19-1.86,6.5-1.83c6.11,0.1,12.22,0.6,18.27,1.45
							c6.04,0.85,12.03,1.96,18.03,3.03c3.09,0.55,6.22,0.99,9.29,1.63c2.32,0.48,4.69,1.25,6.19,3.14
							c2.52,3.19,1.99,8.09,1.19,11.97c-1.09,5.29-3.02,10.39-4.37,15.62c-3.05,11.78-4.97,23.81-7.58,35.69
							c-1.3,5.9-2.77,11.77-4.63,17.52c-0.95,2.93-2,5.84-3.19,8.69c-0.97,2.33-1.93,5.03-3.53,7.02c-1.83,2.28-4.59,1.61-7.16,1.27
							c-3.3-0.44-6.61-0.88-9.91-1.32c-6.86-0.91-13.71-1.82-20.57-2.73c-3.16-0.42-6.43-0.65-9.55-1.33
							c-2.6-0.57-3.58-2.39-4.19-4.84c-1.51-6.07-0.31-12.42,1.2-18.36c0.78-3.05,1.66-6.06,2.47-9.1
							C290.49,239.18,285.67,237.85,284.85,240.96z"/>
					</g>
				</g>
				<path class="st7" d="M347.93,215.93c-9.86,0.93-15.66-11.08-15.93-19.7c8.09,93.97-59.35,40.66-15.72,25.08"/>
			</g>
		</g>
		<g>
			<g>
				<path class="st1" d="M168.51,263.83c8.14,0,16.27,0,24.41,0c3.22,0,3.22-5,0-5c-8.14,0-16.27,0-24.41,0
					C165.29,258.83,165.29,263.83,168.51,263.83L168.51,263.83z"/>
			</g>
		</g>
	</g>
</g>
</svg>
