<?xml version="1.0" encoding="utf-8"?>
<!-- Generator: Adobe Illustrator 27.9.4, SVG Export Plug-In . SVG Version: 9.03 Build 54784)  -->
<svg version="1.1" id="Layer_1" xmlns="http://www.w3.org/2000/svg" xmlns:xlink="http://www.w3.org/1999/xlink" x="0px" y="0px"
	 viewBox="0 0 397.44 380.23" style="enable-background:new 0 0 397.44 380.23;" xml:space="preserve">
<style type="text/css">
	.st0{fill:#EAEAE9;stroke:#231F20;stroke-width:4.206;stroke-miterlimit:10;}
	.st1{fill:#F4EB42;stroke:#231F20;stroke-width:4.6017;stroke-miterlimit:10;}
	.st2{fill:#231F20;}
	.st3{fill:#FFFFFF;}
	.st4{fill:#B3B6B7;stroke:#231F20;stroke-width:4.6017;stroke-miterlimit:10;}
</style>
<g id="moon">
	<g>
		<path class="st0" d="M138.5,370.74c108.96,33.07,236.84-49.03,256.82-162.4C345.85-238.81-263.35,147.54,138.5,370.74z"/>
		<g>
			<g>
				<path class="st1" d="M106.55,76.61c-59.6-0.93-69.12,107.84-20.28,126.92C166.58,228.22,176.08,84.54,106.55,76.61z"/>
				<path class="st2" d="M106.55,76.61c69.53,7.94,60.02,151.6-20.27,126.91C37.42,184.46,46.96,75.69,106.55,76.61z M104.33,194.61
					c10.61-2.72,26.68-6.44,30.27-18.86C174.8,97.72,4.66,183.9,104.33,194.61z M107.44,124.43c54.32-0.64-0.84-58.39-21.28-25.58
					C87.99,110.03,94.54,123.87,107.44,124.43z"/>
				<path class="st3" d="M104.33,194.61c-99.67-10.71,70.46-96.89,30.26-18.86C131.02,188.17,114.95,191.89,104.33,194.61z"/>
				<path class="st3" d="M107.44,124.43c-26.93-5.15-27.78-41.74,4.52-35.25C135,103.38,140.72,122.72,107.44,124.43z"/>
			</g>
			<path class="st2" d="M270.33,56.23c-82.21-6.66-91.63,151.41,2.48,133.77C335.01,187.47,323.49,71.24,270.33,56.23z"/>
			<path class="st3" d="M252.91,181.25c-73.3-18.51,26.33-82.54,47.31-42.22C300.22,163.76,294.68,181.25,252.91,181.25z"/>
			<path class="st3" d="M273.45,68.2c39.07,20.31-14.12,37.66-27.6,18.89C231.23,69.43,263.64,63.41,273.45,68.2z"/>
		</g>
		<g>
			<g>
				<path class="st2" d="M226.13,229.88c12.84-2.37,24.77-9.43,33.01-19.55c0.85-1.05,1.02-2.51,0-3.54c-0.88-0.88-2.68-1.05-3.54,0
					c-7.77,9.55-18.7,16.03-30.81,18.27c-1.33,0.25-2.08,1.85-1.75,3.08C223.43,229.53,224.79,230.12,226.13,229.88L226.13,229.88z"
					/>
			</g>
		</g>
	</g>
	<path class="st4" d="M302.31,294.97c-10.05,32.34-69.89,40.18-70.79,10.59C232.25,272.04,308.52,245.11,302.31,294.97z"/>
	<path class="st4" d="M89.57,259.22c-13.5-16.4-49.71-48.02-48.6-3.19C48.47,312.36,151.03,315.43,89.57,259.22z"/>
	<path class="st4" d="M123.27,27.04c12.53-19.62,54.71-17.57,50.13,1.59C168.21,48.81,110.92,59.7,123.27,27.04z"/>
	<path class="st4" d="M129.83,352.92c7.17,6.63,23.94,9.96,32.59,8.33C194.06,339.63,103.39,325.62,129.83,352.92z"/>
	<path class="st4" d="M362.43,198.99c22.21-21.71,22.28,48.38-2.31,25.32C357.13,217.89,357.41,204.94,362.43,198.99z"/>
</g>
</svg>
