<?xml version="1.0" encoding="utf-8"?>
<!-- Generator: Adobe Illustrator 27.9.4, SVG Export Plug-In . SVG Version: 9.03 Build 54784)  -->
<svg version="1.1" id="Layer_1" xmlns="http://www.w3.org/2000/svg" xmlns:xlink="http://www.w3.org/1999/xlink" x="0px" y="0px"
	 viewBox="0 0 1685.33 170.47" style="enable-background:new 0 0 1685.33 170.47;" xml:space="preserve">
<style type="text/css">
	.st0{fill:#005BA7;}
	.st1{fill:#FFFFFF;}
</style>
<g id="nav">
	<g id="ntnu">
		<rect y="56.21" class="st0" width="1685.33" height="114.26"/>
		<g>
			<g>
				<path class="st1" d="M621.28,64.29c0,16.16,0,32.32,0,48.48c0,5,0,10,0,15c0,3.22,5,3.22,5,0c0-16.16,0-32.32,0-48.48
					c0-5,0-10,0-15C626.28,61.07,621.28,61.06,621.28,64.29L621.28,64.29z"/>
			</g>
		</g>
		<g>
			<g>
				<path class="st1" d="M1177.19,64.29c0,16.16,0,32.32,0,48.48c0,5,0,10,0,15c0,3.22,5,3.22,5,0c0-16.16,0-32.32,0-48.48
					c0-5,0-10,0-15C1182.19,61.07,1177.19,61.06,1177.19,64.29L1177.19,64.29z"/>
			</g>
		</g>
	</g>
	<g id="tiktoklink">
		<rect x="1.55" class="st1" width="1683.78" height="56.21"/>
	</g>
</g>
</svg>
