<?xml version="1.0" encoding="utf-8"?>
<!-- Generator: Adobe Illustrator 27.9.4, SVG Export Plug-In . SVG Version: 9.03 Build 54784)  -->
<svg version="1.1" id="Layer_1" xmlns="http://www.w3.org/2000/svg" xmlns:xlink="http://www.w3.org/1999/xlink" x="0px" y="0px"
	 viewBox="0 0 1265.95 410.18" style="enable-background:new 0 0 1265.95 410.18;" xml:space="preserve">
<style type="text/css">
	.st0{fill:#A1CF6D;}
	.st1{fill:#231F20;}
	.st2{fill:#FFFFFF;stroke:#231F20;stroke-width:4.6017;stroke-miterlimit:10;}
	.st3{fill:#0A0203;stroke:#231F20;stroke-miterlimit:10;}
</style>
<g id="pollution">
	<g id="one">
		<g>
			<path class="st0" d="M28.39,308.12c-4.05-0.55-8.41-0.27-11.86,1.92c-3.45,2.19-5.65,6.68-4.27,10.52l-0.85,2.7
				c-4.94-0.17-8.94,4.91-8.94,9.85c0,4.45,2.09,12.32,10.14,12.32c3.41,0,1.07,5.38,3.95,7.2l1.47-0.41
				c0.58,3.5,2.98,6.59,6.11,8.27s6.91,1.97,10.34,1.07c1.43-0.38,2.28-0.89,3.43-1.83c0.15-0.13,0.49-0.51,0.68-0.62
				c0.06-0.03,0.12-0.05,0.18-0.02c0.84,0.37,4.69,1.96,7.03,0.97c2.65-1.11,4.44-3.59,5.95-6.03c1.62-2.62,3.1-5.44,3.36-8.5
				l1.94,1.36c1.49,1.42,4.16,0.54,5.25-1.2c1.09-1.74,1.05-3.94,0.93-5.99c-0.13-2.19-0.41-4.58-1.98-6.1
				c-2.02-1.95-5.23-1.65-8-1.23l2.55-3.3c1.68-2.28,1.64-5.67-0.09-7.91c-1.73-2.24-5-3.13-7.63-2.07l0.34-0.28
				c0.36-3.47,0.62-7.31-1.49-10.09c-2.36-3.11-6.85-3.67-10.72-3.12c-2.51,0.36-5.06,1.13-6.94,2.83c-1.88,1.7-2.93,4.51-2,6.87"/>
			<g>
				<path class="st1" d="M28.39,305.62c-4.92-0.64-10.25-0.06-14.26,3.09c-3.68,2.88-5.79,7.95-4.28,12.52c0-0.44,0-0.89,0-1.33
					c-0.28,0.9-0.57,1.8-0.85,2.7c0.8-0.61,1.61-1.22,2.41-1.84c-4.38-0.04-8.24,2.85-10.08,6.72c-1.55,3.25-1.62,6.77-0.78,10.22
					c0.78,3.21,2.47,6.17,5.15,8.14c1.43,1.05,3.14,1.68,4.89,1.93c0.56,0.08,1.11,0.14,1.67,0.16c-0.11,0,0.59,0.03,0.6,0.02
					c-0.06,0.07-0.4-0.06-0.46-0.11c-0.19-0.14-0.22-0.25-0.37-0.39c0.24,0.23,0.05,0.11,0-0.08c0.08,0.35,0.19,0.7,0.26,1.06
					c0.01,0.08,0.07,0.48,0.01,0.05c0.03,0.21,0.05,0.41,0.08,0.62c0.07,0.51,0.13,1.03,0.23,1.53c0.18,0.88,0.5,1.76,1,2.51
					c0.82,1.22,2.08,2.23,3.63,1.91c0.5-0.1,0.98-0.27,1.47-0.41c-1.03-0.58-2.05-1.16-3.08-1.75c0.96,5.2,5.05,9.33,10,10.92
					c2.74,0.87,5.68,0.93,8.48,0.4c1.25-0.24,2.5-0.63,3.6-1.27c0.98-0.57,1.76-1.36,2.64-2.06c-0.59,0.24-1.18,0.49-1.77,0.73
					c0.06-0.01,0.12-0.01,0.18-0.02c-0.42-0.11-0.84-0.23-1.26-0.34c1.84,0.8,3.72,1.42,5.73,1.6c2.67,0.23,4.98-0.94,6.91-2.7
					c1.88-1.72,3.3-3.98,4.55-6.18c1.52-2.64,2.6-5.39,2.91-8.44c-1.25,0.72-2.51,1.44-3.76,2.16c0.63,0.44,1.26,0.87,1.88,1.32
					c-0.58-0.42,0.27,0.24,0.54,0.4c0.35,0.2,0.74,0.38,1.13,0.48c0.91,0.25,1.87,0.26,2.79,0.06c3.87-0.81,5.51-4.56,5.6-8.17
					c0.08-3.37-0.23-7.45-2.77-9.95c-2.79-2.75-6.89-2.4-10.43-1.87c0.94,1.22,1.88,2.45,2.82,3.67c2.13-2.77,4.39-5.29,4.09-9.08
					c-0.46-5.85-6.48-9.93-12.09-7.87c0.81,1.39,1.62,2.79,2.43,4.18c1.47-1.2,1.3-3.8,1.32-5.59c0.02-2.12-0.26-4.23-1.13-6.17
					c-1.68-3.76-5.39-5.61-9.31-6.07c-3.77-0.45-8.19,0.25-11.45,2.29c-3.5,2.2-5.86,6.52-4.42,10.65c0.45,1.27,1.71,2.12,3.08,1.75
					c1.24-0.34,2.19-1.8,1.75-3.08c-0.82-2.34,0.8-4.33,2.81-5.39c2.21-1.17,5.05-1.47,7.51-1.28c2.13,0.16,4.35,1.01,5.39,2.99
					c1.22,2.34,0.78,5.35,0.53,7.86c0.24-0.59,0.49-1.18,0.73-1.77c-0.11,0.09-0.23,0.19-0.34,0.28c-1.91,1.57,0.14,5.02,2.43,4.18
					c3.09-1.13,6.4,1.13,5.7,4.58c-0.38,1.86-2.23,3.57-3.35,5.03c-0.59,0.77-0.35,2.09,0.2,2.78c0.68,0.85,1.59,1.05,2.63,0.9
					c1.66-0.25,4.2-0.68,5.57,0.59c1.44,1.33,1.31,4.22,1.31,6c0,0.99-0.02,2.23-0.65,3.07c-0.15,0.2-0.4,0.42-0.71,0.55
					c-0.01,0-0.8,0.14-0.46,0.14c0.17,0-0.36-0.16-0.18-0.03c0.22,0.16-0.31-0.23-0.49-0.37c-0.16-0.12-0.33-0.23-0.49-0.35
					c-0.48-0.34-0.96-0.67-1.44-1.01c-1.71-1.2-3.59,0.46-3.76,2.16c-0.23,2.19-1.25,4.23-2.34,6.1c-1.03,1.78-2.13,3.57-3.66,4.97
					c-1.28,1.17-2.41,1.47-4.06,1.11c-0.78-0.17-1.54-0.42-2.29-0.7c-0.14-0.05-0.27-0.1-0.4-0.16c0.33,0.14,0.38,0.16,0.17,0.07
					c-0.61-0.26-1.12-0.39-1.77-0.28c-0.99,0.18-1.48,0.8-2.21,1.39c-0.66,0.55-1.41,0.89-2.23,1.11c-2.03,0.55-4.22,0.56-6.25,0.02
					c-3.68-0.99-6.43-3.85-7.12-7.6c-0.24-1.33-1.86-2.08-3.08-1.75c-0.49,0.14-0.98,0.27-1.47,0.41c0.64,0.08,1.28,0.17,1.93,0.25
					c0.14,0.1-0.07-0.09-0.04-0.06c-0.07-0.08-0.14-0.22-0.17-0.31c0.02,0.05,0.12,0.31,0.03,0.03c-0.09-0.27-0.16-0.56-0.21-0.84
					c-0.02-0.12-0.04-0.25-0.06-0.37c-0.07-0.42,0.04,0.34-0.01-0.08c-0.18-1.31-0.25-2.67-0.95-3.84c-1.61-2.7-5.01-1.65-7.14-2.82
					c-1.8-0.99-2.97-2.8-3.58-4.72c-0.17-0.52-0.3-1.04-0.42-1.57c-0.05-0.24-0.09-0.47-0.14-0.71c-0.02-0.12-0.04-0.23-0.06-0.35
					c0.07,0.49,0-0.03-0.01-0.13c-0.09-1.12-0.14-2.22,0.13-3.32c0.73-2.9,3.07-5.65,6.22-5.62c1.13,0.01,2.08-0.79,2.41-1.84
					c0.39-1.23,1.14-2.72,0.85-4.03c-0.45-2.07-0.29-3.73,0.93-5.55c2.75-4.1,8.38-4.3,12.79-3.73c1.34,0.17,2.5-1.27,2.5-2.5
					C30.89,306.62,29.73,305.79,28.39,305.62L28.39,305.62z"/>
			</g>
		</g>
		<g>
			<path class="st2" d="M18.1,322.41c-1.99,4.55-1.73,11.65-1.82,15.54c0.08,1.17,0.94,2.64,2.01,3.08
				c0.89,0.44,1.69,0.53,2.78,0.54c2.4,0.01,4.65-1.31,5.68-3.47c0.56-1.19,0.9-2.48,1.26-3.64c0.36-1.66,0.97-4.21,1.22-6.81
				C25.79,325.18,22.1,323.12,18.1,322.41z"/>
			<path class="st3" d="M26.36,347.29c-0.62,0.06-1.05,0.64-0.92,1.25c0.15,0.71,0.46,1.59,1.11,2.41c1.48,1.86,3.71,2.17,4.88,2.19
				c0.44,0.01,0.87-0.18,1.14-0.53c1.88-2.39,4.6-4.26,7.66-5.82c0.47-0.24,0.25-0.95-0.27-0.89
				C35.44,346.37,30.9,346.83,26.36,347.29z"/>
			<path class="st0" d="M25.57,331.75c0.27,2.49-2.98,3.69-3.62,0.94c-0.45-1.33,0.57-2.88,1.92-2.99
				C24.7,330.11,25.75,330.68,25.57,331.75z"/>
		</g>
		<g>
			<path class="st2" d="M45.23,323.38c1.99,4.55,1.73,11.65,1.82,15.54c-0.08,1.17-0.94,2.64-2.01,3.08
				c-1.13,0.56-2.31,0.68-3.44,0.31c-0.51-0.17-1.05-0.24-1.58-0.33c-2.73-0.49-3.97-4.19-4.7-6.55c-0.36-1.66-0.97-4.21-1.22-6.81
				C37.55,326.14,41.23,324.09,45.23,323.38z"/>
			<path class="st0" d="M37.76,332.72c-0.27,2.49,2.98,3.69,3.62,0.94c0.45-1.33-0.57-2.88-1.92-2.99
				C38.63,331.08,37.59,331.65,37.76,332.72z"/>
		</g>
	</g>
	<g id="two">
		<g>
			<path class="st0" d="M292.2,264.59c-4.05-0.55-8.41-0.27-11.86,1.92c-3.45,2.19-5.65,6.68-4.27,10.52l-0.85,2.7
				c-4.94-0.17-8.94,4.91-8.94,9.85c0,4.45,2.09,12.32,10.14,12.32c3.41,0,1.07,5.38,3.95,7.2l1.47-0.41
				c0.58,3.5,2.98,6.59,6.11,8.27c3.13,1.67,6.91,1.97,10.34,1.07c1.43-0.38,2.28-0.89,3.43-1.83c0.15-0.13,0.49-0.51,0.68-0.62
				c0.06-0.03,0.12-0.05,0.18-0.02c0.84,0.37,4.69,1.96,7.03,0.97c2.65-1.11,4.44-3.59,5.95-6.03c1.62-2.62,3.1-5.44,3.36-8.5
				l1.94,1.36c1.49,1.42,4.16,0.54,5.25-1.2s1.05-3.94,0.93-5.99c-0.13-2.19-0.41-4.58-1.98-6.1c-2.02-1.95-5.23-1.65-8-1.23
				l2.55-3.3c1.68-2.28,1.64-5.67-0.09-7.91c-1.73-2.24-5-3.13-7.63-2.07l0.34-0.28c0.36-3.47,0.62-7.31-1.49-10.09
				c-2.36-3.11-6.85-3.67-10.72-3.12c-2.51,0.36-5.06,1.13-6.94,2.83c-1.88,1.7-2.93,4.51-2,6.87"/>
			<g>
				<path class="st1" d="M292.2,262.09c-4.92-0.64-10.25-0.06-14.26,3.09c-3.68,2.88-5.79,7.95-4.28,12.52c0-0.44,0-0.89,0-1.33
					c-0.28,0.9-0.57,1.8-0.85,2.7c0.8-0.61,1.61-1.22,2.41-1.84c-4.38-0.04-8.24,2.85-10.08,6.72c-1.55,3.25-1.62,6.77-0.78,10.22
					c0.78,3.21,2.47,6.17,5.15,8.14c1.43,1.05,3.14,1.68,4.89,1.93c0.56,0.08,1.11,0.14,1.67,0.16c-0.11,0,0.59,0.03,0.6,0.02
					c-0.06,0.07-0.4-0.06-0.46-0.11c-0.19-0.14-0.22-0.25-0.37-0.39c0.24,0.23,0.05,0.11,0-0.08c0.08,0.35,0.19,0.7,0.26,1.06
					c0.01,0.08,0.07,0.48,0.01,0.05c0.03,0.21,0.05,0.41,0.08,0.62c0.07,0.51,0.13,1.03,0.23,1.53c0.18,0.88,0.5,1.76,1,2.51
					c0.82,1.22,2.08,2.23,3.63,1.91c0.5-0.1,0.98-0.27,1.47-0.41c-1.03-0.58-2.05-1.16-3.08-1.75c0.96,5.2,5.05,9.33,10,10.92
					c2.74,0.87,5.68,0.93,8.48,0.4c1.25-0.24,2.5-0.63,3.6-1.27c0.98-0.57,1.76-1.36,2.64-2.06c-0.59,0.24-1.18,0.49-1.77,0.73
					c0.06-0.01,0.12-0.01,0.18-0.02c-0.42-0.11-0.84-0.23-1.26-0.34c1.84,0.8,3.72,1.42,5.73,1.6c2.67,0.23,4.98-0.94,6.91-2.7
					c1.88-1.72,3.3-3.98,4.55-6.18c1.52-2.64,2.6-5.39,2.91-8.44c-1.25,0.72-2.51,1.44-3.76,2.16c0.63,0.44,1.26,0.87,1.88,1.32
					c-0.58-0.42,0.27,0.24,0.54,0.4c0.35,0.2,0.74,0.38,1.13,0.48c0.91,0.25,1.87,0.26,2.79,0.06c3.87-0.81,5.51-4.56,5.6-8.17
					c0.08-3.37-0.23-7.45-2.77-9.95c-2.79-2.75-6.89-2.4-10.43-1.87c0.94,1.22,1.88,2.45,2.82,3.67c2.13-2.77,4.39-5.29,4.09-9.08
					c-0.46-5.85-6.48-9.93-12.09-7.87c0.81,1.39,1.62,2.79,2.43,4.18c1.47-1.2,1.3-3.8,1.32-5.59c0.02-2.12-0.26-4.23-1.13-6.17
					c-1.68-3.76-5.39-5.61-9.31-6.07c-3.77-0.45-8.19,0.25-11.45,2.29c-3.5,2.2-5.86,6.52-4.42,10.65c0.45,1.27,1.71,2.12,3.08,1.75
					c1.24-0.34,2.19-1.8,1.75-3.08c-0.82-2.34,0.8-4.33,2.81-5.39c2.21-1.17,5.05-1.47,7.51-1.28c2.13,0.16,4.35,1.01,5.39,2.99
					c1.22,2.34,0.78,5.35,0.53,7.86c0.24-0.59,0.49-1.18,0.73-1.77c-0.11,0.09-0.23,0.19-0.34,0.28c-1.91,1.57,0.14,5.02,2.43,4.18
					c3.09-1.13,6.4,1.13,5.7,4.58c-0.38,1.86-2.23,3.57-3.35,5.03c-0.59,0.77-0.35,2.09,0.2,2.78c0.68,0.85,1.59,1.05,2.63,0.9
					c1.66-0.25,4.2-0.68,5.57,0.59c1.44,1.33,1.31,4.22,1.31,6c0,0.99-0.02,2.23-0.65,3.07c-0.15,0.2-0.4,0.42-0.71,0.55
					c-0.01,0-0.8,0.14-0.46,0.14c0.17,0-0.36-0.16-0.18-0.03c0.22,0.16-0.31-0.23-0.49-0.37c-0.16-0.12-0.33-0.23-0.49-0.35
					c-0.48-0.34-0.96-0.67-1.44-1.01c-1.71-1.2-3.59,0.46-3.76,2.16c-0.23,2.19-1.25,4.23-2.34,6.11c-1.03,1.78-2.13,3.57-3.66,4.97
					c-1.28,1.17-2.41,1.47-4.06,1.11c-0.78-0.17-1.54-0.42-2.29-0.7c-0.14-0.05-0.27-0.1-0.4-0.16c0.33,0.14,0.38,0.16,0.17,0.07
					c-0.61-0.26-1.12-0.39-1.77-0.28c-0.99,0.18-1.48,0.8-2.21,1.39c-0.66,0.55-1.41,0.89-2.23,1.11c-2.03,0.55-4.22,0.56-6.25,0.02
					c-3.68-0.99-6.43-3.85-7.12-7.6c-0.24-1.33-1.86-2.08-3.08-1.75c-0.49,0.14-0.98,0.27-1.47,0.41c0.64,0.08,1.28,0.17,1.93,0.25
					c0.14,0.1-0.07-0.09-0.04-0.06c-0.07-0.08-0.14-0.22-0.17-0.31c0.02,0.05,0.12,0.31,0.03,0.03c-0.09-0.27-0.16-0.56-0.21-0.84
					c-0.02-0.12-0.04-0.25-0.06-0.37c-0.07-0.42,0.04,0.34-0.02-0.08c-0.18-1.31-0.25-2.67-0.95-3.84c-1.61-2.7-5.01-1.65-7.14-2.82
					c-1.8-0.99-2.97-2.8-3.58-4.72c-0.17-0.52-0.3-1.04-0.42-1.57c-0.05-0.24-0.09-0.47-0.14-0.71c-0.02-0.12-0.04-0.23-0.06-0.35
					c0.07,0.49,0-0.03-0.01-0.13c-0.09-1.12-0.14-2.22,0.13-3.32c0.73-2.9,3.07-5.65,6.22-5.62c1.13,0.01,2.08-0.79,2.41-1.84
					c0.39-1.23,1.14-2.72,0.85-4.03c-0.45-2.07-0.29-3.73,0.93-5.55c2.75-4.1,8.38-4.3,12.79-3.73c1.34,0.17,2.5-1.27,2.5-2.5
					C294.7,263.09,293.55,262.26,292.2,262.09L292.2,262.09z"/>
			</g>
		</g>
		<g>
			<path class="st2" d="M281.92,278.88c-1.99,4.55-1.73,11.65-1.82,15.54c0.08,1.17,0.94,2.64,2.01,3.08
				c0.89,0.44,1.69,0.53,2.78,0.54c2.4,0.01,4.65-1.31,5.68-3.47c0.56-1.19,0.9-2.48,1.26-3.64c0.36-1.66,0.97-4.21,1.22-6.81
				C289.6,281.64,285.92,279.58,281.92,278.88z"/>
			<path class="st3" d="M290.18,303.76c-0.62,0.06-1.05,0.64-0.92,1.25c0.15,0.71,0.46,1.59,1.11,2.41
				c1.48,1.86,3.71,2.17,4.88,2.19c0.44,0.01,0.87-0.18,1.14-0.53c1.88-2.39,4.6-4.26,7.66-5.82c0.47-0.24,0.25-0.95-0.27-0.89
				C299.26,302.83,294.72,303.3,290.18,303.76z"/>
			<path class="st0" d="M289.39,288.21c0.27,2.49-2.98,3.69-3.62,0.94c-0.45-1.33,0.57-2.88,1.92-2.99
				C288.52,286.57,289.57,287.15,289.39,288.21z"/>
		</g>
		<g>
			<path class="st2" d="M309.05,279.85c1.99,4.55,1.73,11.65,1.82,15.54c-0.08,1.17-0.94,2.64-2.01,3.08
				c-1.13,0.56-2.31,0.68-3.44,0.31c-0.51-0.17-1.05-0.24-1.58-0.33c-2.73-0.49-3.97-4.19-4.7-6.55c-0.36-1.66-0.97-4.21-1.22-6.81
				C301.37,282.61,305.05,280.55,309.05,279.85z"/>
			<path class="st0" d="M301.58,289.18c-0.27,2.49,2.98,3.69,3.62,0.94c0.45-1.33-0.57-2.88-1.92-2.99
				C302.45,287.54,301.4,288.12,301.58,289.18z"/>
		</g>
	</g>
	<g id="three">
		<g>
			<g>
				<path class="st0" d="M349.11,143.26c-6.41-0.88-13.31-0.43-18.77,3.04c-5.46,3.47-8.95,10.56-6.75,16.65l-1.35,4.27
					c-7.82-0.27-14.14,7.77-14.14,15.59c0,7.04,3.31,19.49,16.04,19.49c5.39,0,1.69,8.52,6.25,11.39l2.33-0.64
					c0.92,5.54,4.71,10.43,9.66,13.08c4.95,2.65,10.94,3.12,16.37,1.69c2.27-0.6,3.61-1.41,5.42-2.9c0.24-0.2,0.78-0.8,1.07-0.98
					c0.09-0.05,0.19-0.07,0.28-0.03c1.32,0.59,7.42,3.1,11.13,1.54c4.19-1.76,7.02-5.68,9.41-9.54c2.56-4.14,4.91-8.6,5.32-13.45
					l3.07,2.16c2.35,2.25,6.58,0.85,8.31-1.9s1.67-6.23,1.48-9.48c-0.21-3.46-0.64-7.25-3.14-9.66c-3.19-3.08-8.28-2.62-12.66-1.95
					l4.03-5.22c2.66-3.6,2.59-8.97-0.15-12.51c-2.74-3.54-7.92-4.95-12.07-3.28l0.54-0.44c0.57-5.49,0.99-11.57-2.35-15.96
					c-3.74-4.92-10.84-5.81-16.96-4.94c-3.97,0.57-8.01,1.79-10.99,4.48c-2.98,2.69-4.63,7.13-3.17,10.87"/>
				<g>
					<path class="st1" d="M349.11,140.76c-7.45-0.99-15.63-0.2-21.72,4.6c-5.31,4.2-8.48,11.63-6.22,18.26c0-0.44,0-0.89,0-1.33
						c-0.45,1.42-0.9,2.84-1.35,4.27c0.8-0.61,1.61-1.22,2.41-1.84c-6.42-0.12-12.05,4.28-14.71,9.93
						c-2.27,4.82-2.32,10.04-1.06,15.14c1.18,4.74,3.65,9.17,7.67,12.05c2.24,1.61,4.9,2.47,7.61,2.81c0.73,0.09,1.47,0.15,2.2,0.15
						c0.14,0,0.29,0,0.44,0.01c-0.07-0.01-0.32,0.01-0.08-0.01c0.11-0.01,0.21,0.08,0.31,0.08c-0.2,0-0.28-0.21-0.06-0.01
						c-0.33-0.29-0.07-0.1,0.06,0.08c-0.26-0.36-0.07-0.1,0.03,0.12c0.17,0.37-0.05-0.35,0.08,0.25c0.06,0.25,0.13,0.49,0.19,0.74
						c0.06,0.27,0.1,0.53,0.14,0.8c0.05,0.29,0-0.02-0.01-0.06c0.02,0.16,0.04,0.33,0.06,0.49c0.1,0.77,0.19,1.53,0.31,2.3
						c0.21,1.27,0.57,2.54,1.2,3.67c0.86,1.52,2.51,3.25,4.42,2.85c0.78-0.16,1.56-0.43,2.33-0.64c-1.03-0.58-2.05-1.16-3.08-1.75
						c1.35,7.61,7.28,13.72,14.49,16.15c3.9,1.31,8.09,1.5,12.14,0.87c1.9-0.29,3.77-0.79,5.5-1.64c1.52-0.75,2.95-2.15,4.06-3
						c-0.42,0.11-0.84,0.23-1.26,0.34c0.09-0.01,0.19-0.02,0.28-0.03c-0.42-0.11-0.84-0.23-1.26-0.34c2.64,1.16,5.38,2.04,8.26,2.32
						c3.89,0.38,7.24-1.32,10.05-3.91c2.9-2.68,5.07-6.19,7.01-9.6c2.2-3.88,3.87-7.95,4.29-12.42c-1.25,0.72-2.51,1.44-3.76,2.16
						c0.77,0.54,1.54,1.08,2.3,1.62c0.16,0.11,1.07,0.81,0.5,0.36c0.78,0.62,1.58,1.13,2.56,1.39c3.71,1,7.81-1.08,9.65-4.35
						c2.13-3.76,1.89-8.49,1.43-12.65c-0.46-4.09-1.7-8.1-5.33-10.46c-3.95-2.58-9.05-1.96-13.46-1.3c0.94,1.22,1.88,2.45,2.82,3.67
						c1.17-1.52,2.34-3.03,3.51-4.55c1.93-2.5,2.99-5.57,2.79-8.76c-0.25-4.17-2.34-7.95-5.92-10.18c-3.34-2.08-7.71-2.6-11.39-1.2
						c0.81,1.39,1.62,2.79,2.43,4.18c0.82-0.67,1.17-1.31,1.29-2.4c0.13-1.19,0.23-2.39,0.3-3.59c0.13-2.41,0.06-4.83-0.38-7.21
						c-0.84-4.48-3.56-8.43-7.65-10.51c-3.87-1.97-8.38-2.47-12.67-2.06c-4.84,0.46-9.74,1.73-13.57,4.86
						c-3.94,3.22-6.22,8.87-4.42,13.82c0.46,1.27,1.7,2.12,3.08,1.75c1.22-0.34,2.21-1.8,1.75-3.08c-1.08-2.95,0.06-6.05,2.26-8.18
						c2.57-2.49,6.3-3.51,9.75-4.03c5.77-0.86,13.46-0.02,15.95,6.17c1.54,3.83,1.01,8.27,0.6,12.26c0.24-0.59,0.49-1.18,0.73-1.77
						c-0.18,0.15-0.36,0.29-0.54,0.44c-1.9,1.56,0.14,5.05,2.43,4.18c5.66-2.15,11.77,2.17,10.95,8.37
						c-0.27,2.01-1.36,3.5-2.55,5.05c-1.01,1.31-2.02,2.62-3.03,3.93c-0.59,0.77-0.35,2.09,0.2,2.78c0.68,0.85,1.59,1.05,2.63,0.9
						c3.21-0.48,7.62-1.15,10.23,1.3c2.61,2.45,2.5,7.27,2.5,10.56c0,3-0.84,7.24-4.36,7.33c-0.87,0.02-1.52-0.62-2.43-1.26
						c-0.8-0.56-1.59-1.12-2.39-1.68c-1.7-1.2-3.6,0.46-3.76,2.16c-0.53,5.5-3.78,10.74-6.92,15.14c-1.4,1.96-3.08,3.8-5.18,5.01
						c-1.8,1.03-3.57,0.99-5.59,0.54c-1.01-0.22-2-0.51-2.97-0.85c-0.35-0.12-0.69-0.25-1.03-0.38c-0.15-0.06-0.31-0.12-0.46-0.19
						c0.63,0.26,0.19,0.08,0.06,0.02c-1.71-0.73-2.84-0.01-4.09,1.13c-0.82,0.76-1.76,1.42-2.77,1.9
						c-4.5,2.11-10.68,1.73-15.14-0.25c-5.01-2.23-8.68-6.73-9.64-12.14c-0.24-1.33-1.87-2.08-3.08-1.75
						c-0.78,0.21-1.55,0.43-2.33,0.64c0.64,0.08,1.28,0.17,1.93,0.25c-0.24-0.16-0.38-0.3-0.51-0.49c-0.09-0.13-0.17-0.28-0.25-0.42
						c-0.37-0.65,0.12,0.41-0.14-0.3c-0.14-0.39-0.25-0.79-0.34-1.2c-0.05-0.25-0.1-0.5-0.14-0.75c-0.01-0.07-0.12-0.77-0.06-0.34
						c-0.27-1.92-0.34-3.94-1.33-5.66c-1.29-2.23-3.46-2.47-5.79-2.6c-2.05-0.12-3.97-0.7-5.63-1.72c-2.94-1.81-4.82-5.03-5.83-8.37
						c-0.26-0.87-0.48-1.76-0.65-2.66c-0.07-0.39-0.14-0.79-0.2-1.18c0.08,0.56-0.02-0.2-0.03-0.26c-0.02-0.22-0.05-0.45-0.07-0.67
						c-0.17-2-0.09-3.95,0.48-5.89c1.45-4.92,5.69-9.41,11.07-9.31c1.13,0.02,2.08-0.8,2.41-1.84c0.29-0.91,0.57-1.81,0.86-2.72
						c0.41-1.31,0.68-2.14,0.27-3.56c-0.94-3.26,0.1-6.65,1.95-9.39c4.64-6.83,13.94-7.44,21.38-6.46c1.34,0.18,2.5-1.28,2.5-2.5
						C351.61,141.76,350.46,140.94,349.11,140.76L349.11,140.76z"/>
				</g>
			</g>
			<g>
				<path class="st2" d="M332.84,165.88c-3.14,7.2-2.74,18.44-2.88,24.58c0.12,1.85,1.49,4.18,3.18,4.87
					c1.41,0.7,2.67,0.84,4.39,0.85c3.79,0.02,7.35-2.07,8.98-5.5c0.89-1.88,1.42-3.93,2-5.77c0.57-2.62,1.53-6.66,1.94-10.77
					C345,170.25,339.17,166.99,332.84,165.88z"/>
				<path class="st3" d="M345.92,205.24c-0.98,0.1-1.66,1.02-1.46,1.98c0.23,1.12,0.72,2.51,1.76,3.82
					c2.35,2.95,5.87,3.44,7.72,3.47c0.7,0.01,1.37-0.28,1.81-0.83c2.98-3.79,7.27-6.74,12.13-9.22c0.74-0.38,0.4-1.5-0.42-1.41
					C360.27,203.78,353.09,204.51,345.92,205.24z"/>
				<path class="st0" d="M344.67,180.65c0.42,3.93-4.72,5.83-5.73,1.49c-0.7-2.11,0.91-4.56,3.04-4.73
					C343.29,178.05,344.94,178.96,344.67,180.65z"/>
			</g>
			<g>
				<path class="st2" d="M375.77,167.41c3.14,7.2,2.74,18.44,2.88,24.58c-0.12,1.85-1.49,4.18-3.18,4.87
					c-1.79,0.89-3.65,1.07-5.44,0.48c-0.81-0.27-1.66-0.38-2.49-0.53c-4.33-0.78-6.28-6.64-7.44-10.37
					c-0.57-2.62-1.53-6.66-1.94-10.77C363.61,171.78,369.44,168.52,375.77,167.41z"/>
				<path class="st0" d="M363.95,182.18c-0.42,3.93,4.72,5.83,5.73,1.49c0.7-2.11-0.91-4.56-3.04-4.73
					C365.33,179.58,363.67,180.49,363.95,182.18z"/>
			</g>
		</g>
		<g>
			<g>
				<path class="st1" d="M359.47,167.03c3.22-3.79,6.65-7.39,10.27-10.81c0.95-0.9,0.98-2.64,0-3.54c-1.02-0.94-2.52-0.96-3.54,0
					c-3.62,3.41-7.05,7.02-10.27,10.81c-0.85,0.99-1.05,2.57,0,3.54C356.86,167.89,358.56,168.1,359.47,167.03L359.47,167.03z"/>
			</g>
		</g>
		<g>
			<g>
				<path class="st1" d="M349.29,161.42c-0.87-0.48-1.71-1.01-2.52-1.58c-0.2-0.14-0.4-0.29-0.6-0.44
					c-0.43-0.32,0.46,0.36,0.03,0.03c-0.08-0.06-0.16-0.12-0.23-0.19c-0.41-0.33-0.8-0.67-1.19-1.02c-0.73-0.67-1.43-1.37-2.09-2.12
					c-0.33-0.37-0.64-0.76-0.95-1.14c-0.19-0.24,0.33,0.45,0.07,0.09c-0.07-0.1-0.15-0.2-0.22-0.3c-0.16-0.22-0.32-0.44-0.47-0.67
					c-0.74-1.08-2.23-1.67-3.42-0.9c-1.07,0.69-1.69,2.27-0.9,3.42c2.58,3.75,5.96,6.91,9.96,9.12c1.14,0.63,2.78,0.31,3.42-0.9
					C350.81,163.67,350.52,162.1,349.29,161.42L349.29,161.42z"/>
			</g>
		</g>
	</g>
	<g id="four">
		<g>
			<path class="st0" d="M410.97,353.76c-4.05-0.55-8.41-0.27-11.86,1.92c-3.45,2.19-5.65,6.68-4.27,10.52l-0.85,2.7
				c-4.94-0.17-8.94,4.91-8.94,9.85c0,4.45,2.09,12.32,10.14,12.32c3.41,0,1.07,5.38,3.95,7.2l1.47-0.41
				c0.58,3.5,2.98,6.59,6.11,8.27c3.13,1.67,6.91,1.97,10.34,1.07c1.43-0.38,2.28-0.89,3.43-1.83c0.15-0.13,0.49-0.51,0.68-0.62
				c0.06-0.03,0.12-0.05,0.18-0.02c0.84,0.37,4.69,1.96,7.03,0.97c2.65-1.11,4.44-3.59,5.95-6.03c1.62-2.62,3.1-5.44,3.36-8.5
				l1.94,1.36c1.49,1.42,4.16,0.54,5.25-1.2c1.09-1.74,1.05-3.94,0.93-5.99c-0.13-2.19-0.41-4.58-1.98-6.1
				c-2.02-1.95-5.23-1.65-8-1.23l2.55-3.3c1.68-2.28,1.64-5.67-0.09-7.91c-1.73-2.24-5-3.13-7.63-2.07l0.34-0.28
				c0.36-3.47,0.62-7.31-1.49-10.09c-2.36-3.11-6.85-3.67-10.72-3.12c-2.51,0.36-5.06,1.13-6.94,2.83c-1.88,1.7-2.93,4.51-2,6.87"/>
			<g>
				<path class="st1" d="M410.97,351.26c-4.92-0.64-10.25-0.06-14.26,3.09c-3.68,2.88-5.79,7.95-4.28,12.52c0-0.44,0-0.89,0-1.33
					c-0.28,0.9-0.57,1.8-0.85,2.7c0.8-0.61,1.61-1.22,2.41-1.84c-4.38-0.04-8.24,2.85-10.08,6.72c-1.55,3.25-1.62,6.77-0.78,10.22
					c0.78,3.21,2.47,6.17,5.15,8.14c1.43,1.05,3.14,1.68,4.89,1.93c0.56,0.08,1.11,0.14,1.67,0.16c-0.11,0,0.59,0.03,0.6,0.02
					c-0.06,0.07-0.4-0.06-0.46-0.11c-0.19-0.14-0.22-0.25-0.37-0.39c0.24,0.23,0.05,0.11,0-0.08c0.08,0.35,0.19,0.7,0.26,1.06
					c0.01,0.08,0.07,0.48,0.01,0.05c0.03,0.21,0.05,0.41,0.08,0.62c0.07,0.51,0.13,1.03,0.23,1.53c0.18,0.88,0.5,1.76,1,2.51
					c0.82,1.22,2.08,2.23,3.63,1.91c0.5-0.1,0.98-0.27,1.47-0.41c-1.03-0.58-2.05-1.16-3.08-1.75c0.96,5.2,5.05,9.33,10,10.92
					c2.74,0.87,5.68,0.93,8.48,0.4c1.25-0.24,2.5-0.63,3.6-1.27c0.98-0.57,1.76-1.36,2.64-2.06c-0.59,0.24-1.18,0.49-1.77,0.73
					c0.06-0.01,0.12-0.01,0.18-0.02c-0.42-0.11-0.84-0.23-1.26-0.34c1.84,0.8,3.72,1.42,5.73,1.6c2.67,0.23,4.98-0.94,6.91-2.7
					c1.88-1.72,3.3-3.98,4.55-6.18c1.52-2.64,2.6-5.39,2.91-8.44c-1.25,0.72-2.51,1.44-3.76,2.16c0.63,0.44,1.26,0.87,1.88,1.32
					c-0.58-0.42,0.27,0.24,0.54,0.4c0.35,0.2,0.74,0.38,1.13,0.48c0.91,0.25,1.87,0.26,2.79,0.06c3.87-0.81,5.51-4.56,5.6-8.17
					c0.08-3.37-0.23-7.45-2.77-9.95c-2.79-2.75-6.89-2.4-10.43-1.87c0.94,1.22,1.88,2.45,2.82,3.67c2.13-2.77,4.39-5.29,4.09-9.08
					c-0.46-5.85-6.48-9.93-12.09-7.87c0.81,1.39,1.62,2.79,2.43,4.18c1.47-1.2,1.3-3.8,1.32-5.59c0.02-2.12-0.26-4.23-1.13-6.17
					c-1.68-3.76-5.39-5.61-9.31-6.07c-3.77-0.45-8.19,0.25-11.45,2.29c-3.5,2.2-5.86,6.52-4.42,10.65c0.45,1.27,1.71,2.12,3.08,1.75
					c1.24-0.34,2.19-1.8,1.75-3.08c-0.82-2.34,0.8-4.33,2.81-5.39c2.21-1.17,5.05-1.47,7.51-1.28c2.13,0.16,4.35,1.01,5.39,2.99
					c1.22,2.34,0.78,5.35,0.53,7.86c0.24-0.59,0.49-1.18,0.73-1.77c-0.11,0.09-0.23,0.19-0.34,0.28c-1.91,1.57,0.14,5.02,2.43,4.18
					c3.09-1.13,6.4,1.13,5.7,4.58c-0.38,1.86-2.23,3.57-3.35,5.03c-0.59,0.77-0.35,2.09,0.2,2.78c0.68,0.85,1.59,1.05,2.63,0.9
					c1.66-0.25,4.2-0.68,5.57,0.59c1.44,1.33,1.31,4.22,1.31,6c0,0.99-0.02,2.23-0.65,3.07c-0.15,0.2-0.4,0.42-0.71,0.55
					c-0.01,0-0.8,0.14-0.46,0.14c0.17,0-0.36-0.16-0.18-0.03c0.22,0.16-0.31-0.23-0.49-0.37c-0.16-0.12-0.33-0.23-0.49-0.35
					c-0.48-0.34-0.96-0.67-1.44-1.01c-1.71-1.2-3.59,0.46-3.76,2.16c-0.23,2.19-1.25,4.23-2.34,6.1c-1.03,1.78-2.13,3.57-3.66,4.97
					c-1.28,1.17-2.41,1.47-4.06,1.11c-0.78-0.17-1.54-0.42-2.29-0.7c-0.14-0.05-0.27-0.1-0.4-0.16c0.33,0.14,0.38,0.16,0.17,0.07
					c-0.61-0.26-1.12-0.39-1.77-0.28c-0.99,0.18-1.48,0.8-2.21,1.39c-0.66,0.55-1.41,0.89-2.23,1.11c-2.03,0.55-4.22,0.56-6.25,0.02
					c-3.68-0.99-6.43-3.85-7.12-7.6c-0.24-1.33-1.86-2.08-3.08-1.75c-0.49,0.14-0.98,0.27-1.47,0.41c0.64,0.08,1.28,0.17,1.93,0.25
					c0.14,0.1-0.07-0.09-0.04-0.06c-0.07-0.08-0.14-0.22-0.17-0.31c0.02,0.05,0.12,0.31,0.03,0.03c-0.09-0.27-0.16-0.56-0.21-0.84
					c-0.02-0.12-0.04-0.25-0.06-0.37c-0.07-0.42,0.04,0.34-0.01-0.08c-0.18-1.31-0.25-2.67-0.95-3.84c-1.61-2.7-5.01-1.65-7.14-2.82
					c-1.8-0.99-2.97-2.8-3.58-4.72c-0.17-0.52-0.3-1.04-0.42-1.57c-0.05-0.24-0.09-0.47-0.14-0.71c-0.02-0.12-0.04-0.23-0.06-0.35
					c0.07,0.49,0-0.03-0.01-0.13c-0.09-1.12-0.14-2.22,0.13-3.32c0.73-2.9,3.07-5.65,6.22-5.62c1.13,0.01,2.08-0.79,2.41-1.84
					c0.39-1.23,1.14-2.72,0.85-4.03c-0.45-2.07-0.29-3.73,0.93-5.55c2.75-4.1,8.38-4.3,12.79-3.73c1.34,0.17,2.5-1.27,2.5-2.5
					C413.47,352.26,412.31,351.43,410.97,351.26L410.97,351.26z"/>
			</g>
		</g>
		<g>
			<path class="st2" d="M400.69,368.05c-1.99,4.55-1.73,11.65-1.82,15.54c0.08,1.17,0.94,2.64,2.01,3.08
				c0.89,0.44,1.69,0.53,2.78,0.54c2.4,0.01,4.65-1.31,5.68-3.47c0.56-1.19,0.9-2.48,1.26-3.64c0.36-1.66,0.97-4.21,1.22-6.81
				C408.37,370.81,404.69,368.75,400.69,368.05z"/>
			<path class="st3" d="M408.95,392.93c-0.62,0.06-1.05,0.64-0.92,1.25c0.15,0.71,0.46,1.59,1.11,2.41
				c1.48,1.86,3.71,2.17,4.88,2.19c0.44,0.01,0.87-0.18,1.14-0.53c1.88-2.39,4.6-4.26,7.66-5.82c0.47-0.24,0.25-0.95-0.27-0.89
				C418.02,392,413.48,392.47,408.95,392.93z"/>
			<path class="st0" d="M408.16,377.39c0.27,2.49-2.98,3.69-3.62,0.94c-0.45-1.33,0.57-2.88,1.92-2.99
				C407.29,375.75,408.33,376.32,408.16,377.39z"/>
		</g>
		<g>
			<path class="st2" d="M427.82,369.02c1.99,4.55,1.73,11.65,1.82,15.54c-0.08,1.17-0.94,2.64-2.01,3.08
				c-1.13,0.56-2.31,0.68-3.44,0.31c-0.51-0.17-1.05-0.24-1.58-0.33c-2.73-0.49-3.97-4.19-4.7-6.55c-0.36-1.66-0.97-4.21-1.22-6.81
				C420.13,371.78,423.81,369.72,427.82,369.02z"/>
			<path class="st0" d="M420.34,378.35c-0.27,2.49,2.98,3.69,3.62,0.94c0.45-1.33-0.57-2.88-1.92-2.99
				C421.21,376.72,420.17,377.29,420.34,378.35z"/>
		</g>
	</g>
	<g id="five">
		<g>
			<path class="st0" d="M442.6,220.38c-4.05-0.55-8.41-0.27-11.86,1.92s-5.65,6.68-4.27,10.52l-0.85,2.7
				c-4.94-0.17-8.94,4.91-8.94,9.85c0,4.45,2.09,12.32,10.14,12.32c3.41,0,1.07,5.38,3.95,7.2l1.47-0.41
				c0.58,3.5,2.98,6.59,6.11,8.27c3.13,1.67,6.91,1.97,10.34,1.07c1.43-0.38,2.28-0.89,3.43-1.83c0.15-0.13,0.49-0.51,0.68-0.62
				c0.06-0.03,0.12-0.05,0.18-0.02c0.84,0.37,4.69,1.96,7.03,0.97c2.65-1.11,4.44-3.59,5.95-6.03c1.62-2.62,3.1-5.44,3.36-8.5
				l1.94,1.36c1.49,1.42,4.16,0.54,5.25-1.2s1.05-3.94,0.93-5.99c-0.13-2.19-0.41-4.58-1.98-6.1c-2.02-1.95-5.23-1.65-8-1.23
				l2.55-3.3c1.68-2.28,1.64-5.67-0.09-7.91c-1.73-2.24-5-3.13-7.63-2.07l0.34-0.28c0.36-3.47,0.62-7.31-1.49-10.09
				c-2.36-3.11-6.85-3.67-10.72-3.12c-2.51,0.36-5.06,1.13-6.94,2.83c-1.88,1.7-2.93,4.51-2,6.87"/>
			<g>
				<path class="st1" d="M442.6,217.88c-4.92-0.64-10.25-0.06-14.26,3.09c-3.68,2.88-5.79,7.95-4.28,12.52c0-0.44,0-0.89,0-1.33
					c-0.28,0.9-0.57,1.8-0.85,2.7c0.8-0.61,1.61-1.22,2.41-1.84c-4.38-0.04-8.24,2.85-10.08,6.72c-1.55,3.25-1.62,6.77-0.78,10.22
					c0.78,3.21,2.47,6.17,5.15,8.14c1.43,1.05,3.14,1.68,4.89,1.93c0.56,0.08,1.11,0.14,1.67,0.16c-0.11,0,0.59,0.03,0.6,0.02
					c-0.06,0.07-0.4-0.06-0.46-0.11c-0.19-0.14-0.22-0.25-0.37-0.39c0.24,0.23,0.05,0.11,0-0.08c0.08,0.35,0.19,0.7,0.26,1.06
					c0.01,0.08,0.07,0.48,0.01,0.05c0.03,0.21,0.05,0.41,0.08,0.62c0.07,0.51,0.13,1.03,0.23,1.53c0.18,0.88,0.5,1.76,1,2.51
					c0.82,1.22,2.08,2.23,3.63,1.91c0.5-0.1,0.98-0.27,1.47-0.41c-1.03-0.58-2.05-1.16-3.08-1.75c0.96,5.2,5.05,9.33,10,10.92
					c2.74,0.87,5.68,0.93,8.48,0.4c1.25-0.24,2.5-0.63,3.6-1.27c0.98-0.57,1.76-1.36,2.64-2.06c-0.59,0.24-1.18,0.49-1.77,0.73
					c0.06-0.01,0.12-0.01,0.18-0.02c-0.42-0.11-0.84-0.23-1.26-0.34c1.84,0.8,3.72,1.42,5.73,1.6c2.67,0.23,4.98-0.94,6.91-2.7
					c1.88-1.72,3.3-3.98,4.55-6.18c1.52-2.64,2.6-5.39,2.91-8.44c-1.25,0.72-2.51,1.44-3.76,2.16c0.63,0.44,1.26,0.87,1.88,1.32
					c-0.58-0.42,0.27,0.24,0.54,0.4c0.35,0.2,0.74,0.38,1.13,0.48c0.91,0.25,1.87,0.26,2.79,0.06c3.87-0.81,5.51-4.56,5.6-8.17
					c0.08-3.37-0.23-7.45-2.77-9.95c-2.79-2.75-6.89-2.4-10.43-1.87c0.94,1.22,1.88,2.45,2.82,3.67c2.13-2.77,4.39-5.29,4.09-9.08
					c-0.46-5.85-6.48-9.93-12.09-7.87c0.81,1.39,1.62,2.79,2.43,4.18c1.47-1.2,1.3-3.8,1.32-5.59c0.02-2.12-0.26-4.23-1.13-6.17
					c-1.68-3.76-5.39-5.61-9.31-6.07c-3.77-0.45-8.19,0.25-11.45,2.29c-3.5,2.2-5.86,6.52-4.42,10.65c0.45,1.27,1.71,2.12,3.08,1.75
					c1.24-0.34,2.19-1.8,1.75-3.08c-0.82-2.34,0.8-4.33,2.81-5.39c2.21-1.17,5.05-1.47,7.51-1.28c2.13,0.16,4.35,1.01,5.39,2.99
					c1.22,2.34,0.78,5.35,0.53,7.86c0.24-0.59,0.49-1.18,0.73-1.77c-0.11,0.09-0.23,0.19-0.34,0.28c-1.91,1.57,0.14,5.02,2.43,4.18
					c3.09-1.13,6.4,1.13,5.7,4.58c-0.38,1.86-2.23,3.57-3.35,5.03c-0.59,0.77-0.35,2.09,0.2,2.78c0.68,0.85,1.59,1.05,2.63,0.9
					c1.66-0.25,4.2-0.68,5.57,0.59c1.44,1.33,1.31,4.22,1.31,6c0,0.99-0.02,2.23-0.65,3.07c-0.15,0.2-0.4,0.42-0.71,0.55
					c-0.01,0-0.8,0.14-0.46,0.14c0.17,0-0.36-0.16-0.18-0.03c0.22,0.16-0.31-0.23-0.49-0.37c-0.16-0.12-0.33-0.23-0.49-0.35
					c-0.48-0.34-0.96-0.67-1.44-1.01c-1.71-1.2-3.59,0.46-3.76,2.16c-0.23,2.19-1.25,4.23-2.34,6.11c-1.03,1.78-2.13,3.57-3.66,4.97
					c-1.28,1.17-2.41,1.47-4.06,1.11c-0.78-0.17-1.54-0.42-2.29-0.7c-0.14-0.05-0.27-0.1-0.4-0.16c0.33,0.14,0.38,0.16,0.17,0.07
					c-0.61-0.26-1.12-0.39-1.77-0.28c-0.99,0.18-1.48,0.8-2.21,1.39c-0.66,0.55-1.41,0.89-2.23,1.11c-2.03,0.55-4.22,0.56-6.25,0.02
					c-3.68-0.99-6.43-3.85-7.12-7.6c-0.24-1.33-1.86-2.08-3.08-1.75c-0.49,0.14-0.98,0.27-1.47,0.41c0.64,0.08,1.28,0.17,1.93,0.25
					c0.14,0.1-0.07-0.09-0.04-0.06c-0.07-0.08-0.14-0.22-0.17-0.31c0.02,0.05,0.12,0.31,0.03,0.03c-0.09-0.27-0.16-0.56-0.21-0.84
					c-0.02-0.12-0.04-0.25-0.06-0.37c-0.07-0.42,0.04,0.34-0.02-0.08c-0.18-1.31-0.25-2.67-0.95-3.84c-1.61-2.7-5.01-1.65-7.14-2.82
					c-1.8-0.99-2.97-2.8-3.58-4.72c-0.17-0.52-0.3-1.04-0.42-1.57c-0.05-0.24-0.09-0.47-0.14-0.71c-0.02-0.12-0.04-0.23-0.06-0.35
					c0.07,0.49,0-0.03-0.01-0.13c-0.09-1.12-0.14-2.22,0.13-3.32c0.73-2.9,3.07-5.65,6.22-5.62c1.13,0.01,2.08-0.79,2.41-1.84
					c0.39-1.23,1.14-2.72,0.85-4.03c-0.45-2.07-0.29-3.73,0.93-5.55c2.75-4.1,8.38-4.3,12.79-3.73c1.34,0.17,2.5-1.27,2.5-2.5
					C445.1,218.89,443.95,218.06,442.6,217.88L442.6,217.88z"/>
			</g>
		</g>
		<g>
			<path class="st2" d="M432.32,234.68c-1.99,4.55-1.73,11.65-1.82,15.54c0.08,1.17,0.94,2.64,2.01,3.08
				c0.89,0.44,1.69,0.53,2.78,0.54c2.4,0.01,4.65-1.31,5.68-3.47c0.56-1.19,0.9-2.48,1.26-3.64c0.36-1.66,0.97-4.21,1.22-6.81
				C440,237.44,436.32,235.38,432.32,234.68z"/>
			<path class="st3" d="M440.58,259.55c-0.62,0.06-1.05,0.64-0.92,1.25c0.15,0.71,0.46,1.59,1.11,2.41
				c1.48,1.86,3.71,2.17,4.88,2.19c0.44,0.01,0.87-0.18,1.14-0.53c1.88-2.39,4.6-4.26,7.66-5.82c0.47-0.24,0.25-0.95-0.27-0.89
				C449.66,258.63,445.12,259.09,440.58,259.55z"/>
			<path class="st0" d="M439.79,244.01c0.27,2.49-2.98,3.69-3.62,0.94c-0.45-1.33,0.57-2.88,1.92-2.99
				C438.92,242.37,439.97,242.94,439.79,244.01z"/>
		</g>
		<g>
			<path class="st2" d="M459.45,235.64c1.99,4.55,1.73,11.65,1.82,15.54c-0.08,1.17-0.94,2.64-2.01,3.08
				c-1.13,0.56-2.31,0.68-3.44,0.31c-0.51-0.17-1.05-0.24-1.58-0.33c-2.73-0.49-3.97-4.19-4.7-6.55c-0.36-1.66-0.97-4.21-1.22-6.81
				C451.77,238.41,455.45,236.35,459.45,235.64z"/>
			<path class="st0" d="M451.98,244.98c-0.27,2.49,2.98,3.69,3.62,0.94c0.45-1.33-0.57-2.88-1.92-2.99
				C452.85,243.34,451.8,243.91,451.98,244.98z"/>
		</g>
	</g>
	<g id="six">
		<g>
			<path class="st0" d="M580,163.73c-4.05-0.55-8.41-0.27-11.86,1.92s-5.65,6.68-4.27,10.52l-0.85,2.7
				c-4.94-0.17-8.94,4.91-8.94,9.85c0,4.45,2.09,12.32,10.14,12.32c3.41,0,1.07,5.38,3.95,7.2l1.47-0.41
				c0.58,3.5,2.98,6.59,6.11,8.27s6.91,1.97,10.34,1.07c1.43-0.38,2.28-0.89,3.43-1.83c0.15-0.13,0.49-0.51,0.68-0.62
				c0.06-0.03,0.12-0.05,0.18-0.02c0.84,0.37,4.69,1.96,7.03,0.97c2.65-1.11,4.44-3.59,5.95-6.03c1.62-2.62,3.1-5.44,3.36-8.5
				l1.94,1.36c1.49,1.42,4.16,0.54,5.25-1.2c1.09-1.74,1.05-3.94,0.93-5.99c-0.13-2.19-0.41-4.58-1.98-6.1
				c-2.02-1.95-5.23-1.65-8-1.23l2.55-3.3c1.68-2.28,1.64-5.67-0.09-7.91c-1.73-2.24-5-3.13-7.63-2.07l0.34-0.28
				c0.36-3.47,0.62-7.31-1.49-10.09c-2.36-3.11-6.85-3.67-10.72-3.12c-2.51,0.36-5.06,1.13-6.94,2.83c-1.88,1.7-2.93,4.51-2,6.87"/>
			<g>
				<path class="st1" d="M580,161.23c-4.92-0.64-10.25-0.06-14.26,3.09c-3.68,2.88-5.79,7.95-4.28,12.52c0-0.44,0-0.89,0-1.33
					c-0.28,0.9-0.57,1.8-0.85,2.7c0.8-0.61,1.61-1.22,2.41-1.84c-4.38-0.04-8.24,2.85-10.08,6.72c-1.55,3.25-1.62,6.77-0.78,10.22
					c0.78,3.21,2.47,6.17,5.15,8.14c1.43,1.05,3.14,1.68,4.89,1.93c0.56,0.08,1.11,0.14,1.67,0.16c-0.11,0,0.59,0.03,0.6,0.02
					c-0.06,0.07-0.4-0.06-0.46-0.11c-0.19-0.14-0.22-0.25-0.37-0.39c0.24,0.23,0.05,0.11,0-0.08c0.08,0.35,0.19,0.7,0.26,1.06
					c0.01,0.08,0.07,0.48,0.01,0.05c0.03,0.21,0.05,0.41,0.08,0.62c0.07,0.51,0.13,1.03,0.23,1.53c0.18,0.88,0.5,1.76,1,2.51
					c0.82,1.22,2.08,2.23,3.63,1.91c0.5-0.1,0.98-0.27,1.47-0.41c-1.03-0.58-2.05-1.16-3.08-1.75c0.96,5.2,5.05,9.33,10,10.92
					c2.74,0.87,5.68,0.93,8.48,0.4c1.25-0.24,2.5-0.63,3.6-1.27c0.98-0.57,1.76-1.36,2.64-2.06c-0.59,0.24-1.18,0.49-1.77,0.73
					c0.06-0.01,0.12-0.01,0.18-0.02c-0.42-0.11-0.84-0.23-1.26-0.34c1.84,0.8,3.72,1.42,5.73,1.6c2.67,0.23,4.98-0.94,6.91-2.7
					c1.88-1.72,3.3-3.98,4.55-6.18c1.52-2.64,2.6-5.39,2.91-8.44c-1.25,0.72-2.51,1.44-3.76,2.16c0.63,0.44,1.26,0.87,1.88,1.32
					c-0.58-0.42,0.27,0.24,0.54,0.4c0.35,0.2,0.74,0.38,1.13,0.48c0.91,0.25,1.87,0.26,2.79,0.06c3.87-0.81,5.51-4.56,5.6-8.17
					c0.08-3.37-0.23-7.45-2.77-9.95c-2.79-2.75-6.89-2.4-10.43-1.87c0.94,1.22,1.88,2.45,2.82,3.67c2.13-2.77,4.39-5.29,4.09-9.08
					c-0.46-5.85-6.48-9.93-12.09-7.87c0.81,1.39,1.62,2.79,2.43,4.18c1.47-1.2,1.3-3.8,1.32-5.59c0.02-2.12-0.26-4.23-1.13-6.17
					c-1.68-3.76-5.39-5.61-9.31-6.07c-3.77-0.45-8.19,0.25-11.45,2.29c-3.5,2.2-5.86,6.52-4.42,10.65c0.45,1.27,1.71,2.12,3.08,1.75
					c1.24-0.34,2.19-1.8,1.75-3.08c-0.82-2.34,0.8-4.33,2.81-5.39c2.21-1.17,5.05-1.47,7.51-1.28c2.13,0.16,4.35,1.01,5.39,2.99
					c1.22,2.34,0.78,5.35,0.53,7.86c0.24-0.59,0.49-1.18,0.73-1.77c-0.11,0.09-0.23,0.19-0.34,0.28c-1.91,1.57,0.14,5.02,2.43,4.18
					c3.09-1.13,6.4,1.13,5.7,4.58c-0.38,1.86-2.23,3.57-3.35,5.03c-0.59,0.77-0.35,2.09,0.2,2.78c0.68,0.85,1.59,1.05,2.63,0.9
					c1.66-0.25,4.2-0.68,5.57,0.59c1.44,1.33,1.31,4.22,1.31,6c0,0.99-0.02,2.23-0.65,3.07c-0.15,0.2-0.4,0.42-0.71,0.55
					c-0.01,0-0.8,0.14-0.46,0.14c0.17,0-0.36-0.16-0.18-0.03c0.22,0.16-0.31-0.23-0.49-0.37c-0.16-0.12-0.33-0.23-0.49-0.35
					c-0.48-0.34-0.96-0.67-1.44-1.01c-1.71-1.2-3.59,0.46-3.76,2.16c-0.23,2.19-1.25,4.23-2.34,6.1c-1.03,1.78-2.13,3.57-3.66,4.97
					c-1.28,1.17-2.41,1.47-4.06,1.11c-0.78-0.17-1.54-0.42-2.29-0.7c-0.14-0.05-0.27-0.1-0.4-0.16c0.33,0.14,0.38,0.16,0.17,0.07
					c-0.61-0.26-1.12-0.39-1.77-0.28c-0.99,0.18-1.48,0.8-2.21,1.39c-0.66,0.55-1.41,0.89-2.23,1.11c-2.03,0.55-4.22,0.56-6.25,0.02
					c-3.68-0.99-6.43-3.85-7.12-7.6c-0.24-1.33-1.86-2.08-3.08-1.75c-0.49,0.14-0.98,0.27-1.47,0.41c0.64,0.08,1.28,0.17,1.93,0.25
					c0.14,0.1-0.07-0.09-0.04-0.06c-0.07-0.08-0.14-0.22-0.17-0.31c0.02,0.05,0.12,0.31,0.03,0.03c-0.09-0.27-0.16-0.56-0.21-0.84
					c-0.02-0.12-0.04-0.25-0.06-0.37c-0.07-0.42,0.04,0.34-0.02-0.08c-0.18-1.31-0.25-2.67-0.95-3.84c-1.61-2.7-5.01-1.65-7.14-2.82
					c-1.8-0.99-2.97-2.8-3.58-4.72c-0.17-0.52-0.3-1.04-0.42-1.57c-0.05-0.24-0.09-0.47-0.14-0.71c-0.02-0.12-0.04-0.23-0.06-0.35
					c0.07,0.49,0-0.03-0.01-0.13c-0.09-1.12-0.14-2.22,0.13-3.32c0.73-2.9,3.07-5.65,6.22-5.62c1.13,0.01,2.08-0.79,2.41-1.84
					c0.39-1.23,1.14-2.72,0.85-4.03c-0.45-2.07-0.29-3.73,0.93-5.55c2.75-4.1,8.38-4.3,12.79-3.73c1.34,0.17,2.5-1.27,2.5-2.5
					C582.5,162.24,581.34,161.41,580,161.23L580,161.23z"/>
			</g>
		</g>
		<g>
			<path class="st2" d="M569.72,178.03c-1.99,4.55-1.73,11.65-1.82,15.54c0.08,1.17,0.94,2.64,2.01,3.08
				c0.89,0.44,1.69,0.53,2.78,0.54c2.4,0.01,4.65-1.31,5.68-3.47c0.56-1.19,0.9-2.48,1.26-3.64c0.36-1.66,0.97-4.21,1.22-6.81
				C577.4,180.79,573.72,178.73,569.72,178.03z"/>
			<path class="st3" d="M577.98,202.91c-0.62,0.06-1.05,0.64-0.92,1.25c0.15,0.71,0.46,1.59,1.11,2.41
				c1.48,1.86,3.71,2.17,4.88,2.19c0.44,0.01,0.87-0.18,1.14-0.53c1.88-2.39,4.6-4.26,7.66-5.82c0.47-0.24,0.25-0.95-0.27-0.89
				C587.05,201.98,582.51,202.44,577.98,202.91z"/>
			<path class="st0" d="M577.19,187.36c0.27,2.49-2.98,3.69-3.62,0.94c-0.45-1.33,0.57-2.88,1.92-2.99
				C576.32,185.72,577.36,186.3,577.19,187.36z"/>
		</g>
		<g>
			<path class="st2" d="M596.85,179c1.99,4.55,1.73,11.65,1.82,15.54c-0.08,1.17-0.94,2.64-2.01,3.08
				c-1.13,0.56-2.31,0.68-3.44,0.31c-0.51-0.17-1.05-0.24-1.58-0.33c-2.73-0.49-3.97-4.19-4.7-6.55c-0.36-1.66-0.97-4.21-1.22-6.81
				C589.16,181.76,592.84,179.7,596.85,179z"/>
			<path class="st0" d="M589.37,188.33c-0.27,2.49,2.98,3.69,3.62,0.94c0.45-1.33-0.57-2.88-1.92-2.99
				C590.24,186.69,589.2,187.27,589.37,188.33z"/>
		</g>
	</g>
	<g id="seven">
		<g>
			<path class="st0" d="M808.83,110.86c-10.63-1.46-22.05-0.72-31.11,5.04c-9.05,5.75-14.83,17.5-11.19,27.6l-2.24,7.07
				c-12.95-0.44-23.44,12.88-23.44,25.84c0,11.67,5.48,32.3,26.58,32.3c8.93,0,2.8,14.12,10.36,18.87l3.86-1.06
				c1.52,9.18,7.81,17.29,16.01,21.67c8.21,4.39,18.12,5.16,27.12,2.8c3.76-0.99,5.98-2.33,8.98-4.8c0.41-0.33,1.29-1.33,1.77-1.63
				c0.15-0.09,0.31-0.12,0.47-0.05c2.2,0.97,12.29,5.14,18.45,2.55c6.94-2.92,11.64-9.41,15.59-15.82
				c4.24-6.86,8.14-14.25,8.81-22.29l5.09,3.58c3.9,3.73,10.9,1.42,13.77-3.15c2.87-4.56,2.77-10.33,2.44-15.71
				c-0.34-5.74-1.07-12.01-5.2-16c-5.29-5.1-13.72-4.34-20.98-3.23l6.68-8.66c4.4-5.97,4.3-14.86-0.24-20.73
				c-4.54-5.87-13.12-8.2-20.01-5.44l0.89-0.73c0.95-9.09,1.63-19.17-3.89-26.45c-6.2-8.16-17.97-9.63-28.11-8.18
				c-6.58,0.94-13.27,2.96-18.21,7.42c-4.93,4.46-7.68,11.82-5.25,18.01"/>
			<g>
				<path class="st1" d="M808.83,108.36c-9.54-1.28-19.48-0.8-28.35,3.21c-7.84,3.54-14.11,10.37-16.54,18.67
					c-1.33,4.52-1.37,9.45,0.19,13.92c0-0.44,0-0.89,0-1.33c-0.75,2.36-1.49,4.71-2.24,7.07c0.8-0.61,1.61-1.22,2.41-1.84
					c-10.29-0.25-19.18,7.12-23.22,16.21c-3.38,7.61-3.27,15.91-1.18,23.85c1.93,7.34,5.83,14.3,12.19,18.67
					c3.64,2.5,7.91,3.81,12.27,4.26c1.11,0.11,2.23,0.13,3.34,0.16c-0.03,0,0.77,0.08,0.39,0.02c-0.36-0.05,0.34,0.09,0.33,0.08
					c0.11,0.03,0.72,0.28,0.17,0.02c0.17,0.08,0.34,0.18,0.5,0.28c0.51,0.29-0.23-0.24,0.01,0.01c0.1,0.11,0.22,0.22,0.32,0.33
					c0.41,0.42-0.18-0.3,0,0.01c0.08,0.14,0.16,0.27,0.24,0.41c0.01,0.01,0.28,0.59,0.13,0.23c-0.16-0.36,0.09,0.26,0.1,0.27
					c0.13,0.41,0.25,0.82,0.35,1.24c0.47,2.05,0.49,3.25,0.82,5.53c0.31,2.12,0.79,4.2,1.79,6.11c0.99,1.89,3.24,4.74,5.63,4.23
					c1.29-0.27,2.57-0.71,3.84-1.06c-1.03-0.58-2.05-1.16-3.08-1.75c1.57,9.1,7.46,17.14,15.2,22.03
					c8.64,5.45,19.48,6.73,29.36,4.59c2.6-0.57,5.17-1.4,7.48-2.75c1.06-0.62,2.05-1.35,3.02-2.11c0.51-0.4,1.03-0.79,1.5-1.23
					c0.2-0.18,0.39-0.38,0.58-0.57c0.27-0.27,0.97-0.6,0.04-0.25c-0.44,0-0.89,0-1.33,0c-0.51-0.07-0.06-0.07,0.2,0.02
					c0.39,0.14,0.78,0.33,1.17,0.49c0.68,0.28,1.37,0.54,2.07,0.79c1.75,0.62,3.54,1.15,5.36,1.53c4.4,0.93,8.76,1.03,12.87-0.98
					c4.37-2.14,7.88-5.67,10.82-9.47c3.1-4.01,5.79-8.41,8.16-12.89c2.89-5.47,5.05-11.24,5.61-17.43
					c-1.25,0.72-2.51,1.44-3.76,2.16c1.24,0.87,2.47,1.74,3.71,2.61c0.44,0.31,0.91,0.61,1.34,0.94c0.22,0.17-0.74-0.6,0.01,0.05
					c0.3,0.26,0.66,0.53,1,0.75c0.68,0.44,1.46,0.77,2.22,1.01c5.51,1.72,11.76-1.69,14.42-6.53c3.28-5.97,2.79-13.5,2.06-20.05
					c-0.7-6.28-2.67-12.67-8.4-16.12c-6.16-3.7-13.89-2.76-20.64-1.74c0.94,1.22,1.88,2.45,2.82,3.67c1.41-1.83,2.83-3.66,4.24-5.5
					c1.72-2.24,3.42-4.31,4.51-6.96c3.85-9.32,0-20.71-9.21-25.14c-4.94-2.38-10.78-2.9-15.94-0.9c0.81,1.39,1.62,2.79,2.43,4.18
					c0.28-0.23,0.61-0.45,0.86-0.71c0.87-0.87,0.81-2.23,0.92-3.38c0.18-1.82,0.33-3.63,0.41-5.46c0.17-3.75,0.05-7.54-0.71-11.24
					c-1.43-6.95-5.69-12.92-12.1-16.08c-6.13-3.01-13.21-3.7-19.94-3.05c-7.46,0.71-15.08,2.67-21.06,7.39
					c-6.22,4.91-10.04,13.75-7.13,21.49c0.47,1.26,1.69,2.13,3.08,1.75c1.21-0.33,2.22-1.8,1.75-3.08
					c-2.01-5.34,0.11-11.2,4.06-15.07c4.56-4.46,11.09-6.32,17.24-7.23c10.29-1.52,23.64,0.2,28.08,11.12
					c2.68,6.59,1.87,14.15,1.16,21.04c0.24-0.59,0.49-1.18,0.73-1.77c-0.3,0.24-0.59,0.49-0.89,0.73c-1.89,1.55,0.14,5.07,2.43,4.18
					c7.25-2.81,16.34,0.37,19.26,7.87c1.45,3.74,1.45,8.07-0.15,11.76c-0.94,2.17-2.54,3.98-3.97,5.84
					c-1.46,1.89-2.92,3.79-4.38,5.68c-0.59,0.77-0.35,2.09,0.2,2.78c0.68,0.85,1.59,1.05,2.63,0.9c4.89-0.74,10.44-1.49,15.17,0.41
					c4.85,1.95,6.69,6.75,7.41,11.57c0.4,2.69,0.53,5.46,0.59,8.18c0.06,2.83-0.07,5.66-0.96,8.37c-0.71,2.18-1.98,4.07-3.96,5.27
					c-1.68,1.02-3.7,1.52-5.4,1.07c-1.34-0.36-2.59-1.57-3.85-2.45c-1.18-0.83-2.35-1.65-3.53-2.48c-1.69-1.19-3.61,0.45-3.76,2.16
					c-0.44,4.81-2.15,9.43-4.32,13.72c-2.11,4.18-4.57,8.25-7.28,12.07c-2.4,3.37-5.25,6.6-8.82,8.75
					c-3.28,1.98-6.47,2.22-10.21,1.5c-1.72-0.33-3.41-0.81-5.08-1.36c-0.66-0.22-1.31-0.46-1.96-0.7c-0.27-0.1-0.53-0.21-0.8-0.32
					c-0.12-0.05-0.23-0.1-0.35-0.14c-0.32-0.13,0.48,0.21,0.08,0.03c-1.02-0.44-1.97-0.73-3.04-0.22c-0.96,0.45-1.63,1.29-2.4,1.99
					c-1.46,1.32-3.2,2.47-4.99,3.28c-3.98,1.8-8.77,2.31-13.09,2.25c-4.53-0.07-9.14-0.95-13.28-2.83
					c-8.62-3.92-15.13-11.71-16.76-21.11c-0.23-1.33-1.87-2.08-3.08-1.75c-1.29,0.35-2.58,0.71-3.86,1.06
					c0.64,0.08,1.28,0.17,1.93,0.25c-0.49-0.32-0.29-0.16-0.7-0.55c-0.24-0.23-0.46-0.46-0.66-0.72c0.22,0.29-0.29-0.49-0.35-0.6
					c-0.27-0.47-0.37-0.7-0.42-0.83c-0.56-1.45-0.83-2.99-1.06-4.53c-0.06-0.43,0.04,0.33-0.01-0.09c-0.03-0.21-0.05-0.42-0.08-0.63
					c-0.04-0.33-0.08-0.66-0.12-0.99c-0.12-0.94-0.24-1.88-0.4-2.8c-0.25-1.4-0.65-2.85-1.4-4.07c-0.86-1.42-2.13-2.44-3.7-2.99
					c-1.83-0.64-3.9-0.37-5.8-0.56c-3.46-0.36-6.64-1.5-9.52-3.43c-5-3.35-8.16-9.05-9.85-14.86c-0.42-1.46-0.77-2.95-1.03-4.45
					c-0.06-0.35-0.12-0.7-0.18-1.06c-0.02-0.15-0.05-0.31-0.07-0.47c-0.11-0.74,0.04,0.31-0.02-0.14c-0.09-0.71-0.16-1.42-0.22-2.13
					c-0.27-3.53-0.03-6.97,1.04-10.37c2.72-8.57,10.31-16.33,19.77-16.1c1.13,0.03,2.08-0.8,2.41-1.84
					c0.72-2.28,1.58-4.56,2.17-6.87c0.24-0.91-0.01-1.66-0.27-2.54c-0.34-1.13-0.56-2.29-0.64-3.47c-0.14-2.24,0.12-4.44,0.73-6.6
					c1.27-4.45,3.92-8.4,7.35-11.47c3.85-3.44,8.81-5.48,13.8-6.57c6.21-1.36,12.69-1.18,18.97-0.34c1.34,0.18,2.5-1.28,2.5-2.5
					C811.33,109.36,810.17,108.54,808.83,108.36L808.83,108.36z"/>
			</g>
		</g>
		<g>
			<path class="st2" d="M781.86,148.35c-5.21,11.93-4.54,30.56-4.77,40.74c0.2,3.06,2.46,6.93,5.27,8.07
				c2.34,1.16,4.43,1.39,7.28,1.41c6.29,0.04,12.19-3.43,14.89-9.11c1.48-3.11,2.36-6.51,3.31-9.56c0.94-4.34,2.54-11.04,3.21-17.85
				C802.01,155.59,792.36,150.19,781.86,148.35z"/>
			<path class="st3" d="M803.53,213.58c-1.62,0.17-2.74,1.69-2.42,3.28c0.38,1.85,1.2,4.16,2.92,6.33c3.89,4.89,9.72,5.7,12.79,5.75
				c1.16,0.02,2.28-0.47,2.99-1.38c4.93-6.28,12.05-11.16,20.1-15.27c1.22-0.63,0.67-2.48-0.7-2.34
				C827.32,211.16,815.42,212.37,803.53,213.58z"/>
			<path class="st0" d="M801.46,172.82c0.7,6.52-7.82,9.67-9.49,2.47c-1.17-3.5,1.5-7.55,5.04-7.83
				C799.17,168.52,801.92,170.03,801.46,172.82z"/>
		</g>
		<g>
			<path class="st2" d="M853.01,150.89c5.21,11.93,4.54,30.56,4.77,40.74c-0.2,3.06-2.46,6.93-5.27,8.07
				c-2.97,1.48-6.05,1.77-9.02,0.8c-1.34-0.44-2.75-0.63-4.13-0.88c-7.17-1.29-10.4-11-12.33-17.19
				c-0.94-4.34-2.54-11.04-3.21-17.85C832.86,158.13,842.51,152.73,853.01,150.89z"/>
			<path class="st0" d="M833.41,175.36c-0.7,6.52,7.82,9.67,9.49,2.47c1.17-3.5-1.5-7.55-5.04-7.83
				C835.7,171.06,832.95,172.57,833.41,175.36z"/>
		</g>
		<g>
			<g>
				<path class="st1" d="M801.27,139.68c0.68,0.82,1.37,1.63,2,2.49c-0.12-0.17-0.19-0.25-0.03-0.03c0.08,0.11,0.16,0.21,0.24,0.32
					c0.16,0.21,0.32,0.42,0.48,0.64c0.34,0.45,0.67,0.91,1,1.37c1.26,1.76,2.46,3.56,3.6,5.4c0.69,1.11,2.27,1.64,3.42,0.9
					c1.11-0.72,1.63-2.23,0.9-3.42c-2.43-3.92-5.14-7.65-8.08-11.19c-0.84-1.01-2.68-0.93-3.54,0
					C800.28,137.22,800.37,138.6,801.27,139.68L801.27,139.68z"/>
			</g>
		</g>
		<g>
			<g>
				<path class="st1" d="M826.27,148.06c0.68-1.02,1.38-2.03,2.12-3.01c0.18-0.25,0.37-0.49,0.56-0.73
					c0.22-0.29-0.25,0.31-0.02,0.02c0.11-0.13,0.21-0.27,0.32-0.4c0.38-0.48,0.77-0.96,1.17-1.42c1.58-1.88,3.27-3.66,5.04-5.36
					c0.95-0.9,0.98-2.64,0-3.54c-1.02-0.93-2.52-0.96-3.54,0c-3.76,3.58-7.09,7.6-9.96,11.92c-0.73,1.09-0.25,2.81,0.9,3.42
					C824.1,149.62,825.49,149.23,826.27,148.06L826.27,148.06z"/>
			</g>
		</g>
	</g>
	<g id="eight">
		<g>
			<g>
				<path class="st0" d="M1060.49,6.79c-6.41-0.88-13.31-0.43-18.77,3.04c-5.46,3.47-8.95,10.56-6.75,16.65l-1.35,4.27
					c-7.82-0.27-14.14,7.77-14.14,15.59c0,7.04,3.31,19.49,16.04,19.49c5.39,0,1.69,8.52,6.25,11.39l2.33-0.64
					c0.92,5.54,4.71,10.43,9.66,13.08c4.95,2.65,10.94,3.12,16.37,1.69c2.27-0.6,3.61-1.41,5.42-2.9c0.24-0.2,0.78-0.8,1.07-0.98
					c0.09-0.05,0.19-0.07,0.28-0.03c1.32,0.59,7.42,3.1,11.13,1.54c4.19-1.76,7.02-5.68,9.41-9.54c2.56-4.14,4.91-8.6,5.32-13.45
					l3.07,2.16c2.35,2.25,6.58,0.85,8.31-1.9c1.73-2.75,1.67-6.23,1.48-9.48c-0.21-3.46-0.64-7.25-3.14-9.66
					c-3.19-3.08-8.28-2.62-12.66-1.95l4.03-5.22c2.66-3.6,2.59-8.97-0.15-12.51s-7.92-4.95-12.07-3.28l0.54-0.44
					c0.57-5.49,0.99-11.57-2.35-15.96c-3.74-4.92-10.84-5.81-16.96-4.94c-3.97,0.57-8.01,1.79-10.99,4.48
					c-2.98,2.69-4.63,7.13-3.17,10.87"/>
				<g>
					<path class="st1" d="M1060.49,4.29c-7.45-0.99-15.63-0.2-21.72,4.6c-5.31,4.2-8.48,11.63-6.22,18.26c0-0.44,0-0.89,0-1.33
						c-0.45,1.42-0.9,2.84-1.35,4.27c0.8-0.61,1.61-1.22,2.41-1.84c-6.42-0.12-12.05,4.28-14.71,9.93
						c-2.27,4.82-2.32,10.04-1.06,15.14c1.18,4.74,3.65,9.17,7.67,12.05c2.24,1.61,4.9,2.47,7.61,2.81c0.73,0.09,1.47,0.15,2.2,0.15
						c0.14,0,0.29,0,0.44,0.01c-0.07-0.01-0.32,0.01-0.08-0.01c0.11-0.01,0.21,0.08,0.31,0.08c-0.2,0-0.28-0.21-0.06-0.01
						c-0.33-0.29-0.07-0.1,0.06,0.08c-0.26-0.36-0.07-0.1,0.03,0.12c0.17,0.37-0.05-0.35,0.08,0.25c0.06,0.25,0.13,0.49,0.19,0.74
						c0.06,0.27,0.1,0.53,0.14,0.8c0.05,0.29,0-0.02-0.01-0.06c0.02,0.16,0.04,0.33,0.06,0.49c0.1,0.77,0.19,1.53,0.31,2.3
						c0.21,1.27,0.57,2.54,1.2,3.67c0.86,1.52,2.51,3.25,4.42,2.85c0.78-0.16,1.56-0.43,2.33-0.64c-1.03-0.58-2.05-1.16-3.08-1.75
						c1.35,7.61,7.28,13.72,14.49,16.15c3.9,1.31,8.09,1.5,12.14,0.87c1.9-0.29,3.77-0.79,5.5-1.64c1.52-0.75,2.95-2.15,4.06-3
						c-0.42,0.11-0.84,0.23-1.26,0.34c0.09-0.01,0.19-0.02,0.28-0.03c-0.42-0.11-0.84-0.23-1.26-0.34c2.64,1.16,5.38,2.04,8.26,2.32
						c3.89,0.38,7.24-1.32,10.05-3.91c2.9-2.68,5.07-6.19,7.01-9.6c2.2-3.88,3.86-7.95,4.29-12.42c-1.25,0.72-2.51,1.44-3.76,2.16
						c0.77,0.54,1.54,1.08,2.3,1.62c0.16,0.11,1.07,0.81,0.5,0.36c0.78,0.62,1.58,1.13,2.56,1.39c3.71,1,7.81-1.08,9.65-4.35
						c2.13-3.76,1.89-8.49,1.43-12.65c-0.46-4.09-1.7-8.1-5.33-10.46c-3.95-2.58-9.05-1.96-13.46-1.3c0.94,1.22,1.88,2.45,2.82,3.67
						c1.17-1.52,2.34-3.03,3.51-4.55c1.93-2.5,2.99-5.57,2.79-8.76c-0.25-4.17-2.34-7.95-5.92-10.18c-3.34-2.08-7.71-2.6-11.39-1.2
						c0.81,1.39,1.62,2.79,2.43,4.18c0.82-0.67,1.17-1.31,1.29-2.4c0.13-1.19,0.23-2.39,0.3-3.59c0.13-2.41,0.06-4.83-0.38-7.21
						c-0.84-4.48-3.56-8.43-7.65-10.51c-3.87-1.97-8.38-2.47-12.67-2.06c-4.84,0.46-9.74,1.73-13.57,4.86
						c-3.94,3.22-6.22,8.87-4.42,13.82c0.46,1.27,1.7,2.12,3.08,1.75c1.22-0.34,2.21-1.8,1.75-3.08c-1.08-2.95,0.06-6.05,2.26-8.18
						c2.57-2.49,6.3-3.51,9.75-4.03c5.77-0.86,13.46-0.02,15.95,6.17c1.54,3.83,1.01,8.27,0.6,12.26c0.24-0.59,0.49-1.18,0.73-1.77
						c-0.18,0.15-0.36,0.29-0.54,0.44c-1.9,1.56,0.14,5.05,2.43,4.18c5.66-2.15,11.77,2.17,10.95,8.37
						c-0.27,2.01-1.36,3.5-2.55,5.05c-1.01,1.31-2.02,2.62-3.03,3.93c-0.59,0.77-0.35,2.09,0.2,2.78c0.68,0.85,1.59,1.05,2.63,0.9
						c3.21-0.48,7.62-1.15,10.23,1.3c2.61,2.45,2.5,7.27,2.5,10.56c0,3-0.84,7.24-4.36,7.33c-0.87,0.02-1.52-0.62-2.43-1.26
						c-0.8-0.56-1.59-1.12-2.39-1.68c-1.7-1.2-3.6,0.46-3.76,2.16c-0.53,5.5-3.78,10.74-6.92,15.14c-1.4,1.96-3.08,3.8-5.18,5.01
						c-1.8,1.03-3.57,0.99-5.59,0.54c-1.01-0.22-2-0.51-2.97-0.85c-0.35-0.12-0.69-0.25-1.03-0.38c-0.15-0.06-0.31-0.12-0.46-0.19
						c0.63,0.26,0.19,0.08,0.06,0.02c-1.71-0.73-2.84-0.01-4.09,1.13c-0.82,0.76-1.76,1.42-2.77,1.9
						c-4.5,2.11-10.68,1.73-15.14-0.25c-5.01-2.23-8.68-6.73-9.64-12.14c-0.24-1.33-1.87-2.08-3.08-1.75
						c-0.78,0.21-1.55,0.43-2.33,0.64c0.64,0.08,1.28,0.17,1.93,0.25c-0.24-0.16-0.38-0.3-0.51-0.49c-0.09-0.13-0.17-0.28-0.25-0.42
						c-0.37-0.65,0.12,0.41-0.14-0.3c-0.14-0.39-0.25-0.79-0.34-1.2c-0.05-0.25-0.1-0.5-0.14-0.75c-0.01-0.07-0.12-0.77-0.06-0.34
						c-0.27-1.92-0.34-3.94-1.33-5.66c-1.29-2.23-3.46-2.47-5.79-2.6c-2.05-0.12-3.97-0.7-5.63-1.72c-2.94-1.81-4.82-5.03-5.83-8.37
						c-0.26-0.87-0.48-1.76-0.65-2.66c-0.07-0.39-0.14-0.79-0.2-1.18c0.08,0.56-0.02-0.2-0.03-0.26c-0.02-0.22-0.05-0.45-0.07-0.67
						c-0.17-2-0.09-3.95,0.48-5.89c1.45-4.92,5.69-9.41,11.07-9.31c1.13,0.02,2.08-0.8,2.41-1.84c0.29-0.91,0.57-1.81,0.86-2.72
						c0.41-1.31,0.68-2.14,0.27-3.56c-0.94-3.26,0.1-6.65,1.95-9.39c4.64-6.83,13.94-7.44,21.38-6.46c1.34,0.18,2.5-1.28,2.5-2.5
						C1062.99,5.29,1061.83,4.47,1060.49,4.29L1060.49,4.29z"/>
				</g>
			</g>
			<g>
				<path class="st2" d="M1044.22,29.41c-3.14,7.2-2.74,18.44-2.88,24.58c0.12,1.85,1.49,4.18,3.18,4.87
					c1.41,0.7,2.67,0.84,4.39,0.85c3.79,0.02,7.35-2.07,8.98-5.5c0.89-1.88,1.42-3.93,2-5.77c0.57-2.62,1.53-6.66,1.94-10.77
					C1056.37,33.78,1050.55,30.52,1044.22,29.41z"/>
				<path class="st3" d="M1057.29,68.77c-0.98,0.1-1.66,1.02-1.46,1.98c0.23,1.12,0.72,2.51,1.76,3.82
					c2.35,2.95,5.87,3.44,7.72,3.47c0.7,0.01,1.37-0.28,1.81-0.83c2.98-3.79,7.27-6.74,12.13-9.22c0.74-0.38,0.4-1.5-0.42-1.41
					C1071.64,67.31,1064.47,68.04,1057.29,68.77z"/>
				<path class="st0" d="M1056.04,44.18c0.42,3.93-4.72,5.83-5.73,1.49c-0.7-2.11,0.91-4.56,3.04-4.73
					C1054.66,41.58,1056.32,42.49,1056.04,44.18z"/>
			</g>
			<g>
				<path class="st2" d="M1087.14,30.94c3.14,7.2,2.74,18.44,2.88,24.58c-0.12,1.85-1.49,4.18-3.18,4.87
					c-1.79,0.89-3.65,1.07-5.44,0.48c-0.81-0.27-1.66-0.38-2.49-0.53c-4.33-0.78-6.28-6.64-7.44-10.37
					c-0.57-2.62-1.53-6.66-1.94-10.77C1074.99,35.31,1080.81,32.05,1087.14,30.94z"/>
				<path class="st0" d="M1075.32,45.71c-0.42,3.93,4.72,5.83,5.73,1.49c0.7-2.11-0.91-4.56-3.04-4.73
					C1076.7,43.11,1075.04,44.02,1075.32,45.71z"/>
			</g>
		</g>
		<g>
			<g>
				<path class="st1" d="M1071.01,30.51c2.15-2.13,4.09-4.45,5.86-6.91c0.36-0.5,0.41-1.36,0.25-1.93
					c-0.16-0.58-0.61-1.21-1.15-1.49c-0.58-0.31-1.28-0.46-1.93-0.25c-0.65,0.21-1.1,0.59-1.49,1.15c-0.36,0.51-0.74,1.01-1.12,1.5
					c0.13-0.17,0.26-0.34,0.39-0.51c-1.34,1.73-2.79,3.37-4.35,4.9c-0.93,0.92-0.99,2.63,0,3.54
					C1068.48,31.43,1070.02,31.49,1071.01,30.51L1071.01,30.51z"/>
			</g>
		</g>
		<g>
			<g>
				<path class="st1" d="M1061.9,25.45c-2.15-1.1-4.2-2.38-6.14-3.83c-0.49-0.36-1.37-0.41-1.93-0.25
					c-0.58,0.16-1.21,0.61-1.49,1.15c-0.31,0.58-0.46,1.28-0.25,1.93c0.08,0.2,0.17,0.4,0.25,0.6c0.22,0.38,0.52,0.67,0.9,0.9
					c1.94,1.44,3.99,2.73,6.14,3.83c0.6,0.31,1.27,0.43,1.93,0.25c0.58-0.16,1.21-0.61,1.49-1.15
					C1063.4,27.73,1063.14,26.09,1061.9,25.45L1061.9,25.45z"/>
			</g>
		</g>
	</g>
	<g id="nine">
		<g>
			<path class="st0" d="M1074.13,160.67c-4.05-0.55-8.41-0.27-11.86,1.92s-5.65,6.68-4.27,10.52l-0.85,2.7
				c-4.94-0.17-8.94,4.91-8.94,9.85c0,4.45,2.09,12.32,10.14,12.32c3.41,0,1.07,5.38,3.95,7.2l1.47-0.41
				c0.58,3.5,2.98,6.59,6.11,8.27c3.13,1.67,6.91,1.97,10.34,1.07c1.43-0.38,2.28-0.89,3.43-1.83c0.15-0.13,0.49-0.51,0.68-0.62
				c0.06-0.03,0.12-0.05,0.18-0.02c0.84,0.37,4.69,1.96,7.03,0.97c2.65-1.11,4.44-3.59,5.95-6.03c1.62-2.62,3.1-5.44,3.36-8.5
				l1.94,1.36c1.49,1.42,4.16,0.54,5.25-1.2c1.09-1.74,1.05-3.94,0.93-5.99c-0.13-2.19-0.41-4.58-1.98-6.1
				c-2.02-1.95-5.23-1.65-8-1.23l2.55-3.3c1.68-2.28,1.64-5.67-0.09-7.91c-1.73-2.24-5-3.13-7.63-2.07l0.34-0.28
				c0.36-3.47,0.62-7.31-1.49-10.09c-2.36-3.11-6.85-3.67-10.72-3.12c-2.51,0.36-5.06,1.13-6.94,2.83c-1.88,1.7-2.93,4.51-2,6.87"/>
			<g>
				<path class="st1" d="M1074.13,158.17c-4.92-0.64-10.25-0.06-14.26,3.09c-3.68,2.88-5.79,7.95-4.28,12.52c0-0.44,0-0.89,0-1.33
					c-0.28,0.9-0.57,1.8-0.85,2.7c0.8-0.61,1.61-1.22,2.41-1.84c-4.38-0.04-8.24,2.85-10.09,6.72c-1.55,3.25-1.62,6.77-0.78,10.22
					c0.78,3.21,2.47,6.17,5.15,8.14c1.43,1.05,3.14,1.68,4.89,1.93c0.56,0.08,1.11,0.14,1.67,0.16c-0.11,0,0.59,0.03,0.6,0.02
					c-0.06,0.07-0.4-0.06-0.46-0.11c-0.19-0.14-0.22-0.25-0.37-0.39c0.24,0.23,0.05,0.11,0-0.08c0.08,0.35,0.19,0.7,0.26,1.06
					c0.01,0.08,0.07,0.48,0.01,0.05c0.03,0.21,0.05,0.41,0.08,0.62c0.07,0.51,0.13,1.03,0.23,1.53c0.18,0.88,0.5,1.76,1,2.51
					c0.82,1.22,2.08,2.23,3.63,1.91c0.5-0.1,0.98-0.27,1.47-0.41c-1.03-0.58-2.05-1.16-3.08-1.75c0.96,5.2,5.05,9.33,10,10.92
					c2.74,0.87,5.68,0.93,8.48,0.4c1.25-0.24,2.5-0.63,3.6-1.27c0.98-0.57,1.76-1.36,2.64-2.06c-0.59,0.24-1.18,0.49-1.77,0.73
					c0.06-0.01,0.12-0.01,0.18-0.02c-0.42-0.11-0.84-0.23-1.26-0.34c1.84,0.8,3.72,1.42,5.73,1.6c2.67,0.23,4.98-0.94,6.91-2.7
					c1.88-1.72,3.3-3.98,4.55-6.18c1.52-2.64,2.6-5.39,2.91-8.44c-1.25,0.72-2.51,1.44-3.76,2.16c0.63,0.44,1.26,0.87,1.88,1.32
					c-0.58-0.42,0.27,0.24,0.54,0.4c0.35,0.2,0.74,0.38,1.13,0.48c0.91,0.25,1.87,0.26,2.79,0.06c3.87-0.81,5.51-4.56,5.6-8.17
					c0.08-3.37-0.23-7.45-2.77-9.95c-2.79-2.75-6.89-2.4-10.43-1.87c0.94,1.22,1.88,2.45,2.82,3.67c2.13-2.77,4.39-5.29,4.09-9.08
					c-0.46-5.85-6.48-9.93-12.09-7.87c0.81,1.39,1.62,2.79,2.43,4.18c1.47-1.2,1.3-3.8,1.32-5.59c0.02-2.12-0.26-4.23-1.13-6.17
					c-1.68-3.76-5.39-5.61-9.31-6.07c-3.77-0.45-8.19,0.25-11.45,2.29c-3.5,2.2-5.86,6.52-4.42,10.65c0.45,1.27,1.71,2.12,3.08,1.75
					c1.24-0.34,2.19-1.8,1.75-3.08c-0.82-2.34,0.8-4.33,2.81-5.39c2.21-1.17,5.05-1.47,7.51-1.28c2.13,0.16,4.35,1.01,5.39,2.99
					c1.22,2.34,0.78,5.35,0.53,7.86c0.24-0.59,0.49-1.18,0.73-1.77c-0.11,0.09-0.23,0.19-0.34,0.28c-1.91,1.57,0.14,5.02,2.43,4.18
					c3.09-1.13,6.4,1.13,5.7,4.58c-0.38,1.86-2.23,3.57-3.35,5.03c-0.59,0.77-0.35,2.09,0.2,2.78c0.68,0.85,1.59,1.05,2.63,0.9
					c1.66-0.25,4.2-0.68,5.57,0.59c1.44,1.33,1.31,4.22,1.31,6c0,0.99-0.02,2.23-0.65,3.07c-0.15,0.2-0.4,0.42-0.71,0.55
					c-0.01,0-0.8,0.14-0.46,0.14c0.17,0-0.36-0.16-0.18-0.03c0.22,0.16-0.31-0.23-0.49-0.37c-0.16-0.12-0.33-0.23-0.49-0.35
					c-0.48-0.34-0.96-0.67-1.44-1.01c-1.71-1.2-3.59,0.46-3.76,2.16c-0.23,2.19-1.25,4.23-2.34,6.1c-1.03,1.78-2.13,3.57-3.66,4.97
					c-1.28,1.17-2.41,1.47-4.06,1.11c-0.78-0.17-1.54-0.42-2.29-0.7c-0.14-0.05-0.27-0.1-0.4-0.16c0.33,0.14,0.38,0.16,0.17,0.07
					c-0.61-0.26-1.12-0.39-1.77-0.28c-0.99,0.18-1.48,0.8-2.21,1.39c-0.66,0.55-1.41,0.89-2.23,1.11c-2.03,0.55-4.22,0.56-6.25,0.02
					c-3.68-0.99-6.43-3.85-7.12-7.6c-0.24-1.33-1.86-2.08-3.08-1.75c-0.49,0.14-0.98,0.27-1.47,0.41c0.64,0.08,1.28,0.17,1.93,0.25
					c0.14,0.1-0.07-0.09-0.04-0.06c-0.07-0.08-0.14-0.22-0.17-0.31c0.02,0.05,0.12,0.31,0.03,0.03c-0.09-0.27-0.16-0.56-0.21-0.84
					c-0.02-0.12-0.04-0.25-0.06-0.37c-0.07-0.42,0.04,0.34-0.01-0.08c-0.18-1.31-0.25-2.67-0.95-3.84c-1.61-2.7-5.01-1.65-7.14-2.82
					c-1.8-0.99-2.97-2.8-3.58-4.72c-0.17-0.52-0.3-1.04-0.42-1.57c-0.05-0.24-0.09-0.47-0.14-0.71c-0.02-0.12-0.04-0.23-0.06-0.35
					c0.07,0.49,0-0.03-0.01-0.13c-0.09-1.12-0.14-2.22,0.13-3.32c0.73-2.9,3.07-5.65,6.22-5.62c1.13,0.01,2.08-0.79,2.41-1.84
					c0.39-1.23,1.14-2.72,0.85-4.03c-0.45-2.07-0.29-3.73,0.93-5.55c2.75-4.1,8.38-4.3,12.79-3.73c1.34,0.17,2.5-1.27,2.5-2.5
					C1076.63,159.18,1075.47,158.35,1074.13,158.17L1074.13,158.17z"/>
			</g>
		</g>
		<g>
			<path class="st2" d="M1063.84,174.97c-1.99,4.55-1.73,11.65-1.82,15.54c0.08,1.17,0.94,2.64,2.01,3.08
				c0.89,0.44,1.69,0.53,2.78,0.54c2.4,0.01,4.65-1.31,5.68-3.47c0.56-1.19,0.9-2.48,1.26-3.64c0.36-1.66,0.97-4.21,1.22-6.81
				C1071.53,177.73,1067.84,175.67,1063.84,174.97z"/>
			<path class="st3" d="M1072.11,199.85c-0.62,0.06-1.05,0.64-0.92,1.25c0.15,0.71,0.46,1.59,1.11,2.41
				c1.48,1.86,3.71,2.17,4.88,2.19c0.44,0.01,0.87-0.18,1.14-0.53c1.88-2.39,4.6-4.26,7.66-5.82c0.47-0.24,0.25-0.95-0.27-0.89
				C1081.18,198.92,1076.64,199.38,1072.11,199.85z"/>
			<path class="st0" d="M1071.31,184.3c0.27,2.49-2.98,3.69-3.62,0.94c-0.44-1.33,0.57-2.88,1.92-2.99
				C1070.44,182.66,1071.49,183.23,1071.31,184.3z"/>
		</g>
		<g>
			<path class="st2" d="M1090.97,175.94c1.99,4.55,1.73,11.65,1.82,15.54c-0.08,1.17-0.94,2.64-2.01,3.08
				c-1.13,0.56-2.31,0.68-3.44,0.31c-0.51-0.17-1.05-0.24-1.58-0.33c-2.73-0.49-3.97-4.19-4.7-6.55c-0.36-1.66-0.97-4.21-1.22-6.81
				C1083.29,178.7,1086.97,176.64,1090.97,175.94z"/>
			<path class="st0" d="M1083.5,185.27c-0.27,2.49,2.98,3.69,3.62,0.94c0.45-1.33-0.57-2.88-1.92-2.99
				C1084.37,183.63,1083.33,184.2,1083.5,185.27z"/>
		</g>
	</g>
	<g id="ten">
		<g>
			<path class="st0" d="M1205.59,94.84c-4.05-0.55-8.41-0.27-11.86,1.92c-3.45,2.19-5.65,6.68-4.27,10.52l-0.85,2.7
				c-4.94-0.17-8.94,4.91-8.94,9.85c0,4.45,2.09,12.32,10.14,12.32c3.41,0,1.07,5.38,3.95,7.2l1.47-0.41
				c0.58,3.5,2.98,6.59,6.11,8.27c3.13,1.67,6.91,1.97,10.34,1.07c1.43-0.38,2.28-0.89,3.43-1.83c0.15-0.13,0.49-0.51,0.68-0.62
				c0.06-0.03,0.12-0.05,0.18-0.02c0.84,0.37,4.69,1.96,7.03,0.97c2.65-1.11,4.44-3.59,5.95-6.03c1.62-2.62,3.1-5.44,3.36-8.5
				l1.94,1.36c1.49,1.42,4.16,0.54,5.25-1.2c1.09-1.74,1.05-3.94,0.93-5.99c-0.13-2.19-0.41-4.58-1.98-6.1
				c-2.02-1.95-5.23-1.65-8-1.23l2.55-3.3c1.68-2.28,1.64-5.67-0.09-7.91c-1.73-2.24-5-3.13-7.63-2.07l0.34-0.28
				c0.36-3.47,0.62-7.31-1.49-10.09c-2.36-3.11-6.85-3.67-10.72-3.12c-2.51,0.36-5.06,1.13-6.94,2.83s-2.93,4.51-2,6.87"/>
			<g>
				<path class="st1" d="M1205.59,92.34c-4.92-0.64-10.25-0.06-14.26,3.09c-3.68,2.88-5.79,7.95-4.28,12.52c0-0.44,0-0.89,0-1.33
					c-0.28,0.9-0.57,1.8-0.85,2.7c0.8-0.61,1.61-1.22,2.41-1.84c-4.38-0.04-8.24,2.85-10.08,6.72c-1.55,3.25-1.62,6.77-0.78,10.22
					c0.78,3.21,2.47,6.17,5.15,8.14c1.43,1.05,3.14,1.68,4.89,1.93c0.56,0.08,1.11,0.14,1.67,0.16c-0.11,0,0.59,0.03,0.6,0.02
					c-0.06,0.07-0.4-0.06-0.46-0.11c-0.19-0.14-0.22-0.25-0.37-0.39c0.24,0.23,0.05,0.11,0.01-0.08c0.08,0.35,0.19,0.7,0.26,1.06
					c0.01,0.08,0.07,0.48,0.01,0.05c0.03,0.21,0.05,0.41,0.08,0.62c0.07,0.51,0.13,1.03,0.23,1.53c0.18,0.88,0.5,1.76,1,2.51
					c0.82,1.22,2.08,2.23,3.63,1.91c0.5-0.1,0.98-0.27,1.47-0.41c-1.03-0.58-2.05-1.16-3.08-1.75c0.96,5.2,5.05,9.33,10,10.92
					c2.74,0.87,5.68,0.93,8.48,0.4c1.25-0.24,2.5-0.63,3.6-1.27c0.98-0.57,1.76-1.36,2.64-2.06c-0.59,0.24-1.18,0.49-1.77,0.73
					c0.06-0.01,0.12-0.01,0.18-0.02c-0.42-0.11-0.84-0.23-1.26-0.34c1.84,0.8,3.72,1.42,5.73,1.6c2.67,0.23,4.98-0.94,6.91-2.7
					c1.88-1.72,3.3-3.98,4.55-6.18c1.52-2.64,2.6-5.39,2.91-8.44c-1.25,0.72-2.51,1.44-3.76,2.16c0.63,0.44,1.26,0.87,1.88,1.32
					c-0.58-0.42,0.27,0.24,0.54,0.4c0.35,0.2,0.74,0.38,1.13,0.48c0.91,0.25,1.87,0.26,2.79,0.06c3.87-0.81,5.51-4.56,5.6-8.17
					c0.08-3.37-0.23-7.45-2.77-9.95c-2.79-2.75-6.89-2.4-10.43-1.87c0.94,1.22,1.88,2.45,2.82,3.67c2.13-2.77,4.39-5.29,4.09-9.08
					c-0.46-5.85-6.48-9.93-12.09-7.87c0.81,1.39,1.62,2.79,2.43,4.18c1.47-1.2,1.3-3.8,1.32-5.59c0.02-2.12-0.26-4.23-1.13-6.17
					c-1.68-3.76-5.39-5.61-9.31-6.07c-3.77-0.45-8.19,0.25-11.45,2.29c-3.5,2.2-5.86,6.52-4.42,10.65c0.45,1.27,1.71,2.12,3.08,1.75
					c1.24-0.34,2.19-1.8,1.75-3.08c-0.82-2.34,0.8-4.33,2.81-5.39c2.21-1.17,5.05-1.47,7.51-1.28c2.13,0.16,4.35,1.01,5.39,2.99
					c1.22,2.34,0.78,5.35,0.53,7.86c0.24-0.59,0.49-1.18,0.73-1.77c-0.11,0.09-0.23,0.19-0.34,0.28c-1.91,1.57,0.14,5.02,2.43,4.18
					c3.09-1.13,6.4,1.13,5.7,4.58c-0.38,1.86-2.23,3.57-3.35,5.03c-0.59,0.77-0.35,2.09,0.2,2.78c0.68,0.85,1.59,1.05,2.63,0.9
					c1.66-0.25,4.2-0.68,5.57,0.59c1.44,1.33,1.31,4.22,1.31,6c0,0.99-0.02,2.23-0.65,3.07c-0.15,0.2-0.4,0.42-0.71,0.55
					c-0.01,0-0.8,0.14-0.46,0.14c0.17,0-0.36-0.16-0.18-0.03c0.22,0.16-0.31-0.23-0.49-0.37c-0.16-0.12-0.33-0.23-0.49-0.35
					c-0.48-0.34-0.96-0.67-1.44-1.01c-1.71-1.2-3.59,0.46-3.76,2.16c-0.23,2.19-1.25,4.23-2.34,6.1c-1.03,1.78-2.13,3.57-3.66,4.97
					c-1.28,1.17-2.41,1.47-4.06,1.11c-0.78-0.17-1.54-0.42-2.29-0.7c-0.14-0.05-0.27-0.1-0.4-0.16c0.33,0.14,0.38,0.16,0.17,0.07
					c-0.61-0.26-1.12-0.39-1.77-0.28c-0.99,0.18-1.48,0.8-2.21,1.39c-0.66,0.55-1.41,0.89-2.23,1.11c-2.03,0.55-4.22,0.56-6.25,0.02
					c-3.68-0.99-6.43-3.85-7.12-7.6c-0.24-1.33-1.86-2.08-3.08-1.75c-0.49,0.14-0.98,0.27-1.47,0.41c0.64,0.08,1.28,0.17,1.93,0.25
					c0.14,0.1-0.07-0.09-0.04-0.06c-0.07-0.08-0.14-0.22-0.17-0.31c0.02,0.05,0.12,0.31,0.03,0.03c-0.09-0.27-0.16-0.56-0.21-0.84
					c-0.02-0.12-0.04-0.25-0.06-0.37c-0.07-0.42,0.04,0.34-0.02-0.08c-0.18-1.31-0.25-2.67-0.95-3.84c-1.61-2.7-5.01-1.65-7.14-2.82
					c-1.8-0.99-2.97-2.8-3.58-4.72c-0.17-0.52-0.3-1.04-0.42-1.57c-0.05-0.24-0.09-0.47-0.14-0.71c-0.02-0.12-0.04-0.23-0.06-0.35
					c0.07,0.49,0-0.03-0.01-0.13c-0.09-1.12-0.14-2.22,0.13-3.32c0.73-2.9,3.07-5.65,6.22-5.62c1.13,0.01,2.08-0.79,2.41-1.84
					c0.39-1.23,1.14-2.72,0.85-4.03c-0.45-2.07-0.29-3.73,0.93-5.55c2.75-4.1,8.38-4.3,12.79-3.73c1.34,0.17,2.5-1.27,2.5-2.5
					C1208.09,93.35,1206.93,92.52,1205.59,92.34L1205.59,92.34z"/>
			</g>
		</g>
		<g>
			<path class="st2" d="M1195.3,109.14c-1.99,4.55-1.73,11.65-1.82,15.54c0.08,1.17,0.94,2.64,2.01,3.08
				c0.89,0.44,1.69,0.53,2.78,0.54c2.4,0.01,4.65-1.31,5.68-3.47c0.56-1.19,0.9-2.48,1.26-3.64c0.36-1.66,0.97-4.21,1.22-6.81
				C1202.99,111.9,1199.31,109.84,1195.3,109.14z"/>
			<path class="st3" d="M1203.57,134.02c-0.62,0.06-1.05,0.64-0.92,1.25c0.15,0.71,0.46,1.59,1.11,2.41
				c1.48,1.86,3.71,2.17,4.88,2.19c0.44,0.01,0.87-0.18,1.14-0.53c1.88-2.39,4.6-4.26,7.66-5.82c0.47-0.24,0.25-0.95-0.27-0.89
				C1212.64,133.09,1208.1,133.55,1203.57,134.02z"/>
			<path class="st0" d="M1202.78,118.47c0.27,2.49-2.98,3.69-3.62,0.94c-0.45-1.33,0.57-2.88,1.92-2.99
				C1201.91,116.83,1202.95,117.41,1202.78,118.47z"/>
		</g>
		<g>
			<path class="st2" d="M1222.43,110.11c1.99,4.55,1.73,11.65,1.82,15.54c-0.08,1.17-0.94,2.64-2.01,3.08
				c-1.13,0.56-2.31,0.68-3.44,0.31c-0.51-0.17-1.05-0.24-1.58-0.33c-2.73-0.49-3.97-4.19-4.7-6.55c-0.36-1.66-0.97-4.21-1.22-6.81
				C1214.75,112.87,1218.43,110.81,1222.43,110.11z"/>
			<path class="st0" d="M1214.96,119.44c-0.27,2.49,2.98,3.69,3.62,0.94c0.45-1.33-0.57-2.88-1.92-2.99
				C1215.83,117.8,1214.79,118.37,1214.96,119.44z"/>
		</g>
	</g>
	<g id="elleven">
		<g>
			<path class="st0" d="M1228.54,299.34c-4.05-0.55-8.41-0.27-11.86,1.92c-3.45,2.19-5.65,6.68-4.27,10.52l-0.85,2.7
				c-4.94-0.17-8.94,4.91-8.94,9.85c0,4.45,2.09,12.32,10.14,12.32c3.41,0,1.07,5.38,3.95,7.2l1.47-0.41
				c0.58,3.5,2.98,6.59,6.11,8.27c3.13,1.67,6.91,1.97,10.34,1.07c1.43-0.38,2.28-0.89,3.43-1.83c0.15-0.13,0.49-0.51,0.68-0.62
				c0.06-0.03,0.12-0.05,0.18-0.02c0.84,0.37,4.69,1.96,7.03,0.97c2.65-1.11,4.44-3.59,5.95-6.03c1.62-2.62,3.1-5.44,3.36-8.5
				l1.94,1.36c1.49,1.42,4.16,0.54,5.25-1.2c1.09-1.74,1.05-3.94,0.93-5.99c-0.13-2.19-0.41-4.58-1.98-6.1
				c-2.02-1.95-5.23-1.65-8-1.23l2.55-3.3c1.68-2.28,1.64-5.67-0.09-7.91s-5-3.13-7.63-2.07l0.34-0.28
				c0.36-3.47,0.62-7.31-1.49-10.09c-2.36-3.11-6.85-3.67-10.72-3.12c-2.51,0.36-5.06,1.13-6.94,2.83c-1.88,1.7-2.93,4.51-2,6.87"/>
			<g>
				<path class="st1" d="M1228.54,296.84c-4.92-0.64-10.25-0.06-14.26,3.09c-3.68,2.88-5.79,7.95-4.28,12.52c0-0.44,0-0.89,0-1.33
					c-0.28,0.9-0.57,1.8-0.85,2.7c0.8-0.61,1.61-1.22,2.41-1.84c-4.38-0.04-8.24,2.85-10.08,6.72c-1.55,3.25-1.62,6.77-0.78,10.22
					c0.78,3.21,2.47,6.17,5.15,8.14c1.43,1.05,3.14,1.68,4.89,1.93c0.56,0.08,1.11,0.14,1.67,0.16c-0.11,0,0.59,0.03,0.6,0.02
					c-0.06,0.07-0.4-0.06-0.46-0.11c-0.19-0.14-0.22-0.25-0.37-0.39c0.24,0.23,0.05,0.11,0.01-0.08c0.08,0.35,0.19,0.7,0.26,1.06
					c0.01,0.08,0.07,0.48,0.01,0.05c0.03,0.21,0.05,0.41,0.08,0.62c0.07,0.51,0.13,1.03,0.23,1.53c0.18,0.88,0.5,1.76,1,2.51
					c0.82,1.22,2.08,2.23,3.63,1.91c0.5-0.1,0.98-0.27,1.47-0.41c-1.03-0.58-2.05-1.16-3.08-1.75c0.96,5.2,5.05,9.33,10,10.92
					c2.74,0.87,5.68,0.93,8.48,0.4c1.25-0.24,2.5-0.63,3.6-1.27c0.98-0.57,1.76-1.36,2.64-2.06c-0.59,0.24-1.18,0.49-1.77,0.73
					c0.06-0.01,0.12-0.01,0.18-0.02c-0.42-0.11-0.84-0.23-1.26-0.34c1.84,0.8,3.72,1.42,5.73,1.6c2.67,0.23,4.98-0.94,6.91-2.7
					c1.88-1.72,3.3-3.98,4.55-6.18c1.52-2.64,2.6-5.39,2.91-8.44c-1.25,0.72-2.51,1.44-3.76,2.16c0.63,0.44,1.26,0.87,1.88,1.32
					c-0.58-0.42,0.27,0.24,0.54,0.4c0.35,0.2,0.74,0.38,1.13,0.48c0.91,0.25,1.87,0.26,2.79,0.06c3.87-0.81,5.51-4.56,5.6-8.17
					c0.08-3.37-0.23-7.45-2.77-9.95c-2.79-2.75-6.89-2.4-10.43-1.87c0.94,1.22,1.88,2.45,2.82,3.67c2.13-2.77,4.39-5.29,4.09-9.08
					c-0.46-5.85-6.48-9.93-12.09-7.87c0.81,1.39,1.62,2.79,2.43,4.18c1.47-1.2,1.3-3.8,1.32-5.59c0.02-2.12-0.26-4.23-1.13-6.17
					c-1.68-3.76-5.39-5.61-9.31-6.07c-3.77-0.45-8.19,0.25-11.45,2.29c-3.5,2.2-5.86,6.52-4.42,10.65c0.45,1.27,1.71,2.12,3.08,1.75
					c1.24-0.34,2.19-1.8,1.75-3.08c-0.82-2.34,0.8-4.33,2.81-5.39c2.21-1.17,5.05-1.47,7.51-1.28c2.13,0.16,4.35,1.01,5.39,2.99
					c1.22,2.34,0.78,5.35,0.53,7.86c0.24-0.59,0.49-1.18,0.73-1.77c-0.11,0.09-0.23,0.19-0.34,0.28c-1.91,1.57,0.14,5.02,2.43,4.18
					c3.09-1.13,6.4,1.13,5.7,4.58c-0.38,1.86-2.23,3.57-3.35,5.03c-0.59,0.77-0.35,2.09,0.2,2.78c0.68,0.85,1.59,1.05,2.63,0.9
					c1.66-0.25,4.2-0.68,5.57,0.59c1.44,1.33,1.31,4.22,1.31,6c0,0.99-0.02,2.23-0.65,3.07c-0.15,0.2-0.4,0.42-0.71,0.55
					c-0.01,0-0.8,0.14-0.46,0.14c0.17,0-0.36-0.16-0.18-0.03c0.22,0.16-0.31-0.23-0.49-0.37c-0.16-0.12-0.33-0.23-0.49-0.35
					c-0.48-0.34-0.96-0.67-1.44-1.01c-1.71-1.2-3.59,0.46-3.76,2.16c-0.23,2.19-1.25,4.23-2.34,6.1c-1.03,1.78-2.13,3.57-3.66,4.97
					c-1.28,1.17-2.41,1.47-4.06,1.11c-0.78-0.17-1.54-0.42-2.29-0.7c-0.14-0.05-0.27-0.1-0.4-0.16c0.33,0.14,0.38,0.16,0.17,0.07
					c-0.61-0.26-1.12-0.39-1.77-0.28c-0.99,0.18-1.48,0.8-2.21,1.39c-0.66,0.55-1.41,0.89-2.23,1.11c-2.03,0.55-4.22,0.56-6.25,0.02
					c-3.68-0.99-6.43-3.85-7.12-7.6c-0.24-1.33-1.86-2.08-3.08-1.75c-0.49,0.14-0.98,0.27-1.47,0.41c0.64,0.08,1.28,0.17,1.93,0.25
					c0.14,0.1-0.07-0.09-0.04-0.06c-0.07-0.08-0.14-0.22-0.17-0.31c0.02,0.05,0.12,0.31,0.03,0.03c-0.09-0.27-0.16-0.56-0.21-0.84
					c-0.02-0.12-0.04-0.25-0.06-0.37c-0.07-0.42,0.04,0.34-0.02-0.08c-0.18-1.31-0.25-2.67-0.95-3.84c-1.61-2.7-5.01-1.65-7.14-2.82
					c-1.8-0.99-2.97-2.8-3.58-4.72c-0.17-0.52-0.3-1.04-0.42-1.57c-0.05-0.24-0.09-0.47-0.14-0.71c-0.02-0.12-0.04-0.23-0.06-0.35
					c0.07,0.49,0-0.03-0.01-0.13c-0.09-1.12-0.14-2.22,0.13-3.32c0.73-2.9,3.07-5.65,6.22-5.62c1.13,0.01,2.08-0.79,2.41-1.84
					c0.39-1.23,1.14-2.72,0.85-4.03c-0.45-2.07-0.29-3.73,0.93-5.55c2.75-4.1,8.38-4.3,12.79-3.73c1.34,0.17,2.5-1.27,2.5-2.5
					C1231.04,297.84,1229.89,297.01,1228.54,296.84L1228.54,296.84z"/>
			</g>
		</g>
		<g>
			<path class="st2" d="M1218.26,313.63c-1.99,4.55-1.73,11.65-1.82,15.54c0.08,1.17,0.94,2.64,2.01,3.08
				c0.89,0.44,1.69,0.53,2.78,0.54c2.4,0.01,4.65-1.31,5.68-3.47c0.56-1.19,0.9-2.48,1.26-3.64c0.36-1.66,0.97-4.21,1.22-6.81
				C1225.94,316.39,1222.26,314.33,1218.26,313.63z"/>
			<path class="st3" d="M1226.52,338.51c-0.62,0.06-1.05,0.64-0.92,1.25c0.15,0.71,0.46,1.59,1.11,2.41
				c1.48,1.86,3.71,2.17,4.88,2.19c0.44,0.01,0.87-0.18,1.14-0.53c1.88-2.39,4.6-4.26,7.66-5.82c0.47-0.24,0.25-0.95-0.27-0.89
				C1235.6,337.58,1231.06,338.05,1226.52,338.51z"/>
			<path class="st0" d="M1225.73,322.97c0.27,2.49-2.98,3.69-3.62,0.94c-0.45-1.33,0.57-2.88,1.92-2.99
				C1224.86,321.33,1225.91,321.9,1225.73,322.97z"/>
		</g>
		<g>
			<path class="st2" d="M1245.39,314.6c1.99,4.55,1.73,11.65,1.82,15.54c-0.08,1.17-0.94,2.64-2.01,3.08
				c-1.13,0.56-2.31,0.68-3.44,0.31c-0.51-0.17-1.05-0.24-1.58-0.33c-2.73-0.49-3.97-4.19-4.7-6.55c-0.36-1.66-0.97-4.21-1.22-6.81
				C1237.71,317.36,1241.39,315.3,1245.39,314.6z"/>
			<path class="st0" d="M1237.92,323.93c-0.27,2.49,2.98,3.69,3.62,0.94c0.45-1.33-0.57-2.88-1.92-2.99
				C1238.79,322.29,1237.74,322.87,1237.92,323.93z"/>
		</g>
	</g>
</g>
</svg>
