<?xml version="1.0" encoding="UTF-8"?>
<svg id="Layer_1" data-name="Layer 1" xmlns="http://www.w3.org/2000/svg" version="1.1" viewBox="0 0 172.61 118.61">
  <defs>
    <style>
      .cls-1 {
        fill: #231f20;
      }

      .cls-1, .cls-2 {
        stroke-width: 0px;
      }

      .cls-2 {
        fill: #206835;
      }
    </style>
  </defs>
  <g>
    <path class="cls-2" d="M19.28,45.79c-1.97,7.21-3.97,14.58-3.56,22.04s3.63,15.19,10,19.11c2.5,1.54,5.35,2.43,8.16,3.3,13.53,4.18,27.87,8.39,41.62,5.03,3.58-.88,7.04-2.25,10.66-2.91,15.9-2.87,31.79,8.44,47.72,5.75,5.41-.91,10.54-3.47,14.52-7.25,7.69-7.3,9.8-21.52,1.34-27.91-4.47-3.38-10.47-3.69-16.07-3.71-11.33-.03-22.66.62-33.92,1.96-8.57,1.02-18.26,2.13-24.92-3.35-6.65-5.47-8.74-16.47-17.05-18.74-3.02-.82-6.22-.22-9.35-.35-6.96-.3-13.6-4.63-16.7-10.87-1.44-2.91-2.84-6.72-6.07-6.99-1.73-.14-3.35.9-4.58,2.13-6.24,6.22-5.45,16.36-4.21,25.08"/>
    <path class="cls-2" d="M16.87,45.13c-2.02,7.37-4.08,14.99-3.65,22.71.34,6.18,2.34,12.3,6.36,17.08,4.59,5.46,11.61,7.16,18.17,9.12,7.34,2.19,14.8,4.11,22.45,4.75,3.72.31,7.45.26,11.15-.23s7.21-1.55,10.78-2.61c3.19-.95,6.34-1.57,9.68-1.55s6.33.49,9.44,1.16c12.86,2.77,26.17,8.57,39.21,3.27,5.76-2.34,10.95-6.3,14-11.79,2.62-4.73,3.8-10.28,2.92-15.64s-4.37-10.14-9.45-12.38c-6.41-2.83-13.83-2.36-20.67-2.22-7.88.16-15.75.65-23.59,1.47-6.33.66-12.93,1.98-19.29.97-2.79-.44-5.55-1.37-7.78-3.15-1.91-1.52-3.35-3.53-4.67-5.55-2.76-4.24-5.15-8.95-9.4-11.92-2.62-1.84-5.76-2.45-8.91-2.43s-6.37.29-9.54-.74c-2.61-.85-5-2.35-6.94-4.29s-3.12-4.37-4.38-6.87-2.99-4.98-5.82-5.69c-3.52-.88-6.73,1.4-8.82,4.03-3.89,4.88-4.8,11.19-4.56,17.26.11,2.98.5,5.95.91,8.91.19,1.34,1.89,2.07,3.08,1.75,1.44-.4,1.93-1.73,1.75-3.08-.75-5.36-1.4-11.13.07-16.43.65-2.33,1.76-4.51,3.5-6.23.73-.73,1.87-1.55,2.75-1.39.73.13,1.37.86,1.88,1.66,1.42,2.23,2.24,4.75,3.82,6.89,1.71,2.33,3.8,4.3,6.23,5.85s5.22,2.66,8.06,3.13c3.39.56,6.76-.07,10.13.31,4.63.52,7.29,4.47,9.65,8.24,2.71,4.32,5.34,8.83,9.74,11.64,5.05,3.23,11.35,3.66,17.18,3.31,6.92-.41,13.79-1.5,20.71-1.99,7.27-.52,14.59-.79,21.88-.69,5.31.07,11.44.53,15.13,4.87,2.67,3.14,3.16,7.81,2.36,11.81-.99,4.91-3.62,9.22-7.59,12.28-4.76,3.66-10.59,5.4-16.56,5.31s-12.07-1.81-17.94-3.38-12.17-3.22-18.45-3.26c-3.36-.02-6.68.5-9.91,1.41-3.43.96-6.77,2.14-10.3,2.71-6.8,1.1-13.85.3-20.54-1.14s-13.75-3.37-20.31-5.78c-5.32-1.95-9.11-5.92-11.01-11.26-2.15-6.03-1.82-12.46-.59-18.65.69-3.45,1.61-6.84,2.54-10.22.85-3.11-3.97-4.43-4.82-1.33h0Z"/>
  </g>
  <path class="cls-1" d="M-97.79,42.43v-3.86c0-.64-.28-1.31-.73-1.77s-1.15-.76-1.77-.73-1.32.24-1.77.73-.73,1.09-.73,1.77v3.86c0,.64.28,1.31.73,1.77s1.15.76,1.77.73,1.32-.24,1.77-.73.73-1.09.73-1.77h0Z"/>
</svg>