<?xml version="1.0" encoding="UTF-8"?>
<svg id="Layer_2" data-name="Layer 2" xmlns="http://www.w3.org/2000/svg" viewBox="0 0 70.4 296.2">
  <defs>
    <style>
      .cls-1, .cls-2 {
        opacity: .5;
      }

      .cls-2 {
        isolation: isolate;
      }

      .cls-2, .cls-3, .cls-4 {
        stroke-width: 0px;
      }

      .cls-2, .cls-4 {
        fill: #fff;
      }

      .cls-5 {
        fill: none;
        stroke: #000;
        stroke-miterlimit: 10;
        stroke-width: .35px;
      }

      .cls-3 {
        fill: #0e99d6;
      }
    </style>
  </defs>
  <g id="Layer_1-2" data-name="Layer 1">
    <g>
      <path class="cls-3" d="M59.3,113.4v-55.7h-4.1v-17.6h-3c-2.2-5.9-6.8-10.4-12.6-12v-7.6h-3.1V2.6h0l-.7-1.3-.7-1.3-.7,1.3-.7,1.3v17.9h-3.1v7.6c-5.8,1.6-10.4,6.1-12.6,12h-3v17.6h-4.1v55.7H0v182.8h70.4V113.4h-11.1Z"/>
      <circle class="cls-4" cx="35.1" cy="89.1" r="16.6"/>
      <line class="cls-5" x1="35.1" y1="89.1" x2="35.1" y2="77.9"/>
      <line class="cls-5" x1="35.1" y1="89.1" x2="42.2" y2="89.1"/>
      <rect class="cls-2" x="20.2" y="118.9" width="6.3" height="20.4"/>
      <rect class="cls-2" x="28.1" y="118.9" width="6.3" height="20.4"/>
      <rect class="cls-2" x="36" y="118.9" width="6.3" height="20.4"/>
      <rect class="cls-2" x="44" y="118.9" width="6.3" height="20.4"/>
      <rect class="cls-2" x="62.6" y="130.5" width="3.5" height="29.4"/>
      <g class="cls-1">
        <g>
          <rect class="cls-4" x="20.2" y="140.7" width="6.3" height="20.4"/>
          <rect class="cls-4" x="28.1" y="140.7" width="6.3" height="20.4"/>
          <rect class="cls-4" x="36" y="140.7" width="6.3" height="20.4"/>
          <rect class="cls-4" x="44" y="140.7" width="6.3" height="20.4"/>
        </g>
      </g>
      <g class="cls-1">
        <g>
          <rect class="cls-4" x="20.2" y="162.6" width="6.3" height="20.4"/>
          <rect class="cls-4" x="28.1" y="162.6" width="6.3" height="20.4"/>
          <rect class="cls-4" x="36" y="162.6" width="6.3" height="20.4"/>
          <rect class="cls-4" x="44" y="162.6" width="6.3" height="20.4"/>
        </g>
      </g>
      <g class="cls-1">
        <g>
          <rect class="cls-4" x="20.2" y="184.5" width="6.3" height="20.4"/>
          <rect class="cls-4" x="28.1" y="184.5" width="6.3" height="20.4"/>
          <rect class="cls-4" x="36" y="184.5" width="6.3" height="20.4"/>
          <rect class="cls-4" x="44" y="184.5" width="6.3" height="20.4"/>
        </g>
      </g>
      <rect class="cls-2" x="20.2" y="206.1" width="6.3" height="20.4"/>
      <rect class="cls-2" x="28.1" y="206.1" width="6.3" height="20.4"/>
      <rect class="cls-2" x="36" y="206.1" width="6.3" height="20.4"/>
      <rect class="cls-2" x="44" y="206.1" width="6.3" height="20.4"/>
      <g class="cls-1">
        <g>
          <rect class="cls-4" x="20.2" y="228" width="6.3" height="20.4"/>
          <rect class="cls-4" x="28.1" y="228" width="6.3" height="20.4"/>
          <rect class="cls-4" x="36" y="228" width="6.3" height="20.4"/>
          <rect class="cls-4" x="44" y="228" width="6.3" height="20.4"/>
        </g>
      </g>
      <g class="cls-1">
        <g>
          <rect class="cls-4" x="20.2" y="249.8" width="6.3" height="20.4"/>
          <rect class="cls-4" x="28.1" y="249.8" width="6.3" height="20.4"/>
          <rect class="cls-4" x="36" y="249.8" width="6.3" height="20.4"/>
          <rect class="cls-4" x="44" y="249.8" width="6.3" height="20.4"/>
        </g>
      </g>
      <g class="cls-1">
        <g>
          <rect class="cls-4" x="20.2" y="271.7" width="6.3" height="20.4"/>
          <rect class="cls-4" x="28.1" y="271.7" width="6.3" height="20.4"/>
          <rect class="cls-4" x="36" y="271.7" width="6.3" height="20.4"/>
          <rect class="cls-4" x="44" y="271.7" width="6.3" height="20.4"/>
        </g>
      </g>
      <rect class="cls-2" x="62.6" y="118.9" width="3.5" height="8.7"/>
      <rect class="cls-2" x="62.6" y="174.6" width="3.5" height="29.4"/>
      <rect class="cls-2" x="62.6" y="162.9" width="3.5" height="8.7"/>
      <rect class="cls-2" x="62.6" y="218.6" width="3.5" height="29.4"/>
      <rect class="cls-2" x="62.6" y="207" width="3.5" height="8.7"/>
      <rect class="cls-2" x="62.6" y="262.7" width="3.5" height="29.4"/>
      <rect class="cls-2" x="62.6" y="251" width="3.5" height="8.7"/>
      <rect class="cls-2" x="3.7" y="130.5" width="3.5" height="29.4"/>
      <rect class="cls-2" x="3.7" y="118.9" width="3.5" height="8.7"/>
      <rect class="cls-2" x="3.7" y="174.6" width="3.5" height="29.4"/>
      <rect class="cls-2" x="3.7" y="162.9" width="3.5" height="8.7"/>
      <rect class="cls-2" x="3.7" y="218.6" width="3.5" height="29.4"/>
      <rect class="cls-2" x="3.7" y="207" width="3.5" height="8.7"/>
      <rect class="cls-2" x="3.7" y="262.7" width="3.5" height="29.4"/>
      <rect class="cls-2" x="3.7" y="251" width="3.5" height="8.7"/>
    </g>
  </g>
</svg>