<?xml version="1.0" encoding="UTF-8"?>
<svg id="Layer_2" data-name="Layer 2" xmlns="http://www.w3.org/2000/svg" viewBox="0 0 186.4 265">
  <defs>
    <style>
      .cls-1 {
        fill: #c74473;
      }

      .cls-1, .cls-2, .cls-3, .cls-4 {
        stroke-width: 0px;
      }

      .cls-5, .cls-2 {
        opacity: .5;
      }

      .cls-2 {
        isolation: isolate;
      }

      .cls-2, .cls-3 {
        fill: #fff;
      }

      .cls-4 {
        fill: #9e1c46;
      }
    </style>
  </defs>
  <g id="Layer_1-2" data-name="Layer 1">
    <g>
      <path class="cls-1" d="M178.4,0h-105.3v77.4H18.1v56.3H0v131.3h186.4V8c.1-4.5-3.5-8-8-8Z"/>
      <g class="cls-5">
        <rect class="cls-3" x="79.1" y="11" width="14.1" height="14.1"/>
        <rect class="cls-3" x="96.6" y="11" width="14.1" height="14.1"/>
        <rect class="cls-3" x="114.1" y="11" width="14.1" height="14.1"/>
        <rect class="cls-3" x="131.6" y="11" width="14.1" height="14.1"/>
        <rect class="cls-3" x="149.1" y="11" width="14.1" height="14.1"/>
        <rect class="cls-3" x="166.6" y="11" width="14.1" height="14.1"/>
      </g>
      <g class="cls-5">
        <rect class="cls-3" x="79.1" y="29" width="14.1" height="14.1"/>
        <rect class="cls-3" x="96.6" y="29" width="14.1" height="14.1"/>
        <rect class="cls-3" x="114.1" y="29" width="14.1" height="14.1"/>
        <rect class="cls-3" x="131.6" y="29" width="14.1" height="14.1"/>
        <rect class="cls-3" x="149.1" y="29" width="14.1" height="14.1"/>
        <rect class="cls-3" x="166.6" y="29" width="14.1" height="14.1"/>
      </g>
      <g class="cls-5">
        <rect class="cls-3" x="79.1" y="47.1" width="14.1" height="14.1"/>
        <rect class="cls-3" x="96.6" y="47.1" width="14.1" height="14.1"/>
        <rect class="cls-3" x="114.1" y="47.1" width="14.1" height="14.1"/>
        <rect class="cls-3" x="131.6" y="47.1" width="14.1" height="14.1"/>
        <rect class="cls-3" x="149.1" y="47.1" width="14.1" height="14.1"/>
        <rect class="cls-3" x="166.6" y="47.1" width="14.1" height="14.1"/>
      </g>
      <g class="cls-5">
        <rect class="cls-3" x="79.1" y="65.1" width="14.1" height="14.1"/>
        <rect class="cls-3" x="96.6" y="65.1" width="14.1" height="14.1"/>
        <rect class="cls-3" x="114.1" y="65.1" width="14.1" height="14.1"/>
        <rect class="cls-3" x="131.6" y="65.1" width="14.1" height="14.1"/>
        <rect class="cls-3" x="149.1" y="65.1" width="14.1" height="14.1"/>
        <rect class="cls-3" x="166.6" y="65.1" width="14.1" height="14.1"/>
      </g>
      <g class="cls-5">
        <rect class="cls-3" x="79.1" y="83.1" width="14.1" height="14.1"/>
        <rect class="cls-3" x="96.6" y="83.1" width="14.1" height="14.1"/>
        <rect class="cls-3" x="114.1" y="83.1" width="14.1" height="14.1"/>
        <rect class="cls-3" x="131.6" y="83.1" width="14.1" height="14.1"/>
        <rect class="cls-3" x="149.1" y="83.1" width="14.1" height="14.1"/>
        <rect class="cls-3" x="166.6" y="83.1" width="14.1" height="14.1"/>
      </g>
      <rect class="cls-2" x="21.5" y="83.1" width="14.1" height="14.1"/>
      <rect class="cls-2" x="39" y="83.1" width="14.1" height="14.1"/>
      <rect class="cls-2" x="56.5" y="83.1" width="14.1" height="14.1"/>
      <rect class="cls-2" x="21.5" y="101.2" width="14.1" height="14.1"/>
      <rect class="cls-2" x="39" y="101.2" width="14.1" height="14.1"/>
      <rect class="cls-2" x="56.5" y="101.2" width="14.1" height="14.1"/>
      <rect class="cls-2" x="21.5" y="119.2" width="14.1" height="14.1"/>
      <rect class="cls-2" x="39" y="119.2" width="14.1" height="14.1"/>
      <rect class="cls-2" x="56.5" y="119.2" width="14.1" height="14.1"/>
      <rect class="cls-2" x="4" y="137.2" width="14.1" height="14.1"/>
      <rect class="cls-2" x="21.5" y="137.2" width="14.1" height="14.1"/>
      <rect class="cls-2" x="39" y="137.2" width="14.1" height="14.1"/>
      <rect class="cls-2" x="56.5" y="137.2" width="14.1" height="14.1"/>
      <rect class="cls-2" x="4" y="155.3" width="14.1" height="14.1"/>
      <rect class="cls-2" x="21.5" y="155.3" width="14.1" height="14.1"/>
      <rect class="cls-2" x="39" y="155.3" width="14.1" height="14.1"/>
      <rect class="cls-2" x="56.5" y="155.3" width="14.1" height="14.1"/>
      <rect class="cls-2" x="4" y="173.3" width="14.1" height="14.1"/>
      <rect class="cls-2" x="21.5" y="173.3" width="14.1" height="14.1"/>
      <rect class="cls-2" x="39" y="173.3" width="14.1" height="14.1"/>
      <rect class="cls-2" x="56.5" y="173.3" width="14.1" height="14.1"/>
      <rect class="cls-2" x="4" y="191.3" width="14.1" height="14.1"/>
      <rect class="cls-2" x="21.5" y="191.3" width="14.1" height="14.1"/>
      <rect class="cls-2" x="39" y="191.3" width="14.1" height="14.1"/>
      <rect class="cls-2" x="56.5" y="191.3" width="14.1" height="14.1"/>
      <rect class="cls-2" x="4" y="209.4" width="14.1" height="14.1"/>
      <rect class="cls-2" x="21.5" y="209.4" width="14.1" height="14.1"/>
      <rect class="cls-2" x="39" y="209.4" width="14.1" height="14.1"/>
      <rect class="cls-2" x="56.5" y="209.4" width="14.1" height="14.1"/>
      <rect class="cls-2" x="4" y="227.4" width="14.1" height="14.1"/>
      <rect class="cls-2" x="21.5" y="227.4" width="14.1" height="14.1"/>
      <rect class="cls-2" x="39" y="227.4" width="14.1" height="14.1"/>
      <rect class="cls-2" x="56.5" y="227.4" width="14.1" height="14.1"/>
      <rect class="cls-2" x="4" y="245.4" width="14.1" height="14.1"/>
      <rect class="cls-2" x="21.5" y="245.4" width="14.1" height="14.1"/>
      <rect class="cls-2" x="39" y="245.4" width="14.1" height="14.1"/>
      <rect class="cls-2" x="56.5" y="245.4" width="14.1" height="14.1"/>
      <g class="cls-5">
        <rect class="cls-3" x="79.1" y="101.2" width="14.1" height="14.1"/>
        <rect class="cls-3" x="96.6" y="101.2" width="14.1" height="14.1"/>
        <rect class="cls-3" x="114.1" y="101.2" width="14.1" height="14.1"/>
        <rect class="cls-3" x="131.6" y="101.2" width="14.1" height="14.1"/>
        <rect class="cls-3" x="149.1" y="101.2" width="14.1" height="14.1"/>
        <rect class="cls-3" x="166.6" y="101.2" width="14.1" height="14.1"/>
      </g>
      <g class="cls-5">
        <rect class="cls-3" x="79.1" y="119.2" width="14.1" height="14.1"/>
        <rect class="cls-3" x="96.6" y="119.2" width="14.1" height="14.1"/>
        <rect class="cls-3" x="114.1" y="119.2" width="14.1" height="14.1"/>
        <rect class="cls-3" x="131.6" y="119.2" width="14.1" height="14.1"/>
        <rect class="cls-3" x="149.1" y="119.2" width="14.1" height="14.1"/>
        <rect class="cls-3" x="166.6" y="119.2" width="14.1" height="14.1"/>
      </g>
      <g class="cls-5">
        <rect class="cls-3" x="79.1" y="137.2" width="14.1" height="14.1"/>
        <rect class="cls-3" x="96.6" y="137.2" width="14.1" height="14.1"/>
        <rect class="cls-3" x="114.1" y="137.2" width="14.1" height="14.1"/>
        <rect class="cls-3" x="131.6" y="137.2" width="14.1" height="14.1"/>
        <rect class="cls-3" x="149.1" y="137.2" width="14.1" height="14.1"/>
        <rect class="cls-3" x="166.6" y="137.2" width="14.1" height="14.1"/>
      </g>
      <g class="cls-5">
        <rect class="cls-3" x="79.1" y="155.3" width="14.1" height="14.1"/>
        <rect class="cls-3" x="96.6" y="155.3" width="14.1" height="14.1"/>
        <rect class="cls-3" x="114.1" y="155.3" width="14.1" height="14.1"/>
        <rect class="cls-3" x="131.6" y="155.3" width="14.1" height="14.1"/>
        <rect class="cls-3" x="149.1" y="155.3" width="14.1" height="14.1"/>
        <rect class="cls-3" x="166.6" y="155.3" width="14.1" height="14.1"/>
      </g>
      <g class="cls-5">
        <rect class="cls-3" x="79.1" y="173.3" width="14.1" height="14.1"/>
        <rect class="cls-3" x="96.6" y="173.3" width="14.1" height="14.1"/>
        <rect class="cls-3" x="114.1" y="173.3" width="14.1" height="14.1"/>
        <rect class="cls-3" x="131.6" y="173.3" width="14.1" height="14.1"/>
        <rect class="cls-3" x="149.1" y="173.3" width="14.1" height="14.1"/>
        <rect class="cls-3" x="166.6" y="173.3" width="14.1" height="14.1"/>
      </g>
      <rect class="cls-2" x="79.1" y="191.3" width="14.1" height="14.1"/>
      <rect class="cls-2" x="96.6" y="191.3" width="14.1" height="14.1"/>
      <rect class="cls-4" x="114.1" y="191.3" width="17.5" height="73.6"/>
      <rect class="cls-4" x="131.6" y="191.3" width="14.1" height="73.6"/>
      <rect class="cls-2" x="149.1" y="191.3" width="14.1" height="14.1"/>
      <rect class="cls-2" x="166.6" y="191.3" width="14.1" height="14.1"/>
      <rect class="cls-2" x="79.1" y="209.4" width="14.1" height="14.1"/>
      <rect class="cls-2" x="96.6" y="209.4" width="14.1" height="14.1"/>
      <rect class="cls-2" x="149.1" y="209.4" width="14.1" height="14.1"/>
      <rect class="cls-2" x="166.6" y="209.4" width="14.1" height="14.1"/>
      <rect class="cls-2" x="79.1" y="227.4" width="14.1" height="14.1"/>
      <rect class="cls-2" x="96.6" y="227.4" width="14.1" height="14.1"/>
      <rect class="cls-2" x="149.1" y="227.4" width="14.1" height="14.1"/>
      <rect class="cls-2" x="166.6" y="227.4" width="14.1" height="14.1"/>
      <rect class="cls-2" x="79.1" y="245.4" width="14.1" height="14.1"/>
      <rect class="cls-2" x="96.6" y="245.4" width="14.1" height="14.1"/>
      <rect class="cls-2" x="149.1" y="245.4" width="14.1" height="14.1"/>
      <rect class="cls-2" x="166.6" y="245.4" width="14.1" height="14.1"/>
    </g>
  </g>
</svg>