<?xml version="1.0" encoding="UTF-8"?>
<svg id="Layer_2" data-name="Layer 2" xmlns="http://www.w3.org/2000/svg" viewBox="0 0 2004.38 629.29">
  <defs>
    <style>
      .cls-1 {
        fill: #ffbf2a;
      }

      .cls-1, .cls-2, .cls-3, .cls-4, .cls-5, .cls-6, .cls-7, .cls-8, .cls-9, .cls-10, .cls-11 {
        stroke-width: 0px;
      }

      .cls-2 {
        fill: #1a1a1a;
      }

      .cls-3 {
        fill: #b3b3b3;
      }

      .cls-4 {
        fill: #666;
      }

      .cls-5 {
        fill: #e6e6e6;
      }

      .cls-6 {
        fill: #adcaec;
      }

      .cls-7 {
        fill: #dc0a33;
      }

      .cls-8 {
        fill: #333;
      }

      .cls-9 {
        fill: #fff;
      }

      .cls-10 {
        fill: #f9254e;
      }

      .cls-11 {
        fill: #fa4b6d;
      }
    </style>
  </defs>
  <g id="Layer_1-2" data-name="Layer 1">
    <g>
      <g>
        <path class="cls-8" d="M1781.88,495.31c-.07,35.61-14.29,69.73-39.52,94.86-25.24,25.12-59.42,39.2-95.03,39.12s-69.73-14.29-94.86-39.52-39.21-59.42-39.13-95.03c.15-74.16,60.39-134.14,134.55-133.99,74.16.16,134.15,60.4,133.99,134.55"/>
        <g>
          <path class="cls-2" d="M299.92,315.03c-23.42-.05-42.31,18.76-42.36,42.18l-.28,131.37c-.05,23.42,18.77,42.31,42.18,42.36l1511.41,3.15c23.42.05,42.31-18.77,42.36-42.18l.28-131.37c.04-23.42-18.77-42.31-42.19-42.36l-1511.41-3.15"/>
          <path class="cls-6" d="M1505.62,18.78l-21.71,12.48,161.71,147.2s.86.52,2.32,1.27c1.47.76,3.55,1.75,5.98,2.69,2.44.94,5.23,1.84,8.13,2.41,1.45.29,2.93.49,4.4.57,1.47.09,2.94.05,4.37-.13,2.86-.37,6.87-1.3,11.26-2.49,4.37-1.18,9.12-2.62,13.53-4.01-5.89-3.64-9.66-6.89-9.66-6.89l-180.33-153.1"/>
          <path class="cls-11" d="M1465.22,1.23c-.68-.02-1.3-.02-1.84,0-1.42.02-2.25.09-2.25.09L844.26.02s-7.67-.38-16.89,2.07c-9.22,2.45-17.79,7.38-17.79,7.38l-32.46,18.84,27.1,5.76-230.59,151.81s-1.04.6-2.86,1.49c-1.83.89-4.45,2.08-7.63,3.27s-6.9,2.37-10.94,3.24c-2.02.44-4.11.8-6.25,1.05s-4.33.39-6.54.37c-4.41-.03-11.57-.59-19.83-1.41-7.25-.73-15.37-1.68-23.2-2.62l-15.79,9.17s-23.81,14.29-37.32,19.37c-13.5,5.08-42.61,10.65-42.61,10.65l-319.65,75.75s-28.12,6.1-47.79,17.4c-19.68,11.31-16.25,20.13-16.25,20.13l-.05,16.98,6.95,11.61-.15,58.94-7.03,11.34-.2,68.38,303.73.64c-.53-5.15-.79-10.32-.78-15.49.17-81.88,66.69-148.12,148.57-147.95,81.88.17,148.11,66.68,147.95,148.56-.01,5.18-.29,10.34-.85,15.49l884.66,1.85c-.53-5.15-.79-10.32-.78-15.49.18-81.88,66.69-148.12,148.57-147.95,81.88.17,148.11,66.68,147.94,148.56-.01,5.18-.29,10.34-.84,15.49l193.04.4.53-252.06s2.25-34.12-19.39-55.86c-21.65-21.73-55.01-18.11-55.01-18.11l-177.85-.37s-13.26,1.79-27.05-3.29c-5.3-1.96-9.63-4.36-13.31-6.64-4.41,1.39-9.16,2.83-13.53,4.01-4.39,1.19-8.4,2.12-11.26,2.49-1.43.18-2.9.21-4.37.13-1.47-.09-2.95-.29-4.4-.57-2.9-.57-5.69-1.47-8.13-2.41-2.43-.95-4.51-1.94-5.98-2.69-1.46-.75-2.32-1.27-2.32-1.27l-161.71-147.21,21.71-12.47-5.73-4.86s-2.96-4.18-14.21-8.9c-7.38-3.1-15.65-3.73-20.46-3.8"/>
          <path class="cls-6" d="M1165.03,34.83l11.26,161.8,438.21.92-162.75-162.13-286.72-.59"/>
          <path class="cls-6" d="M496.37,191.27c7.83.95,15.95,1.9,23.2,2.62,8.26.82,15.42,1.38,19.83,1.41,2.21.02,4.4-.12,6.54-.36,2.14-.25,4.24-.61,6.25-1.05,4.04-.88,7.76-2.06,10.94-3.25,3.18-1.18,5.8-2.37,7.63-3.27,1.83-.89,2.86-1.49,2.86-1.49l230.59-151.81-27.1-5.76-280.75,162.96"/>
          <path class="cls-6" d="M850.84,34.17l-227.42,161.31,483.95,1.01,12.9-161.76-269.44-.56"/>
          <path class="cls-10" d="M1794.75,513.23l209.55.44.08-40.18c.02-11.11-8.9-20.06-20.01-20.09l-196.17-.41c4.87,14.93,7.33,30.53,7.29,46.23-.01,4.69-.28,9.36-.74,14.01"/>
          <path class="cls-7" d="M615.21,510.77c-1.2,12.39-3.91,24.6-8.18,36.33l900.66,1.88c-4.21-11.75-6.87-23.97-8.03-36.36l-884.45-1.85"/>
          <path class="cls-7" d="M320.12,510.15l-320.12-.67s10.98,4.04,15.88,12.57c4.9,8.54,4.09,23.81,4.09,23.81l308.18.64c-4.21-11.75-6.88-23.97-8.03-36.36"/>
          <path class="cls-10" d="M20.17,449.3c-11.11-.02-20.07,8.9-20.09,20.01l-.08,40.18,320.12.67c-.43-4.65-.69-9.33-.68-14.01.04-15.7,2.56-31.29,7.48-46.2l-306.75-.64"/>
          <path class="cls-8" d="M603.02,492.85c-.07,35.61-14.29,69.73-39.53,94.86-25.23,25.12-59.41,39.2-95.03,39.13-35.61-.07-69.73-14.29-94.86-39.53s-39.2-59.41-39.13-95.03c.15-74.16,60.39-134.14,134.55-133.99,74.16.15,134.14,60.39,133.99,134.55"/>
          <path class="cls-3" d="M545.89,492.72c-.04,20.46-8.21,40.07-22.71,54.5-14.5,14.44-34.14,22.53-54.6,22.48s-40.07-8.21-54.5-22.71c-14.44-14.5-22.53-34.14-22.48-54.6s8.21-40.07,22.71-54.5,34.14-22.53,54.6-22.48c42.61.09,77.08,34.7,76.99,77.31"/>
          <path class="cls-5" d="M412.72,492.43c-.07,30.74,24.96,56.06,55.89,56.13,30.94.07,56.09-24.96,56.14-55.89.06-30.93-24.98-56.04-56.2-55.83-31.23.2-55.76,24.86-55.83,55.6"/>
          <path class="cls-4" d="M465.32,433.69l-3.45,5.95,3.43,5.97,6.88.02,3.45-5.96-3.43-5.96-6.88-.02ZM427.03,448.58l-4.88,4.86,1.77,6.65,6.65,1.8,4.88-4.86-1.77-6.65-6.64-1.8ZM507.13,450.24l-6.64,1.77-1.8,6.64,4.86,4.88,6.65-1.77,1.8-6.64-4.87-4.88ZM413.46,485.74l-5.97,3.43-.02,6.88,5.96,3.45,5.96-3.43v-6.88s-5.93-3.45-5.93-3.45ZM519.07,485.96l-5.97,3.43-.02,6.88,5.96,3.45,5.96-3.43.02-6.88-5.95-3.45ZM501.56,523.41l-4.89,4.86,1.77,6.66,6.65,1.8,4.88-4.86-1.77-6.66-6.63-1.8ZM432.3,524.75l-6.65,1.77-1.79,6.65,4.86,4.88,6.64-1.77,1.8-6.65-4.86-4.88ZM465.09,539.31l-3.45,5.94,3.43,5.97,6.88.02,3.45-5.96-3.43-5.96h-6.88"/>
          <path class="cls-3" d="M453.46,492.53c-.02,8.44,6.81,15.3,15.25,15.31,8.44.02,15.3-6.81,15.32-15.25.01-8.44-6.82-15.29-15.34-15.23-8.52.04-15.21,6.84-15.23,15.17"/>
          <path class="cls-3" d="M1724.76,495.19c-.05,20.46-8.21,40.07-22.71,54.5s-34.14,22.53-54.6,22.48c-20.46-.04-40.07-8.21-54.51-22.71-14.43-14.5-22.52-34.14-22.48-54.6s8.21-40.07,22.71-54.51c14.5-14.44,34.14-22.52,54.6-22.48,42.61.09,77.08,34.7,76.99,77.31"/>
          <path class="cls-5" d="M1591.59,494.89c-.07,30.74,24.96,56.06,55.89,56.12,30.94.07,56.08-24.96,56.14-55.89.06-30.93-24.98-56.04-56.2-55.83-31.23.21-55.76,24.86-55.83,55.6"/>
          <path class="cls-3" d="M1632.32,494.99c-.02,8.44,6.81,15.3,15.25,15.32,8.44.02,15.3-6.81,15.32-15.25.01-8.44-6.82-15.29-15.34-15.23-8.51.04-15.21,6.84-15.23,15.16"/>
          <path class="cls-8" d="M687.25,133.07c-13.23-.03-35.29,19.62-35.29,19.62l-48.88,42.75,20.34.04,13.67-11.25c.86.14,8.98.34,10.06.34l53.14.11c18.09.04,23.75-3.05,23.8-25.19.05-22.13-3.82-26.35-21.91-26.39l-14.93-.03"/>
          <path class="cls-9" d="M42.3,379.59l-18.38-.04s-.05.01-.08.01l-.11,44.89s.06.02.1.02l18.38.04.09-44.92"/>
          <path class="cls-1" d="M42.3,379.59l-.09,44.92,7.24.02c1.3,0,2.54-.26,3.66-.73s2.14-1.16,2.99-2,1.54-1.86,2.02-2.98.74-2.36.74-3.66l.05-26.14c0-1.3-.26-2.54-.73-3.66-.47-1.13-1.16-2.14-2-2.99-.85-.85-1.86-1.54-2.98-2.02-1.12-.47-2.36-.74-3.66-.74h-7.24"/>
          <path class="cls-7" d="M23.87,372.33l-.02,7.23s.05-.01.08-.01l25.62.05c1.3,0,2.54.27,3.66.74,1.12.48,2.13,1.17,2.98,2.02.85.85,1.53,1.86,2,2.99.47,1.12.73,2.36.73,3.66l-.05,26.14c0,1.3-.27,2.54-.74,3.66s-1.16,2.13-2.02,2.98-1.86,1.54-2.99,2c-1.12.47-2.36.73-3.66.73l-25.62-.05s-.06-.02-.1-.02l-.02,6.82,37.57.02,6.54-5.24.1-48.91-6.51-4.72-37.55-.08"/>
          <path class="cls-1" d="M1988.1,318.28l-24.73,42.64-.15,70.54,24.64.05.24-113.23"/>
          <path class="cls-8" d="M934.4,295.88c-4.73-.01-8.55,3.79-8.56,8.52s3.79,8.55,8.52,8.56l57.38.12c4.73,0,8.55-3.79,8.56-8.53,0-4.73-3.79-8.55-8.52-8.56l-57.39-.11"/>
          <path class="cls-8" d="M1430.4,296.91c-4.73,0-8.54,3.79-8.55,8.52,0,4.73,3.79,8.55,8.52,8.56l57.39.12c4.73.01,8.55-3.79,8.55-8.52.02-4.73-3.79-8.55-8.52-8.56l-57.39-.12"/>
          <path class="cls-7" d="M1120.27,34.73l44.76.1,11.26,161.8-68.92-.14,12.9-161.76"/>
          <path class="cls-10" d="M850.84,34.17l269.44.56s-11.05,17.32-45.91,17.25l-219.73-.46s-70.59,50.27-94.77,68.07c-24.18,17.8-46.74,11.85-46.74,11.85l137.7-97.27"/>
          <path class="cls-8" d="M804.22,34.07l-27.1-5.76,9.38-5.39,17.81,3.5s4.48,1.2,3.84,3.6c-.65,2.4-3.92,4.05-3.92,4.05"/>
          <path class="cls-10" d="M1165.03,34.83l286.72.59,162.75,162.13s-38.34-11.82-62.94-36.52l-110.32-110.78-249.67-.52s-10.32-.63-17.09-4.63c-6.78-4-9.45-10.27-9.45-10.27"/>
          <path class="cls-8" d="M496.37,191.27l45.85,4.12s11.6-1.06,19.94-4.3c8.34-3.25,9.12-3.91,9.12-3.91l-15.05,8.65s-10.72,5.98-30.87,3.37c-20.15-2.6-35.35-4.34-35.35-4.34l6.36-3.59"/>
          <path class="cls-10" d="M1717.18,214.98c-.5,0-.99.19-1.35.55s-.56.85-.56,1.35c-.01.51.19,1,.55,1.36.36.36.85.56,1.35.56l251.42.53c.51,0,.99-.2,1.35-.56.36-.36.57-.85.57-1.35s-.2-1-.56-1.36c-.36-.36-.84-.56-1.35-.56l-251.42-.52ZM580.54,214.57c-.49.01-.96.21-1.3.56l-31.55,31.42-.16,78.08c0,.51.2.99.56,1.35s.84.57,1.35.57,1-.2,1.36-.56.56-.85.56-1.35l.16-76.5,30.42-30.3c.36-.35.57-.84.57-1.35s-.2-1-.56-1.36-.88-.57-1.4-.56ZM1616.04,227.06c-.51,0-.99.2-1.35.56s-.56.85-.57,1.35l-.17,81.99c0,1.06.86,1.91,1.91,1.91s1.91-.85,1.92-1.9l.17-81.99c0-.51-.2-.99-.56-1.35-.35-.36-.84-.57-1.35-.57ZM1104.24,227.26c-.51,0-.99.2-1.35.56-.36.35-.57.84-.57,1.35l-.19,93.83-434.58-.9c-.51,0-1,.2-1.36.56-.36.35-.56.84-.56,1.35s.2.99.56,1.35c.36.36.84.56,1.35.56l434.57.91-.17,83.01c0,.51.2,1,.55,1.36.36.36.85.56,1.36.56s.99-.2,1.35-.55c.36-.36.56-.85.56-1.36l.18-83.01,65.73.14-.17,83.98c-.01.51.2,1,.55,1.36.36.36.85.56,1.36.56s.99-.2,1.35-.56c.36-.36.56-.84.56-1.35l.18-83.98,295.48.62c.51,0,.99-.2,1.35-.56.36-.35.57-.84.57-1.35s-.2-.99-.56-1.35-.85-.56-1.35-.57l-295.48-.61.19-91.9c0-.51-.2-1-.56-1.36s-.84-.56-1.35-.56-1,.2-1.36.56c-.36.35-.56.84-.56,1.35l-.19,91.9-65.74-.14.2-93.83c0-.51-.2-1-.56-1.36-.36-.36-.84-.56-1.35-.56ZM467.41,235.6c-.12,0-.23.02-.35.04L59.06,330.37c-1.02.25-1.66,1.27-1.43,2.3.24,1.02,1.27,1.66,2.29,1.43l408-94.73c1.03-.24,1.67-1.27,1.43-2.29-.21-.9-1.03-1.53-1.95-1.48"/>
        </g>
      </g>
      <path class="cls-4" d="M1646.67,436.39l-3.45,5.95,3.43,5.97,6.88.02,3.45-5.96-3.43-5.96-6.88-.02ZM1608.38,451.28l-4.87,4.86,1.77,6.65,6.64,1.8,4.88-4.86-1.77-6.65-6.65-1.8ZM1688.49,452.92l-6.64,1.77-1.8,6.64,4.86,4.88,6.65-1.77,1.8-6.64-4.87-4.88ZM1594.82,488.43l-5.97,3.43-.02,6.88,5.96,3.45,5.96-3.43v-6.88s-5.93-3.45-5.93-3.45ZM1700.43,488.66l-5.97,3.43v6.88s5.94,3.45,5.94,3.45l5.96-3.43.02-6.88-5.95-3.45ZM1682.92,526.1l-4.89,4.86,1.77,6.65,6.64,1.8,4.88-4.86-1.77-6.66-6.63-1.8ZM1613.66,527.44l-6.65,1.77-1.79,6.65,4.86,4.88,6.64-1.77,1.8-6.65-4.86-4.88ZM1646.45,542l-3.45,5.95,3.43,5.97h6.87s3.46-5.95,3.46-5.95l-3.43-5.96-6.88-.02"/>
    </g>
  </g>
</svg>