<?xml version="1.0" encoding="utf-8"?>
<!-- Generator: Adobe Illustrator 28.5.0, SVG Export Plug-In . SVG Version: 9.03 Build 54727)  -->
<svg version="1.1" id="_x32_" xmlns="http://www.w3.org/2000/svg" xmlns:xlink="http://www.w3.org/1999/xlink" x="0px" y="0px"
	 viewBox="0 0 800 800" style="enable-background:new 0 0 800 800;" xml:space="preserve">
<g>
	<path d="M10.4,363.6c6.6,24.9,29.9,43.1,74.6,48.1c278,177.5-229.6,353.1,54.7,326.7c8.2-3.6,113.5-172.4,127-165.8
		c0,0,42.2,0,42.2,0c17.2-5.6,48,113.2,54.6,121.5c3.1,14.2-13.8,39.6-9.9,54.3c0,0,61.4,0,61.4,0c53.8-75.3-43.9-164.6,2.7-175.8
		c68.7,3.7,101-21.6,141.2,50.9c9.2,14.2-35.3,84-49.5,86.7c-5.1,0.7-28.6-3.8-28,5.6c0,0,0,35.2,0,35.2c-2.9,12.1,72,2.9,76.3,5.6
		c2.4-8.8,108.3-119.8,96.4-128.8c-33.3-66.5-11.2-77.1,42.2-31.6c6.9-0.1,30.2,98.2,33.2,102.9c4.8,11.4-14.8,23.9-20,31.5
		c-5.3,4.5,11,29.3,12,34.1c4.1,14.3,66.8-41.4,72.3-41.1c16.7-7.7-18.3-132-18.7-144.3c-93.7-110-3.7-93.1-76.5-252
		c46.9-58.1,21-131.5,35.3-197.5c4.3-19,11.9-38.1,26.5-58.7c18.9-25.8-22.2-55.6-40.6-28.8c-18.4,25.9-28.9,51.9-34.4,76.6
		c-15.5,57.7,6.9,116.8-19.8,168.6c-50.6-101-488,102.3-466.1-69.9c-16.2-39.7-69.2-134.7-89.5-8.3c-44.4,4.3-65.7,63.7-97.8,96.2
		C-4.6,315.6-2.9,348.7,10.4,363.6z"/>
</g>
</svg>