<?xml version="1.0" encoding="UTF-8"?>
<svg id="Layer_2" data-name="Layer 2" xmlns="http://www.w3.org/2000/svg" viewBox="0 0 1232.85 337.63">
  <defs>
    <style>
      .cls-1 {
        fill: #a7a7a7;
        stroke-width: 0px;
      }
    </style>
  </defs>
  <g id="svg2">
    <g id="g102">
      <path id="path104" class="cls-1" d="M1232.85,221.83c-32.89,38.36-122,65.84-226.75,65.84-68.22,0-129.8-11.65-173.55-30.38-.69,23.68-20.12,42.68-43.98,42.68-17.53,0-32.66-10.24-39.74-25.08-16.93,37.01-54.25,62.74-97.58,62.74-37.25,0-70.04-18.98-89.28-47.78-14.93,21.23-39.59,35.13-67.53,35.13-45.57,0-82.53-36.96-82.53-82.53,0-.35.04-.7.04-1.06-13.31,27.39-41.41,46.28-73.91,46.28-15.83,0-30.59-4.48-43.12-12.23-41.78,13.53-102.06,22.03-169.09,22.03-46.49,0-89.75-4.1-125.84-11.12.64-22.23,50.25-41.86,125.97-53.8-.07-.73-.13-1.47-.13-2.2,0-17.12,18.91-30.97,42.31-31.1,2.92-12.43,8.36-23.9,15.75-33.82,16.8-22.58,43.67-37.19,73.98-37.19,13.06,0,25.47,2.72,36.73,7.62,2.53,1.09,5.03,2.32,7.45,3.64,13.92-8.97,30.3-14.49,47.9-15.22,1.39-.08,2.79-.11,4.2-.11.27,0,.57.02.84.02-.55-3.67-.84-7.43-.84-11.26,0-39.51,30.74-71.53,68.64-71.53,3.89,0,7.69.33,11.37.99,0,0,.02-.02.04,0,6.2,1.09,12.1,3.03,17.61,5.7,1.01-2.22,2.11-4.39,3.3-6.46C469.16,16.77,495.77,0,526.32,0c40.22,0,73.63,29.06,80.45,67.31,5.5-.59,11.08-.93,16.74-.93,30.92,0,59.69,9.13,83.81,24.82,9.48-28.89,37.34-49.81,70.24-49.81,30.88,0,57.35,18.45,68.29,44.62,3.5,8.3,5.41,17.37,5.41,26.9,0,.61-.04,1.18-.05,1.78,9.94-4.66,21.02-7.28,32.72-7.28,13.41,0,26,3.43,36.99,9.45,12.65-2.03,26.1-3.13,40.04-3.13,71.78,0,130.5,29.04,135.34,65.79,65.38,10.41,114.17,25.22,136.54,42.3"/>
    </g>
  </g>
</svg>