<?xml version="1.0" encoding="UTF-8"?>
<svg id="Layer_2" data-name="Layer 2" xmlns="http://www.w3.org/2000/svg" viewBox="0 0 1130.06 421.8">
  <defs>
    <style>
      .cls-1 {
        fill: #a7a7a7;
        stroke-width: 0px;
      }
    </style>
  </defs>
  <g id="svg2">
    <g id="g142">
      <path id="path144" class="cls-1" d="M970.61,282.03c1.39-3.73,2.15-7.59,2.15-11.52,0-29.85-41.78-54.73-97.18-60.28,1.82-4.68,2.81-9.53,2.81-14.53,0-9.47-3.45-18.45-9.61-26.56,8.61.92,17.47,1.41,26.55,1.41,81.02,0,146.72-38.17,146.72-85.27S976.35,0,895.32,0s-146.71,38.17-146.71,85.28c0,16.83,8.42,32.49,22.89,45.72-.73-.01-1.44-.04-2.16-.04-15.39,0-30.03,1.91-43.31,5.32.14-1.76.23-3.53.23-5.32,0-59.33-77.09-107.44-172.16-107.44s-172.16,48.11-172.16,107.44h-.19c-95.19,0-172.35,26.93-172.35,60.15,0,6.52,3,12.79,8.49,18.67C94.88,215,0,248.33,0,288.69c0,17.81,18.48,34.27,49.69,47.52-3.46,5.52-5.3,11.31-5.3,17.27,0,37.73,73.72,68.32,164.66,68.32,68.38,0,127.03-17.29,151.92-41.92,81.68,11.04,191.56,17.8,312.39,17.8,252.23,0,456.71-29.44,456.71-65.75,0-19.96-61.85-37.84-159.45-49.91"/>
    </g>
  </g>
</svg>