<?xml version="1.0" encoding="UTF-8"?>
<svg id="Layer_2" data-name="Layer 2" xmlns="http://www.w3.org/2000/svg" viewBox="0 0 1428.75 456.87">
  <defs>
    <style>
      .cls-1 {
        fill: #a7a7a7;
        stroke-width: 0px;
      }
    </style>
  </defs>
  <g id="svg2">
    <g id="g380">
      <path id="path382" class="cls-1" d="M1249.02,319.14c4.08-8.87,6.23-18.16,6.23-27.73,0-61.01-87.45-110.48-195.35-110.48-91.5,0-168.31,35.59-189.51,83.62-4.05-1.32-8.41-2.53-12.96-3.61,4.61-5.11,7.15-10.64,7.15-16.41,0-19.95-30.09-36.97-72.45-43.73,4-7.67,7.12-15.61,9.3-23.81,8.02,2.51,17.24,3.95,27.1,3.95,30.59,0,55.4-13.84,55.4-30.91s-24.81-30.9-55.4-30.9c-9.64,0-18.72,1.37-26.6,3.79C784.5,53.05,698.59,0,595.22,0c-95.94,0-176.86,45.68-201.92,108.08-56.69,2.58-98.04,10.58-98.04,20.05s37.49,16.7,90.02,19.64c0,.43-.03.85-.03,1.28,0,5.16.39,10.26,1.09,15.29-147.49.8-265.59,20.7-265.59,45.14,0,20.81,85.8,38.35,202.5,43.57-60.85,17.07-102.93,48.65-107.01,85.25-28.64,5.16-51.21,15.85-61.38,29.2C67.56,370.26,0,389.14,0,412.02c0,24.77,79.24,44.85,176.97,44.85,62.84,0,117.99-8.3,149.42-20.8,29.98,8.08,64.34,12.68,100.86,12.68,47.92,0,92.06-7.89,127.51-21.19,38.22,14.44,90.16,23.32,147.38,23.32,77.39,0,145.14-16.26,182.39-40.56,33.61-5.03,60.52-13.52,75.58-23.95,28.44,9.59,61.52,15.18,96.89,15.48,22.77,27.08,95.72,46.89,182.19,46.89,104.69,0,189.57-29.04,189.57-64.85s-79.6-63.01-179.73-64.76"/>
    </g>
  </g>
</svg>