<?xml version="1.0" encoding="UTF-8"?>
<svg xmlns="http://www.w3.org/2000/svg" version="1.1" xmlns:cc="http://creativecommons.org/ns#" xmlns:dc="http://purl.org/dc/elements/1.1/" xmlns:inkscape="http://www.inkscape.org/namespaces/inkscape" xmlns:rdf="http://www.w3.org/1999/02/22-rdf-syntax-ns#" xmlns:sodipodi="http://sodipodi.sourceforge.net/DTD/sodipodi-0.dtd" xmlns:svg="http://www.w3.org/2000/svg" viewBox="0 0 744.1 576">
  <defs>
    <style>
      .cls-1 {
        fill: #000;
        stroke-width: 0px;
      }
    </style>
  </defs>
  <g id="svg2" inkscape:output_extension="org.inkscape.output.svg.inkscape" inkscape:version="0.46+pre4" sodipodi:docname="flying bird.svg" sodipodi:version="0.32">
    <g id="_defs" data-name="&amp;lt;defs">
      <inkscape:perspective id="perspective10" inkscape:persp3d-origin="372.04724 : 350.78739 : 1" inkscape:vp_x="0 : 526.18109 : 1" inkscape:vp_y="0 : 1000 : 0" inkscape:vp_z="744.09448 : 526.18109 : 1" sodipodi:type="inkscape:persp3d"/>
      <inkscape:perspective id="perspective2390" inkscape:persp3d-origin="372.04724 : 350.78739 : 1" inkscape:vp_x="0 : 526.18109 : 1" inkscape:vp_y="0 : 1000 : 0" inkscape:vp_z="744.09448 : 526.18109 : 1" sodipodi:type="inkscape:persp3d"/>
    </g>
    <sodipodi:namedview id="base" bordercolor="#666666" borderopacity="1.0" gridtolerance="10000" guidetolerance="10" inkscape:current-layer="layer1" inkscape:cx="-23.571429" inkscape:cy="520" inkscape:document-units="px" inkscape:pageopacity="0.0" inkscape:pageshadow="2" inkscape:window-height="975" inkscape:window-width="1280" inkscape:window-x="-4" inkscape:window-y="-4" inkscape:zoom="0.35" objecttolerance="10" pagecolor="#ffffff" showgrid="false"/>
    <g id="layer1" inkscape:groupmode="layer" inkscape:label="Layer 1">
      <path id="path2396" class="cls-1" d="M335.7,531.5c-14.9-10.7-26.5-19.7-33.8-26.1-2.8-2.4-5.6-4.4-6.3-4.4-.7,0-4.4-2.4-8.2-5.2-3.8-2.9-11.5-7.5-17-10.2-5.5-2.7-12.9-7.3-16.4-10.1-13.2-10.5-34.9-30-42.3-37.8-4.2-4.5-9.6-10-11.8-12.3-8.8-8.8-22.7-25.3-35.2-42-20.1-26.7-29.5-47.9-29.5-66.4,0-11.8,23.4-49.4,38-61.1,9.8-7.8,17.9-15.9,17.9-17.8s.6-1.8,1.3-1.8,2-1.2,2.7-2.7c1.3-2.4,0-3.7-11.9-11.9-30.9-21.5-60-48.9-67.3-63.4-2.6-5.1-9.1-13-19.3-23.4l-15.4-15.7-6,.9c-3.3.5-6.3,1.6-6.6,2.5s2.6,5,6.3,9.2c3.8,4.2,8.7,11.2,10.9,15.5,4.4,8.7,6.7,18,4.6,18s-1.7-2-2.2-4.3c-.5-2.4-2.6-7.1-4.8-10.6-2.2-3.4-4.4-7.8-4.9-9.6-1.1-3.7-3.2-6.8-4.6-6.8-.5,0-.9,2.8-.9,6.1,0,3.4-.8,6.9-1.7,7.8-1.3,1.3-1.5.4-.8-4.7,1-7.6.1-8.1-3.6-2-2.9,4.8-3.7,2.5-1.3-3.9.9-2.4.9-4.2.1-5-.7-.7-1-2-.7-2.9s-.6-2.8-2.2-4.1c-3.9-3.5-3.5-5.9,2-11.2,3.7-3.6,4.6-5.4,4-7.9-.6-2.3,0-3.6,1.7-4.6,2.2-1.2,2.2-1.8.6-4.8-2.1-3.9-1.1-6.4,2.7-6.4s3,.1,1.4-7.9l-1.1-5.9,8.5-7.1c10.2-8.5,12.1-11.4,14.4-22.1,1.8-8.3,4.1-13,4-8.1,0,4.6-3.6,17.6-6.2,23.1-1.4,2.9-5.8,8.6-9.8,12.7-6.6,6.7-7.2,7.9-6.4,11.7l.9,4.2,2.1-3.4c1.2-1.9,5.6-6.8,9.9-11,10-9.9,11.1-11.7,16.2-27.1,5.7-17.3,5.5-16.9,6.3-16,.8.8-5.5,23.8-8.3,30.5-1,2.3-5.8,9-10.8,14.8s-9,11.1-9,11.8,1.9,1.2,4.1,1.2c5.3,0,12.2-6.3,17.8-16.4,3.2-5.7,4-6.5,3.3-3.4-.5,2.3-3.1,7.5-5.9,11.6-6.4,9.5-6.4,9.6-3.6,9.6s5.9-3.3,10.3-7.4c4.4-4.1,9.2-7.8,10.8-8.3,2.6-.8,17.8-22.3,17.8-25.2s.6-1.4,1.4-1.4,1.4.3,1.4.7c0,3.3-15.9,27.3-20.7,31.2-1.8,1.4-6.3,5.3-10,8.5-5.8,5.1-7.7,5.9-13,6-3.4,0-7.7.9-9.6,2-1.9,1.1-5.2,2-7.4,2-6.6,0-2.4,2.5,11.2,6.4l12.4,3.6,11.5-4.8c17.3-7.2,24.3-8.3,41.6-6.5,8,.9,18.1,2.4,22.3,3.4,11.4,2.7,38.3,13.4,68.4,27.2,10.1,4.6,10.9,4.8,14.6,2.9,2.2-1.1,10-7.7,17.5-14.7,7.4-6.9,20.8-17.8,29.8-24.2,33.9-24.2,38.1-25.3,92.6-25.1,48,.2,56.2,1.1,120.1,12.8,12,2.2,29.8,5,39.6,6.2s20.3,2.5,23.5,2.9c3.6.5,5.8,1.4,5.8,2.6,0,2.5-7.5,8.7-11.9,9.8-5.9,1.5-31.9-.5-44.8-3.5-14.5-3.3-19.9-3.6-13.3-.7,2.7,1.2,4.4,2.9,4.4,4.5,0,4.6-2.8,5.4-14.3,4.2-6-.6-12.8-1.1-15-1.1-3.7,0-3.4.4,3.4,3.5,4.1,1.9,11.2,4.9,15.7,6.6,9.7,3.6,14.5,8.7,11.5,12.3-2.7,3.2-11.3,1.7-24-4.2-5.7-2.6-10.6-4.8-10.9-4.8s-.5,1.8-.5,3.9c0,7.4-10.6,7.8-23.8.8-5-2.6-9.5-4.8-10.1-4.8s-1,1.7-1,3.8c0,3.4-.5,3.8-5.3,4.2-2.9.2-8-.6-11.2-1.8-5.6-2.1-5.9-2.1-8.6.6-1.5,1.5-2.8,4.1-2.8,5.6s-1.2,3-4.1,3.6c-4.9,1-4.9,1-1.3,6.1,1.7,2.3,2.6,5.5,2.4,7.7-.4,3.4-.9,3.7-5.6,3.6-5-.2-5.1,0-3.2,2.7,3,4.5,4.1,11.6,2.2,13.8-1.3,1.6-1.2,3,.6,6.6,2.9,6.2,2.8,9.8-.6,13.2s-3.8,2.7-8.5,1.9l-5.7-.9,5.8,6c6.1,6.3,7.2,10.4,3.7,14s-1.6,2.3,3.1,4.4c23.2,10.1,53.1,26,74.1,39.4,15,9.6,34.2,21.1,40.1,24.1,10.6,5.4,79.6,29.7,84.3,29.7s5.7,1.2,10.6,2.7c4.9,1.5,15.6,4.5,23.7,6.9,15.3,4.3,28.2,10,28.2,12.3s-7.4,1.5-24.1-2.9c-32.7-8.5-81.2-13.4-92.9-9.3-5.2,1.8-6.3,4.4-4.3,10.7,1.7,5.3,14,24.7,19.1,30.2,1.8,1.9,7.5,8.3,12.8,14.3,5.3,5.9,20.3,22.2,33.4,36.1,26.3,27.8,31,33.7,29,35.7-2.8,2.8-8.6-1.9-27.1-22.2-45.9-50.2-85.9-86-123.7-110.8-6.6-4.3-14.6-8.8-17.7-9.9-8.2-2.9-27-6-41.3-6.8-48.8-2.8-74.2-6.3-96.8-13.4-7.4-2.3-8.9-2-6.2,1.1,1,1.2,1.3,3.5.9,5.5-1,4.1-4.6,4.4-16.3,1.4-4.3-1.1-8.1-2-8.4-2s.5,1.8,1.7,4c2,3.4,2,4.3.3,6.3-1.6,1.9-3.4,2.2-9.5,1.6-4.1-.4-9.1-1.1-11-1.5-1.9-.4-5.9-1.1-8.9-1.5l-5.5-.7,5.5,3c8,4.3,10.2,6.7,10.2,10.9s-3.3,8.1-9.8,8.1h-5.5l3.6,2.8c4.9,3.8,2.8,7.6-5.3,9.6-6.8,1.7-6.7,1.6-4.5,5.1,2.1,3.4.4,9.4-3,10.5l-2.8.9,3,3.2c2.4,2.5,2.9,4.3,2.3,8-.7,4.4-.3,5.2,5.3,9.8,7.1,5.8,9.1,10.9,5.3,13.7-1.5,1.1-2,2.3-1.2,2.9.7.6,5,4.3,9.6,8.1,4.6,3.9,9.8,9.8,11.6,13.3,3.1,5.8,3.1,6.4,1,8-2.1,1.6-1.5,2.5,5.8,9.8,4.5,4.4,8.1,8.8,8.1,9.6s.9,2.3,2,3.3c2,1.7,2.9,6.8,1.2,6.8s-3.1-1.3-5.8-3l-4.9-3,4.1,4.6c2.3,2.5,7.9,8.6,12.6,13.5,5.7,5.9,8.8,10.4,9.4,13.5,1.1,6.1-1,8.1-5.9,5.6-2.1-1-4.3-2.1-4.9-2.4-.6-.3,1.2,2.6,4.1,6.4,8.3,11.1,12.3,23.4,7.4,23.4s-6.3-4.3-12.6-9.5c-6.2-5.2-11.6-9.3-11.9-8.9-.8.8,10.1,13.8,13.5,16.2,4.6,3.2,10.8,12.1,10.8,15.4s1.6,5.6,3.5,8.5c2.7,4,3.4,6.7,3.1,11l-.4,5.7-13-9.3ZM141.2,145.5c1.1-2.9-4.4-6.3-7.6-4.6-3.3,1.8-3.2,3.4.4,5.8,3.2,2.2,6,1.7,7.2-1.3ZM117.5,142.3c0-2.4-25.3-20.3-26.7-18.9-.4.4,4.6,5.1,11,10.4,10.9,9,15.7,11.6,15.7,8.4ZM81.8,98c3.9-2.1,2.3-3.6-2.8-2.6-2.4.5-3.4,1.3-2.9,2.6.9,2.3,1.6,2.3,5.7,0Z"/>
    </g>
  </g>
</svg>