<?xml version="1.0" encoding="utf-8"?>
<!-- Generator: Adobe Illustrator 28.4.1, SVG Export Plug-In . SVG Version: 6.00 Build 0)  -->
<svg version="1.1" id="Layer_1" xmlns="http://www.w3.org/2000/svg" xmlns:xlink="http://www.w3.org/1999/xlink" x="0px" y="0px"
	 viewBox="0 0 73.5 71.2" style="enable-background:new 0 0 73.5 71.2;" xml:space="preserve">
<style type="text/css">
	.st0{fill:#597C55;stroke:#231F20;stroke-width:0.3;stroke-miterlimit:10;}
	.st1{fill:#9ED08E;stroke:#231F20;stroke-width:0.3;stroke-miterlimit:10;}
	.st2{fill:#E1E564;stroke:#231F20;stroke-width:0.3;stroke-miterlimit:10;}
</style>
<g id="leaf--round">
	<path class="st0" d="M5.2,67.1c0,0,4-3.1,4-4.2c0-1.4-1.7-9,5.6-12.4s15,1.1,15,1.1s0.2,10.7-8,15.3c0,0-6.3,2.5-11.1-2.2
		c0,0-0.8-0.6-5.4,2.5C5.2,67.3,5.2,67.1,5.2,67.1z"/>
	<path class="st0" d="M23,55.5c0,0-8,3.3-13,8.2"/>
</g>
<g id="leaf--drop">
	<path class="st1" d="M56.3,54.5l1-6.3c0,0-6.4-9-1.9-21.7s18.3-1.8,11.6,7.1s-8.5,14.7-8.5,14.7l-1.6,6.2
		C56.9,54.5,56.4,55,56.3,54.5z"/>
	<path class="st1" d="M62.3,27.2c0,0-3.8,6.4-4.4,20"/>
</g>
<g id="leaf--heart">
	<path class="st2" d="M40.1,20.8l-9-3.3c0,0,2.1,1.8,0.3,5.3c-1.8,3.5-6.7,3-13.6-3.5S8,7.3,8,7.3S15.4,5.1,23.6,7s12.1,3.9,11,7.7
		s-3.4,2.5-3.4,2.5l8.8,3.2C40,20.4,40.7,20.5,40.1,20.8z"/>
	<path class="st2" d="M15.8,10.6c0,0,9.6,3,12.8,5.1"/>
</g>
</svg>