<?xml version="1.0" encoding="UTF-8"?>
<svg id="Layer_2" data-name="Layer 2" xmlns="http://www.w3.org/2000/svg" viewBox="0 0 544.73 208.79">
  <defs>
    <style>
      .cls-1, .cls-2, .cls-3 {
        stroke-width: 0px;
      }

      .cls-1, .cls-4 {
        fill: #d6cca3;
      }

      .cls-2 {
        fill: #000;
      }

      .cls-5 {
        fill: none;
      }

      .cls-5, .cls-6, .cls-4 {
        stroke: #000;
        stroke-miterlimit: 10;
      }

      .cls-6, .cls-3 {
        fill: #968075;
      }
    </style>
  </defs>
  <g id="Layer_1-2" data-name="Layer 1">
    <g>
      <g>
        <path class="cls-1" d="M500.73,0v.04C500.23.02,499.73,0,499.23,0h1.5Z"/>
        <path class="cls-2" d="M500.73,0h-1.5c.5,0,1,.02,1.5.04v-.04h0Z"/>
      </g>
      <g>
        <path class="cls-1" d="M500.73,103h-1.5c.5,0,1-.02,1.5-.04v.04Z"/>
        <path class="cls-2" d="M500.73,102.96c-.5.02-1,.04-1.5.04h1.5v-.04h0Z"/>
      </g>
      <g>
        <path class="cls-1" d="M158.73,102.5c-27.29,0-49.5-22.21-49.5-49.5v-3c0-27.29,22.21-49.5,49.5-49.5h331.5c-21.07,4.75-37,25.81-37,51s15.93,46.25,37,51H158.73Z"/>
        <path class="cls-2" d="M486.5,1c-19.47,6.27-33.77,26.53-33.77,50.5s14.3,44.23,33.77,50.5H158.73c-27.02,0-49-21.98-49-49v-3c0-27.02,21.98-49,49-49h327.77M499.23,0H158.73c-27.61,0-50,22.39-50,50v3c0,27.61,22.39,50,50,50h340.5c-25.13,0-45.5-23.06-45.5-51.5S474.1,0,499.23,0h0Z"/>
      </g>
      <g>
        <path class="cls-1" d="M499.23,102.5c-24.81,0-45-22.88-45-51S474.42.5,499.23.5c.4,0,.79.02,1.19.03h.29c24.4.91,43.52,23.29,43.52,50.97s-19.12,50.06-43.52,50.96h-.29c-.4.03-.79.04-1.19.04Z"/>
        <path class="cls-2" d="M499.23,1c.39,0,.77.02,1.16.03h.31c11.55.44,22.36,5.86,30.44,15.28,8.12,9.47,12.6,21.97,12.6,35.19s-4.47,25.72-12.6,35.19c-8.08,9.42-18.89,14.84-30.44,15.26h-.31c-.38.03-.77.04-1.16.04-24.54,0-44.5-22.65-44.5-50.5S474.69,1,499.23,1M499.23,0c-25.13,0-45.5,23.06-45.5,51.5s20.37,51.5,45.5,51.5c.5,0,1-.02,1.5-.04,24.43-.9,44-23.58,44-51.46S525.16.94,500.73.04c-.5-.02-1-.04-1.5-.04h0Z"/>
      </g>
      <path class="cls-4" d="M506.29,17.85s-28.17-2.54-35.17,18.42c-7,20.95-2.88,38.36,16.35,43.93"/>
      <path class="cls-4" d="M499.98,26.77s29.25,3.73,26.25,28.73"/>
      <path class="cls-4" d="M536.23,43.5s4.76,56.38-49.12,45.69"/>
      <path class="cls-4" d="M513.21,67.02s-27.47,14.48-30.23-15.52"/>
    </g>
    <g>
      <g>
        <path class="cls-3" d="M393.19,108.71v.04c-.49-.16-.96-.32-1.44-.46l1.44.42Z"/>
        <path class="cls-2" d="M391.75,108.29c.48.14.95.3,1.43.46v-.04s-1.43-.42-1.43-.42h0Z"/>
      </g>
      <g>
        <path class="cls-3" d="M364.39,207.6l-1.44-.42c.48.14.97.26,1.45.38v.04Z"/>
        <path class="cls-2" d="M362.95,207.18l1.44.42v-.04c-.47-.12-.96-.24-1.44-.38h0Z"/>
      </g>
      <g>
        <path class="cls-3" d="M36.17,111.49c-12.69-3.7-23.19-12.12-29.55-23.71C.26,76.19-1.21,62.81,2.49,50.12l.84-2.88C9.44,26.24,28.98,11.57,50.83,11.57c4.67,0,9.34.67,13.87,1.99l318.25,92.69c-.85-.05-1.71-.08-2.57-.08-21.15,0-40.56,15.92-47.19,38.71-3.88,13.33-2.94,27.19,2.64,39.04,4.19,8.91,10.63,15.88,18.57,20.25L36.17,111.49Z"/>
        <path class="cls-2" d="M50.83,11.07v1c4.62,0,9.24.66,13.72,1.97l314.67,91.65c-20.92.57-39.94,16.46-46.52,39.05-3.91,13.44-2.97,27.43,2.67,39.4,3.66,7.77,9.01,14.08,15.57,18.52L36.31,111.01c-12.57-3.66-22.96-11.99-29.25-23.47C.76,76.07-.69,62.83,2.97,50.26l.84-2.88c3.03-10.39,9.21-19.27,17.89-25.68,8.4-6.21,18.75-9.63,29.13-9.63v-1M50.83,11.07c-21.66,0-41.62,14.19-47.98,36.03l-.84,2.88c-7.72,26.51,7.51,54.27,34.02,61.99l326.92,95.21c-24.13-7.03-37.24-34.86-29.28-62.17,6.71-23.04,26.27-38.35,46.71-38.35,3.79,0,7.6.53,11.37,1.62L64.83,13.08c-4.67-1.36-9.37-2.01-14-2.01h0Z"/>
      </g>
      <g>
        <path class="cls-3" d="M374.33,208.29c-3.31,0-6.6-.41-9.81-1.21l-.31-.08c-.38-.09-.75-.19-1.12-.3-11.53-3.36-20.89-11.6-26.36-23.21-5.48-11.63-6.4-25.25-2.58-38.34,6.51-22.36,25.53-37.98,46.23-37.98,3.8,0,7.58.54,11.23,1.6.39.11.76.24,1.14.37l.27.09c23.18,7.68,35.27,34.52,27.53,61.09-6.51,22.36-25.52,37.97-46.23,37.97Z"/>
        <path class="cls-2" d="M380.38,106.67v1h0c3.75,0,7.48.53,11.09,1.58.37.11.74.23,1.1.35l.29.1c10.97,3.64,19.84,11.87,24.96,23.17,5.15,11.37,5.95,24.62,2.25,37.31-6.45,22.14-25.26,37.61-45.75,37.61-3.26,0-6.52-.4-9.68-1.2l-.3-.07c-.37-.09-.75-.19-1.12-.29-11.39-3.32-20.64-11.47-26.05-22.94-5.43-11.52-6.33-25.01-2.56-37.98,6.45-22.15,25.27-37.62,45.75-37.63v-1M380.38,106.67c-20.44,0-40,15.31-46.71,38.35-7.95,27.31,5.16,55.14,29.28,62.17.48.14.97.26,1.45.38,3.3.83,6.62,1.23,9.93,1.23,20.44,0,40-15.29,46.71-38.33,7.79-26.76-4.65-54.01-27.86-61.71-.47-.16-.95-.32-1.43-.46-3.77-1.1-7.59-1.62-11.37-1.62h0Z"/>
      </g>
      <path class="cls-6" d="M393.54,127.4s-26.34-10.31-38.92,7.85c-12.58,18.16-13.5,36.03,3.42,46.75"/>
      <path class="cls-6" d="M384.99,134.2s27.04,11.76,17.17,34.93"/>
      <path class="cls-6" d="M415.11,160.4s-11.2,55.46-59.94,30.13"/>
      <path class="cls-6" d="M386.43,176.55s-30.43,6.22-24.68-23.35"/>
    </g>
    <path class="cls-5" d="M317.47,188.85s-34.5-27.43-83.62-37.84c-49.12-10.41-93.86-17.34-140.17-34.35"/>
    <path class="cls-5" d="M205.16,131.2s-135.9-23.62-155.41-43.66"/>
    <path class="cls-5" d="M218.35,67.02S145.95,40,62.09,17.75"/>
    <path class="cls-5" d="M162.57,12.66s41.8,13.99,91.52,6.98,94.14-15.78,143.47-15.62"/>
    <path class="cls-5" d="M287.82,28.44s135.79-24.25,160.97-12.09"/>
    <path class="cls-5" d="M345.23,90.5s29.4,3.41,115.82-4.34"/>
  </g>
</svg>