<?xml version="1.0" encoding="UTF-8"?>
<svg id="Layer_2" data-name="Layer 2" xmlns="http://www.w3.org/2000/svg" viewBox="0 0 544.73 208.79">
  <defs>
    <style>
      .cls-1, .cls-2, .cls-3 {
        stroke-width: 0px;
      }

      .cls-1, .cls-4 {
        fill: #d6cca3;
      }

      .cls-2 {
        fill: #000;
      }

      .cls-5 {
        fill: none;
      }

      .cls-5, .cls-4, .cls-6 {
        stroke: #000;
        stroke-miterlimit: 10;
      }

      .cls-3, .cls-6 {
        fill: #af8f72;
      }
    </style>
  </defs>
  <g id="Layer_1-2" data-name="Layer 1">
    <g>
      <g>
        <path class="cls-3" d="M44,0v.04c.5-.02,1-.04,1.5-.04h-1.5Z"/>
        <path class="cls-2" d="M45.5,0h-1.5v.04c.5-.02,1-.04,1.5-.04h0Z"/>
      </g>
      <g>
        <path class="cls-3" d="M44,103h1.5c-.5,0-1-.02-1.5-.04v.04Z"/>
        <path class="cls-2" d="M44,102.96v.04h1.5c-.5,0-1-.02-1.5-.04h0Z"/>
      </g>
      <g>
        <path class="cls-3" d="M54.5,102.5c21.07-4.75,37-25.81,37-51S75.57,5.25,54.5.5h331.5c27.29,0,49.5,22.21,49.5,49.5v3c0,27.29-22.21,49.5-49.5,49.5H54.5Z"/>
        <path class="cls-2" d="M386,1c27.02,0,49,21.98,49,49v3c0,27.02-21.98,49-49,49H58.23c19.47-6.27,33.77-26.53,33.77-50.5S77.7,7.27,58.23,1h327.77M386,0H45.5c25.13,0,45.5,23.06,45.5,51.5s-20.37,51.5-45.5,51.5h340.5c27.61,0,50-22.39,50-50v-3c0-27.61-22.39-50-50-50h0Z"/>
      </g>
      <g>
        <path class="cls-3" d="M45.5,102.5c-.4,0-.79-.02-1.19-.03h-.29C19.62,101.56.5,79.18.5,51.5S19.62,1.44,44.02.54h.29c.4-.03.79-.04,1.19-.04,24.81,0,45,22.88,45,51s-20.19,51-45,51Z"/>
        <path class="cls-2" d="M45.5,1c24.54,0,44.5,22.65,44.5,50.5s-19.96,50.5-44.5,50.5c-.39,0-.77-.02-1.16-.03h-.31c-11.55-.44-22.36-5.86-30.44-15.28C5.47,77.22,1,64.72,1,51.5S5.47,25.78,13.6,16.31C21.67,6.89,32.48,1.47,44.04,1.04h.31c.38-.03.77-.04,1.16-.04M45.5,0c-.5,0-1,.02-1.5.04C19.57.94,0,23.63,0,51.5s19.57,50.56,44,51.46c.5.02,1,.04,1.5.04,25.13,0,45.5-23.06,45.5-51.5S70.63,0,45.5,0h0Z"/>
      </g>
      <path class="cls-6" d="M38.44,17.85s28.17-2.54,35.17,18.42c7,20.95,2.88,38.36-16.35,43.93"/>
      <path class="cls-6" d="M44.75,26.77s-29.25,3.73-26.25,28.73"/>
      <path class="cls-6" d="M8.5,43.5s-4.76,56.38,49.12,45.69"/>
      <path class="cls-6" d="M31.52,67.02s27.47,14.48,30.23-15.52"/>
    </g>
    <g>
      <g>
        <path class="cls-1" d="M151.54,108.71v.04c.49-.16.96-.32,1.44-.46l-1.44.42Z"/>
        <path class="cls-2" d="M152.98,108.29l-1.44.42v.04c.49-.16.96-.32,1.44-.46h0Z"/>
      </g>
      <g>
        <path class="cls-1" d="M180.34,207.6l1.44-.42c-.48.14-.97.26-1.45.38v.04Z"/>
        <path class="cls-2" d="M181.78,207.18c-.48.14-.97.26-1.45.38v.04s1.45-.42,1.45-.42h0Z"/>
      </g>
      <g>
        <path class="cls-1" d="M190.29,204.18c18.9-10.45,28.3-35.13,21.26-59.31-6.64-22.79-26.04-38.71-47.19-38.71-.86,0-1.72.03-2.57.08L480.04,13.56c4.53-1.32,9.19-1.99,13.86-1.99,21.85,0,41.39,14.67,47.5,35.67l.84,2.88c3.7,12.69,2.23,26.07-4.13,37.66-6.36,11.59-16.86,20.01-29.55,23.71l-318.27,92.7Z"/>
        <path class="cls-2" d="M493.9,12.07c10.39,0,20.73,3.42,29.13,9.63,8.68,6.41,14.86,15.29,17.89,25.68l.84,2.88c7.56,25.94-7.4,53.19-33.34,60.75l-314.63,91.64c6.56-4.43,11.91-10.74,15.57-18.52,5.64-11.96,6.58-25.95,2.67-39.4-6.58-22.59-25.6-38.48-46.52-39.05L480.18,14.04c4.48-1.31,9.1-1.97,13.72-1.97M493.9,11.07c-4.63,0-9.34.65-14,2.01L152.98,108.29c3.77-1.1,7.59-1.62,11.37-1.62,20.44,0,40,15.3,46.71,38.35,7.95,27.31-5.16,55.14-29.28,62.17l326.92-95.21c26.51-7.72,41.75-35.47,34.02-61.99l-.84-2.88c-6.36-21.84-26.32-36.03-47.98-36.03h0Z"/>
      </g>
      <g>
        <path class="cls-1" d="M170.4,208.29c-20.71,0-39.72-15.62-46.23-37.97-7.74-26.57,4.35-53.41,27.53-61.09l.31-.1c.36-.12.73-.24,1.1-.35,3.65-1.06,7.43-1.6,11.23-1.6,20.71,0,39.72,15.62,46.23,37.99,7.86,27-5.12,54.61-28.94,61.55-.38.11-.76.2-1.14.3l-.3.07c-3.2.81-6.5,1.21-9.8,1.21h0Z"/>
        <path class="cls-2" d="M164.35,107.67c20.49,0,39.3,15.47,45.75,37.63,7.79,26.73-5.04,54.07-28.6,60.93-.37.11-.74.2-1.12.29l-.3.07c-3.16.8-6.42,1.2-9.68,1.2-20.49,0-39.3-15.47-45.75-37.61-3.7-12.69-2.9-25.94,2.25-37.31,5.12-11.3,13.98-19.53,24.96-23.17l.29-.1c.36-.12.73-.24,1.1-.35,3.61-1.05,7.34-1.58,11.09-1.58M164.35,106.67c-3.79,0-7.6.52-11.37,1.62-.48.14-.95.3-1.43.46-23.21,7.69-35.65,34.95-27.86,61.71,6.71,23.04,26.27,38.33,46.71,38.33,3.3,0,6.63-.4,9.93-1.23.48-.12.97-.24,1.45-.38,24.13-7.03,37.24-34.86,29.28-62.17-6.71-23.04-26.27-38.35-46.71-38.35h0Z"/>
      </g>
      <path class="cls-4" d="M151.2,127.4s26.34-10.31,38.92,7.85c12.58,18.16,13.5,36.03-3.42,46.75"/>
      <path class="cls-4" d="M159.74,134.2s-27.04,11.76-17.17,34.93"/>
      <path class="cls-4" d="M129.62,160.4s11.2,55.46,59.94,30.13"/>
      <path class="cls-4" d="M158.3,176.55s30.43,6.22,24.68-23.35"/>
    </g>
    <path class="cls-5" d="M227.26,188.85s34.5-27.43,83.62-37.84,93.86-17.34,140.17-34.35"/>
    <path class="cls-5" d="M339.57,131.2s135.9-23.62,155.41-43.66"/>
    <path class="cls-5" d="M326.38,67.02s72.39-27.02,156.26-49.27"/>
    <path class="cls-5" d="M382.16,12.66s-41.8,13.99-91.52,6.98c-49.72-7-94.14-15.78-143.47-15.62"/>
    <path class="cls-5" d="M256.91,28.44S121.12,4.19,95.94,16.35"/>
    <path class="cls-5" d="M199.5,90.5s-29.4,3.41-115.82-4.34"/>
  </g>
</svg>