<?xml version="1.0" encoding="UTF-8"?>
<svg id="Layer_2" data-name="Layer 2" xmlns="http://www.w3.org/2000/svg" viewBox="0 0 459.01 293.98">
  <defs>
    <style>
      .cls-1 {
        fill: #000;
      }

      .cls-1, .cls-2, .cls-3 {
        stroke-width: 0px;
      }

      .cls-4 {
        fill: none;
      }

      .cls-4, .cls-5 {
        stroke: #000;
        stroke-miterlimit: 10;
      }

      .cls-2, .cls-5 {
        fill: #af8f72;
      }

      .cls-3 {
        fill: #8c8a79;
      }
    </style>
  </defs>
  <g id="Layer_1-2" data-name="Layer 1">
    <g>
      <path class="cls-3" d="M283.05,108.53c-40.62,0-71.84-5.22-92.8-15.52C115.31,56.18,15.97,49.09,9.86,48.69L.82,30.62c71.19,2.14,165.29,26.25,166.24,26.5l.25-.97C122.17,44.07,95.81,6.58,91.82.56l14.17.82c2.58,3.04,39.4,44.86,124.62,65.83,26.05,6.41,56.78,9.66,91.34,9.66,58.83,0,109.37-9.56,111.29-9.93,11.17.21,18.77,2.96,22.6,8.17,3.64,4.95,2.6,10.68,2.3,12-5.87,1.33-95.8,21.43-175.06,21.43h-.02Z"/>
      <path class="cls-1" d="M92.79,1.11l12.95.75c1.7,1.98,10.89,12.26,28.84,24.57,18.33,12.57,49.85,29.93,95.9,41.26,26.09,6.42,56.86,9.67,91.46,9.67,58.42,0,108.68-9.42,111.33-9.93,10.97.22,18.42,2.89,22.14,7.95,3.29,4.47,2.62,9.63,2.29,11.3-8.17,1.84-96.6,21.34-174.65,21.34-40.54,0-71.69-5.2-92.58-15.47-40.28-19.79-87.31-30.81-119.67-36.56-32.16-5.72-56.6-7.52-60.62-7.79L1.64,31.15c71.02,2.3,164.35,26.21,165.29,26.45l.51-1.93c-25.43-6.8-44.65-21.71-56.3-33.01-9.76-9.47-15.98-18.06-18.35-21.54M90.86,0s26.65,43.34,76.32,56.63c0,0-95.02-24.54-167.18-26.54l9.54,19.07s102.72,6.07,180.49,44.29c23.49,11.54,57.29,15.57,93.02,15.57,82.57,0,175.49-21.51,175.49-21.51,0,0,6.07-20.51-25.35-21.09,0,0-50.92,9.93-111.24,9.93-29.78,0-61.84-2.42-91.22-9.64C141.86,44.85,106.23.89,106.23.89l-15.37-.89h0Z"/>
    </g>
    <path class="cls-4" d="M438.11,84.28s-106.71,23.06-177.46,15.88"/>
    <path class="cls-4" d="M306.32,88.86s-51.27,9.98-104.65-14.98"/>
    <path class="cls-4" d="M175.67,80.6s-42.06-24.4-106.35-32.83"/>
    <g>
      <g>
        <path class="cls-2" d="M397.57,193.9v.04c-.49-.16-.96-.32-1.44-.46l1.44.42Z"/>
        <path class="cls-1" d="M396.13,193.48c.48.14.95.3,1.43.46v-.04s-1.43-.42-1.43-.42h0Z"/>
      </g>
      <g>
        <path class="cls-2" d="M368.77,292.79l-1.44-.42c.48.14.97.26,1.45.38v.04Z"/>
        <path class="cls-1" d="M367.33,292.37l1.44.42v-.04c-.47-.12-.96-.24-1.44-.38h0Z"/>
      </g>
      <g>
        <path class="cls-2" d="M40.55,196.67c-12.69-3.7-23.19-12.12-29.55-23.71-6.36-11.59-7.83-24.96-4.13-37.66l.84-2.88c6.12-21,25.65-35.67,47.5-35.67,4.67,0,9.34.67,13.86,1.99l318.25,92.69c-.85-.05-1.71-.08-2.57-.08-21.15,0-40.56,15.92-47.19,38.71-3.88,13.33-2.94,27.19,2.64,39.04,4.19,8.91,10.63,15.88,18.57,20.25L40.55,196.67Z"/>
        <path class="cls-1" d="M55.21,96.26v1c4.62,0,9.24.66,13.72,1.97l314.67,91.65c-20.92.57-39.94,16.46-46.52,39.05-6.7,23.01,1.36,46.47,18.3,57.93L40.69,196.19c-12.57-3.66-22.96-11.99-29.25-23.47-6.3-11.47-7.75-24.71-4.09-37.28l.84-2.88c3.03-10.39,9.21-19.27,17.89-25.68,8.4-6.21,18.75-9.63,29.13-9.63v-1M55.21,96.26c-21.66,0-41.62,14.19-47.98,36.03l-.84,2.88c-7.72,26.51,7.51,54.27,34.02,61.99l326.92,95.21c-24.13-7.03-37.24-34.86-29.28-62.17,6.71-23.04,26.27-38.35,46.71-38.35,3.79,0,7.6.53,11.37,1.62L69.21,98.26c-4.67-1.36-9.37-2.01-14-2.01h0Z"/>
      </g>
      <g>
        <path class="cls-2" d="M378.71,293.48c-3.3,0-6.6-.41-9.81-1.21l-.31-.08c-.38-.09-.75-.19-1.13-.3-11.53-3.36-20.89-11.6-26.36-23.21-5.48-11.63-6.4-25.25-2.58-38.34,6.51-22.36,25.53-37.98,46.23-37.98,3.8,0,7.58.54,11.23,1.6.37.11.73.23,1.09.35l.32.11c23.18,7.68,35.27,34.52,27.53,61.09-6.51,22.36-25.52,37.97-46.23,37.97Z"/>
        <path class="cls-1" d="M384.76,191.85v1h0c3.75,0,7.48.53,11.09,1.58.37.11.74.23,1.1.35l.29.1c10.97,3.64,19.84,11.87,24.96,23.17,5.15,11.37,5.95,24.62,2.25,37.31-6.45,22.14-25.26,37.61-45.75,37.61-3.26,0-6.52-.4-9.68-1.2l-.3-.07c-.37-.09-.75-.19-1.12-.29-23.56-6.86-36.39-34.19-28.6-60.93,6.45-22.15,25.27-37.62,45.75-37.63v-1M384.76,191.85c-20.44,0-40,15.31-46.71,38.35-7.95,27.31,5.16,55.14,29.28,62.17.48.14.97.26,1.45.38,3.3.83,6.62,1.23,9.93,1.23,20.44,0,40-15.29,46.71-38.33,7.79-26.76-4.65-54.01-27.86-61.71-.47-.16-.95-.32-1.43-.46-3.77-1.1-7.59-1.62-11.37-1.62h0Z"/>
      </g>
      <path class="cls-5" d="M397.91,212.58s-26.34-10.31-38.92,7.85c-12.58,18.16-13.5,36.03,3.42,46.75"/>
      <path class="cls-5" d="M389.36,219.38s27.04,11.76,17.17,34.93"/>
      <path class="cls-5" d="M419.49,245.59s-11.2,55.46-59.94,30.13"/>
      <path class="cls-5" d="M390.81,261.73s-30.43,6.22-24.68-23.35"/>
    </g>
    <path class="cls-4" d="M321.85,274.03s-34.5-27.43-83.62-37.84c-49.12-10.41-93.86-17.34-140.17-34.35"/>
    <path class="cls-4" d="M209.53,216.38s-135.9-23.62-155.41-43.66"/>
    <path class="cls-4" d="M222.73,152.21s-72.39-27.02-156.26-49.27"/>
  </g>
</svg>