<?xml version="1.0" encoding="utf-8"?>
<!-- Generator: Adobe Illustrator 28.4.1, SVG Export Plug-In . SVG Version: 6.00 Build 0)  -->
<svg version="1.1" id="Layer_1" xmlns="http://www.w3.org/2000/svg" xmlns:xlink="http://www.w3.org/1999/xlink" x="0px" y="0px"
	 viewBox="0 0 140.2 164.2" style="enable-background:new 0 0 140.2 164.2;" xml:space="preserve">
<style type="text/css">
	.st0{fill:#B36732;stroke:#231F20;stroke-width:0;stroke-miterlimit:10;}
	.st1{fill:#569341;stroke:#231F20;stroke-width:0;stroke-miterlimit:10;}
</style>
<g transform="translate(1.4065934065934016 1.4065934065934016) scale(2.81 2.81)">
	<path class="st0" d="M19.1,57.7h11.4c-2.4-2.4-2.3-6.1-2.3-9.7l0,0c0.1-4.2,1.5-8.9,2.1-13.8L28.9,34c-0.3,2.4-1,4.6-1.8,6.5
		c-1.2-3-2.2-4.7-2.3-8.2h-1c-0.5,2.8-0.2,5.8,1,8.9c-1.9-2.6-3.9-4.6-6-5.7l-1.1,1.1c2.6,1.9,5.1,5.6,4.8,9.8
		C22.7,51.5,22,54.7,19.1,57.7z"/>
	<path class="st1" d="M49.1,17.2c0-2-1.3-3.6-3.2-4.1c0,0,0-0.1,0-0.1c0-2.4-1.9-4.3-4.3-4.3c-0.4,0-0.8,0.1-1.1,0.2
		c-0.2-2.2-2-4-4.3-4c-0.6,0-1.2,0.1-1.7,0.4c-0.3-2.1-2.1-3.7-4.2-3.7c-1,0-1.9,0.4-2.7,0.9c-0.7-1.6-2.3-2.7-4.1-2.7
		c-1.8,0-3.4,1.1-4.1,2.7c-0.1,0-0.2,0-0.4,0c-1.5,0-2.8,0.7-3.6,1.8c-0.8-0.6-1.7-0.9-2.7-0.9c-2.5,0-4.5,2-4.5,4.5
		c-2.5,0-4.5,2-4.5,4.5c0,0.5,0.1,1.1,0.3,1.6c-2.4,0.3-4.2,2.3-4.2,4.8c0,1.5,0.7,2.8,1.7,3.7c-0.5,0.8-0.9,1.7-0.9,2.8
		c0,0.6,0.1,1.1,0.3,1.6c-0.8,0.9-1.2,2-1.2,3.2c0,2.7,2.2,4.9,4.9,4.9c1.1,0,2.1-0.4,2.9-1c0.5,2.1,2.4,3.7,4.7,3.7
		c1.3,0,2.4-0.5,3.3-1.3c0.8,1.3,2.2,2.1,3.8,2.1c2.5,0,4.5-2,4.5-4.5c0,0,0-0.1,0-0.1c0.6,0.3,1.3,0.5,2.1,0.5c1,0,2-0.3,2.7-0.9
		c0.6,2.2,2.7,3.8,5,3.8c1.4,0,2.7-0.6,3.7-1.5c0.7,0.3,1.4,0.5,2.1,0.5c2.9,0,5.3-2.4,5.3-5.3c0-0.8-0.2-1.6-0.5-2.3
		c2.1-0.7,3.6-2.7,3.6-5c0-1-0.3-1.9-0.7-2.7C48.3,20.1,49.1,18.8,49.1,17.2z"/>
</g>
</svg>